<?xml version="1.0" encoding="utf-8"?>
<!-- Generator: Adobe Illustrator 23.0.1, SVG Export Plug-In . SVG Version: 6.00 Build 0)  -->
<svg version="1.1" id="Layer_1" xmlns="http://www.w3.org/2000/svg" xmlns:xlink="http://www.w3.org/1999/xlink" x="0px" y="0px"
	 viewBox="0 0 600 600" style="enable-background:new 0 0 600 600;" xml:space="preserve">
<style type="text/css">
	.st0{fill:#FFFFFF;}
	.st1{fill:#FCFCFC;}
</style>
<rect x="200.189" y="75.805" width="199.811" height="199.811"/>
<polygon class="st0" points="364.983,185.502 364.983,115.05 235.206,115.05 235.206,185.502 290.178,185.502 290.178,204.941 
	258.868,204.941 258.059,236.371 341.321,236.371 342.13,204.941 310.011,204.941 310.011,185.502 "/>
<g>
	<path class="st1" d="M207.247,337.139c1.602,0.9,2.849,2.146,3.74,3.74c0.891,1.593,1.336,3.406,1.336,5.44
		s-0.446,3.852-1.336,5.454c-0.891,1.602-2.138,2.853-3.74,3.753c-1.602,0.899-3.42,1.35-5.454,1.35h-4.86
		c-0.306,0-0.558-0.099-0.756-0.297c-0.198-0.198-0.297-0.45-0.297-0.756v-18.981c0-0.306,0.099-0.558,0.297-0.756
		c0.198-0.197,0.45-0.297,0.756-0.297h4.86C203.827,335.789,205.645,336.239,207.247,337.139z M206.167,353.865
		c1.278-0.746,2.277-1.777,2.997-3.091c0.72-1.314,1.08-2.799,1.08-4.455s-0.36-3.142-1.08-4.455
		c-0.72-1.314-1.719-2.34-2.997-3.078c-1.278-0.737-2.736-1.106-4.374-1.106h-3.807v17.307h3.807
		C203.43,354.986,204.888,354.612,206.167,353.865z"/>
	<path class="st1" d="M226.956,342.944c1.134,0.647,2.029,1.548,2.687,2.699c0.657,1.152,0.986,2.439,0.986,3.861
		s-0.324,2.705-0.972,3.848c-0.648,1.144-1.543,2.038-2.687,2.687c-1.143,0.647-2.426,0.972-3.848,0.972s-2.705-0.324-3.847-0.972
		c-1.144-0.648-2.039-1.543-2.687-2.687c-0.648-1.143-0.972-2.426-0.972-3.848s0.324-2.709,0.972-3.861
		c0.648-1.151,1.543-2.052,2.687-2.699c1.143-0.648,2.425-0.973,3.847-0.973S225.822,342.296,226.956,342.944z M220.328,344.591
		c-0.837,0.486-1.494,1.157-1.971,2.012c-0.478,0.855-0.716,1.822-0.716,2.902c0,1.063,0.238,2.021,0.716,2.876
		c0.477,0.854,1.134,1.525,1.971,2.011c0.837,0.486,1.769,0.729,2.794,0.729c1.044,0,1.98-0.243,2.808-0.729
		c0.828-0.485,1.476-1.156,1.944-2.011c0.468-0.855,0.702-1.813,0.702-2.876c0-1.08-0.234-2.047-0.702-2.902
		c-0.468-0.854-1.116-1.525-1.944-2.012c-0.828-0.486-1.764-0.729-2.808-0.729C222.096,343.862,221.165,344.104,220.328,344.591z"/>
	<path class="st1" d="M253.052,342.701c0.819,0.504,1.458,1.22,1.917,2.146s0.688,2.003,0.688,3.227v7.775
		c0,0.307-0.095,0.554-0.284,0.743c-0.189,0.188-0.437,0.283-0.743,0.283s-0.558-0.095-0.756-0.283
		c-0.198-0.189-0.297-0.437-0.297-0.743v-7.775c0-1.278-0.329-2.291-0.985-3.038c-0.658-0.746-1.517-1.12-2.579-1.12
		c-1.134,0-2.052,0.378-2.754,1.134c-0.702,0.756-1.044,1.746-1.026,2.97v0.055v7.775c0,0.307-0.094,0.554-0.283,0.743
		c-0.189,0.188-0.437,0.283-0.743,0.283c-0.306,0-0.558-0.095-0.756-0.283c-0.198-0.189-0.297-0.437-0.297-0.743v-7.775
		c0-1.278-0.329-2.291-0.986-3.038c-0.657-0.746-1.517-1.12-2.579-1.12c-1.116,0-2.034,0.369-2.754,1.107
		c-0.72,0.738-1.08,1.683-1.08,2.835v7.991c0,0.307-0.094,0.554-0.283,0.743c-0.189,0.188-0.437,0.283-0.743,0.283
		s-0.558-0.095-0.756-0.283c-0.198-0.189-0.297-0.437-0.297-0.743V343.16c0-0.306,0.099-0.558,0.297-0.756
		c0.198-0.198,0.45-0.297,0.756-0.297s0.554,0.099,0.743,0.297s0.283,0.45,0.283,0.756v0.594c0.504-0.576,1.103-1.021,1.796-1.337
		c0.692-0.314,1.444-0.472,2.254-0.472c0.99,0,1.881,0.225,2.673,0.675s1.422,1.08,1.89,1.89c0.522-0.81,1.202-1.439,2.039-1.89
		s1.777-0.675,2.821-0.675C251.292,341.945,252.232,342.197,253.052,342.701z"/>
	<path class="st1" d="M270.791,342.957c1.143,0.658,2.042,1.563,2.7,2.714c0.657,1.152,0.986,2.43,0.986,3.834v6.345
		c0,0.288-0.099,0.531-0.297,0.729s-0.45,0.297-0.756,0.297c-0.306,0-0.558-0.095-0.756-0.283c-0.198-0.189-0.297-0.437-0.297-0.743
		v-1.62c-0.63,0.864-1.431,1.544-2.403,2.039c-0.972,0.495-2.043,0.742-3.213,0.742c-1.368,0-2.605-0.328-3.712-0.985
		s-1.98-1.557-2.619-2.7c-0.639-1.143-0.958-2.416-0.958-3.82s0.328-2.682,0.985-3.834c0.657-1.151,1.557-2.056,2.7-2.714
		c1.143-0.656,2.417-0.985,3.82-0.985C268.374,341.972,269.647,342.301,270.791,342.957z M269.751,354.392
		c0.828-0.485,1.48-1.156,1.958-2.011c0.477-0.855,0.715-1.813,0.715-2.876c0-1.062-0.239-2.021-0.715-2.875
		c-0.477-0.855-1.13-1.53-1.958-2.025c-0.828-0.495-1.755-0.742-2.781-0.742c-1.026,0-1.958,0.247-2.794,0.742
		s-1.494,1.17-1.971,2.025c-0.478,0.854-0.716,1.813-0.716,2.875c0,1.063,0.238,2.021,0.716,2.876
		c0.477,0.854,1.134,1.525,1.971,2.011c0.837,0.486,1.769,0.729,2.794,0.729C267.996,355.121,268.923,354.878,269.751,354.392z"/>
	<path class="st1" d="M296.939,336.464c1.08,0.63,1.926,1.449,2.538,2.457c0.126,0.198,0.189,0.414,0.189,0.648
		c0,0.342-0.162,0.611-0.486,0.81c-0.145,0.072-0.306,0.108-0.485,0.108c-0.199,0-0.383-0.05-0.554-0.148
		c-0.172-0.099-0.311-0.238-0.419-0.419c-1.008-1.584-2.529-2.385-4.563-2.402c-1.458,0-2.61,0.306-3.456,0.918
		c-0.847,0.611-1.269,1.484-1.269,2.618c0,2.106,1.701,3.385,5.103,3.834c2.231,0.324,3.896,1.009,4.995,2.053
		c1.098,1.044,1.646,2.421,1.646,4.131c0,1.26-0.306,2.349-0.918,3.267s-1.449,1.616-2.511,2.093
		c-1.063,0.477-2.25,0.715-3.564,0.715c-1.71,0-3.227-0.364-4.549-1.093c-1.323-0.729-2.272-1.715-2.848-2.957
		c-0.072-0.125-0.108-0.27-0.108-0.432c0-0.252,0.095-0.463,0.284-0.635c0.189-0.171,0.445-0.256,0.77-0.256
		c0.216,0,0.418,0.059,0.607,0.175c0.189,0.117,0.328,0.284,0.418,0.5c0.414,0.81,1.103,1.462,2.065,1.957s2.083,0.743,3.361,0.743
		c1.476,0,2.664-0.355,3.564-1.067c0.899-0.71,1.35-1.705,1.35-2.983c0-1.134-0.418-2.088-1.255-2.861
		c-0.837-0.774-2.093-1.27-3.767-1.485c-2.089-0.252-3.73-0.904-4.928-1.957c-1.197-1.054-1.795-2.345-1.795-3.875
		c0-1.08,0.292-2.029,0.877-2.849c0.584-0.818,1.395-1.449,2.43-1.89s2.21-0.661,3.523-0.661
		C294.608,335.52,295.859,335.834,296.939,336.464z"/>
	<path class="st1" d="M314.868,342.944c1.134,0.647,2.029,1.548,2.687,2.699c0.656,1.152,0.985,2.439,0.985,3.861
		s-0.324,2.705-0.973,3.848c-0.647,1.144-1.543,2.038-2.686,2.687c-1.144,0.647-2.426,0.972-3.848,0.972
		c-1.423,0-2.705-0.324-3.848-0.972c-1.144-0.648-2.039-1.543-2.687-2.687c-0.648-1.143-0.972-2.426-0.972-3.848
		s0.323-2.709,0.972-3.861c0.647-1.151,1.543-2.052,2.687-2.699c1.143-0.648,2.425-0.973,3.848-0.973
		C312.456,341.972,313.733,342.296,314.868,342.944z M308.239,344.591c-0.837,0.486-1.494,1.157-1.971,2.012
		c-0.478,0.855-0.716,1.822-0.716,2.902c0,1.063,0.238,2.021,0.716,2.876c0.477,0.854,1.134,1.525,1.971,2.011
		c0.837,0.486,1.769,0.729,2.795,0.729c1.043,0,1.979-0.243,2.808-0.729c0.828-0.485,1.476-1.156,1.944-2.011
		c0.468-0.855,0.702-1.813,0.702-2.876c0-1.08-0.234-2.047-0.702-2.902c-0.469-0.854-1.116-1.525-1.944-2.012
		s-1.765-0.729-2.808-0.729C310.008,343.862,309.076,344.104,308.239,344.591z"/>
	<path class="st1" d="M326.41,338.867c-0.604,0.792-0.905,1.845-0.905,3.159v0.621h3.24c0.288,0,0.518,0.085,0.688,0.256
		c0.171,0.172,0.257,0.392,0.257,0.662c0,0.252-0.086,0.463-0.257,0.634c-0.171,0.172-0.4,0.257-0.688,0.257h-3.24v11.367
		c0,0.324-0.094,0.58-0.283,0.77c-0.189,0.188-0.455,0.283-0.797,0.283c-0.288,0-0.526-0.095-0.715-0.283
		c-0.189-0.189-0.284-0.445-0.284-0.77v-11.367h-1.728c-0.288,0-0.518-0.085-0.688-0.257c-0.171-0.171-0.257-0.382-0.257-0.634
		c0-0.271,0.086-0.49,0.257-0.662c0.171-0.171,0.4-0.256,0.688-0.256h1.728v-0.514c0-1.926,0.495-3.465,1.485-4.616
		c0.99-1.152,2.385-1.729,4.185-1.729c0.307,0,0.559,0.09,0.757,0.27c0.197,0.181,0.297,0.405,0.297,0.676
		c0,0.27-0.1,0.495-0.297,0.675c-0.198,0.181-0.45,0.271-0.757,0.271C327.908,337.68,327.013,338.075,326.41,338.867z"/>
	<path class="st1" d="M339.68,355.094c0.18,0.198,0.271,0.45,0.271,0.756c0,0.288-0.108,0.531-0.324,0.729s-0.486,0.297-0.81,0.297
		h-0.567c-0.954,0-1.809-0.229-2.565-0.688c-0.756-0.459-1.346-1.08-1.769-1.863s-0.634-1.669-0.634-2.659v-7.209h-1.755
		c-0.288,0-0.518-0.085-0.688-0.257c-0.172-0.171-0.257-0.382-0.257-0.634c0-0.271,0.085-0.49,0.257-0.662
		c0.171-0.171,0.4-0.256,0.688-0.256h1.755v-4.186c0-0.306,0.095-0.558,0.283-0.756c0.189-0.198,0.437-0.297,0.742-0.297
		c0.307,0,0.558,0.099,0.757,0.297c0.197,0.198,0.297,0.45,0.297,0.756v4.186h3.051c0.288,0,0.518,0.085,0.688,0.256
		c0.171,0.172,0.257,0.392,0.257,0.662c0,0.252-0.086,0.463-0.257,0.634c-0.171,0.172-0.4,0.257-0.688,0.257h-3.051v7.209
		c0,0.918,0.27,1.67,0.81,2.255s1.232,0.877,2.079,0.877h0.729C339.266,354.797,339.5,354.896,339.68,355.094z"/>
	<path class="st1" d="M360.173,342.35c0.162,0.162,0.243,0.378,0.243,0.648c0,0.216-0.037,0.405-0.108,0.567l-4.212,12.636
		c-0.072,0.198-0.193,0.36-0.364,0.485c-0.172,0.127-0.374,0.189-0.608,0.189c-0.233,0-0.445-0.063-0.634-0.189
		c-0.189-0.125-0.311-0.287-0.364-0.485l-3.24-10.746l-3.24,10.746c-0.072,0.216-0.198,0.383-0.378,0.499
		c-0.181,0.117-0.378,0.176-0.594,0.176c-0.234,0-0.437-0.063-0.607-0.189c-0.172-0.125-0.302-0.287-0.392-0.485l-4.212-12.636
		c-0.055-0.217-0.081-0.405-0.081-0.567c0-0.594,0.287-0.891,0.863-0.891c0.504,0,0.847,0.261,1.026,0.782l3.456,10.53l3.186-10.503
		c0.072-0.252,0.193-0.45,0.365-0.594c0.171-0.145,0.392-0.216,0.661-0.216c0.271,0,0.49,0.071,0.661,0.216
		c0.171,0.144,0.293,0.342,0.365,0.594l3.104,10.449l3.429-10.477c0.181-0.521,0.514-0.782,0.999-0.782
		C359.785,342.107,360.011,342.188,360.173,342.35z"/>
	<path class="st1" d="M373.308,342.957c1.143,0.658,2.043,1.563,2.7,2.714c0.656,1.152,0.985,2.43,0.985,3.834v6.345
		c0,0.288-0.1,0.531-0.297,0.729c-0.198,0.198-0.45,0.297-0.756,0.297c-0.307,0-0.559-0.095-0.757-0.283
		c-0.198-0.189-0.297-0.437-0.297-0.743v-1.62c-0.63,0.864-1.431,1.544-2.402,2.039c-0.973,0.495-2.044,0.742-3.214,0.742
		c-1.367,0-2.605-0.328-3.712-0.985c-1.107-0.657-1.98-1.557-2.619-2.7c-0.639-1.143-0.958-2.416-0.958-3.82
		s0.328-2.682,0.985-3.834c0.656-1.151,1.557-2.056,2.699-2.714c1.144-0.656,2.417-0.985,3.821-0.985
		C370.891,341.972,372.164,342.301,373.308,342.957z M372.268,354.392c0.828-0.485,1.48-1.156,1.958-2.011
		c0.477-0.855,0.716-1.813,0.716-2.876c0-1.062-0.239-2.021-0.716-2.875c-0.478-0.855-1.13-1.53-1.958-2.025
		s-1.755-0.742-2.78-0.742c-1.026,0-1.958,0.247-2.795,0.742s-1.494,1.17-1.971,2.025c-0.478,0.854-0.716,1.813-0.716,2.875
		c0,1.063,0.238,2.021,0.716,2.876c0.477,0.854,1.134,1.525,1.971,2.011c0.837,0.486,1.769,0.729,2.795,0.729
		C370.513,355.121,371.439,354.878,372.268,354.392z"/>
	<path class="st1" d="M389.507,342.242c0.44,0.198,0.661,0.477,0.661,0.837c0,0.107-0.009,0.188-0.026,0.243
		c-0.072,0.252-0.186,0.423-0.338,0.513c-0.153,0.09-0.364,0.135-0.635,0.135c-0.162,0-0.441-0.018-0.837-0.054
		c-0.144-0.018-0.36-0.027-0.647-0.027c-1.351,0-2.453,0.36-3.308,1.08c-0.855,0.721-1.282,1.656-1.282,2.809v8.072
		c0,0.324-0.091,0.576-0.271,0.757c-0.18,0.18-0.432,0.27-0.756,0.27s-0.576-0.09-0.756-0.27c-0.181-0.181-0.271-0.433-0.271-0.757
		v-12.717c0-0.324,0.09-0.576,0.271-0.756c0.18-0.18,0.432-0.27,0.756-0.27s0.576,0.09,0.756,0.27s0.271,0.432,0.271,0.756v1.188
		c0.521-0.756,1.188-1.341,1.998-1.755c0.81-0.414,1.683-0.621,2.618-0.621C388.468,341.945,389.065,342.044,389.507,342.242z"/>
	<path class="st1" d="M402.157,342.903c1.026,0.621,1.822,1.48,2.39,2.579c0.567,1.098,0.851,2.349,0.851,3.753
		c0,0.288-0.09,0.518-0.271,0.688c-0.18,0.171-0.414,0.256-0.701,0.256h-10.908c0.144,1.477,0.72,2.673,1.728,3.591
		c1.008,0.919,2.269,1.378,3.78,1.378c0.648,0,1.3-0.112,1.958-0.338c0.656-0.225,1.183-0.509,1.579-0.851
		c0.233-0.18,0.477-0.27,0.729-0.27c0.198,0,0.396,0.071,0.595,0.216c0.233,0.216,0.351,0.459,0.351,0.729
		c0,0.234-0.099,0.441-0.297,0.621c-0.594,0.504-1.35,0.923-2.268,1.256c-0.919,0.333-1.801,0.499-2.646,0.499
		c-1.44,0-2.727-0.319-3.861-0.958c-1.134-0.639-2.021-1.53-2.659-2.673c-0.639-1.144-0.958-2.435-0.958-3.875
		c0-1.458,0.301-2.758,0.904-3.901c0.603-1.143,1.439-2.034,2.511-2.673c1.07-0.639,2.29-0.959,3.658-0.959
		C399.952,341.972,401.132,342.282,402.157,342.903z M395.219,345.104c-0.9,0.847-1.449,1.963-1.647,3.349h9.882
		c-0.144-1.386-0.647-2.502-1.512-3.349c-0.864-0.846-1.971-1.269-3.321-1.269C397.252,343.835,396.118,344.258,395.219,345.104z"/>
	<path class="st1" d="M95.942,369.539c1.602,0.9,2.849,2.146,3.74,3.74c0.891,1.593,1.336,3.406,1.336,5.44
		s-0.446,3.852-1.336,5.454c-0.891,1.602-2.138,2.853-3.74,3.753c-1.602,0.899-3.42,1.35-5.454,1.35h-4.86
		c-0.306,0-0.558-0.099-0.756-0.297c-0.198-0.198-0.297-0.45-0.297-0.756v-18.981c0-0.306,0.099-0.558,0.297-0.756
		c0.198-0.198,0.45-0.297,0.756-0.297h4.86C92.522,368.189,94.34,368.64,95.942,369.539z M94.862,386.266
		c1.278-0.746,2.277-1.777,2.997-3.091c0.72-1.314,1.08-2.799,1.08-4.455s-0.36-3.142-1.08-4.455
		c-0.72-1.314-1.719-2.34-2.997-3.078c-1.278-0.738-2.736-1.107-4.374-1.107h-3.807v17.308h3.807
		C92.125,387.387,93.583,387.013,94.862,386.266z"/>
	<path class="st1" d="M115.651,375.345c1.134,0.647,2.029,1.548,2.687,2.699c0.657,1.152,0.986,2.439,0.986,3.861
		s-0.324,2.705-0.972,3.848c-0.648,1.144-1.543,2.038-2.687,2.687c-1.143,0.647-2.426,0.972-3.848,0.972s-2.705-0.324-3.847-0.972
		c-1.144-0.648-2.039-1.543-2.687-2.687c-0.648-1.143-0.972-2.426-0.972-3.848s0.324-2.709,0.972-3.861
		c0.648-1.151,1.543-2.052,2.687-2.699c1.143-0.648,2.425-0.973,3.847-0.973S114.518,374.696,115.651,375.345z M109.023,376.991
		c-0.837,0.486-1.494,1.157-1.971,2.012c-0.478,0.855-0.716,1.822-0.716,2.902c0,1.063,0.238,2.021,0.716,2.876
		c0.477,0.854,1.134,1.525,1.971,2.011c0.837,0.486,1.769,0.729,2.794,0.729c1.044,0,1.98-0.243,2.808-0.729
		c0.828-0.485,1.476-1.156,1.944-2.011c0.468-0.855,0.702-1.813,0.702-2.876c0-1.08-0.234-2.047-0.702-2.902
		c-0.468-0.854-1.116-1.525-1.944-2.012c-0.828-0.486-1.764-0.729-2.808-0.729C110.792,376.263,109.86,376.505,109.023,376.991z"/>
	<path class="st1" d="M141.747,375.102c0.819,0.504,1.458,1.22,1.917,2.146s0.688,2.003,0.688,3.227v7.775
		c0,0.307-0.095,0.554-0.284,0.743c-0.189,0.188-0.437,0.283-0.743,0.283s-0.558-0.095-0.756-0.283
		c-0.198-0.189-0.297-0.437-0.297-0.743v-7.775c0-1.278-0.329-2.291-0.985-3.038c-0.658-0.746-1.517-1.12-2.579-1.12
		c-1.134,0-2.052,0.378-2.754,1.134c-0.702,0.756-1.044,1.746-1.026,2.97v0.055v7.775c0,0.307-0.094,0.554-0.283,0.743
		c-0.189,0.188-0.437,0.283-0.743,0.283c-0.306,0-0.558-0.095-0.756-0.283c-0.198-0.189-0.297-0.437-0.297-0.743v-7.775
		c0-1.278-0.329-2.291-0.986-3.038c-0.657-0.746-1.517-1.12-2.579-1.12c-1.116,0-2.034,0.369-2.754,1.107
		c-0.72,0.738-1.08,1.683-1.08,2.835v7.991c0,0.307-0.094,0.554-0.283,0.743c-0.189,0.188-0.437,0.283-0.743,0.283
		s-0.558-0.095-0.756-0.283c-0.198-0.189-0.297-0.437-0.297-0.743v-12.689c0-0.306,0.099-0.558,0.297-0.756
		c0.198-0.198,0.45-0.297,0.756-0.297s0.554,0.099,0.743,0.297s0.283,0.45,0.283,0.756v0.594c0.504-0.576,1.103-1.021,1.796-1.337
		c0.692-0.314,1.444-0.472,2.254-0.472c0.99,0,1.881,0.225,2.673,0.675s1.422,1.08,1.89,1.89c0.522-0.81,1.202-1.439,2.039-1.89
		s1.777-0.675,2.821-0.675C139.987,374.346,140.928,374.598,141.747,375.102z"/>
	<path class="st1" d="M151.453,369.161c0.288,0.271,0.432,0.621,0.432,1.054c0,0.414-0.145,0.765-0.432,1.053
		c-0.288,0.288-0.639,0.432-1.053,0.432c-0.415,0-0.761-0.144-1.04-0.432c-0.279-0.288-0.418-0.639-0.418-1.053
		c0-0.433,0.144-0.783,0.432-1.054c0.288-0.27,0.639-0.404,1.053-0.404C150.823,368.757,151.165,368.892,151.453,369.161z
		 M149.671,374.805c0.198-0.198,0.45-0.297,0.756-0.297c0.306,0,0.553,0.099,0.743,0.297c0.189,0.198,0.283,0.45,0.283,0.756v12.663
		c0,0.306-0.094,0.558-0.283,0.756c-0.189,0.198-0.437,0.297-0.743,0.297c-0.306,0-0.558-0.099-0.756-0.297
		c-0.198-0.198-0.297-0.45-0.297-0.756v-12.663C149.374,375.255,149.473,375.003,149.671,374.805z"/>
	<path class="st1" d="M167.181,375.155c1.017,0.54,1.813,1.328,2.389,2.362c0.576,1.035,0.864,2.272,0.864,3.713v7.02
		c0,0.288-0.099,0.531-0.297,0.729s-0.441,0.297-0.729,0.297c-0.306,0-0.558-0.099-0.756-0.297
		c-0.198-0.198-0.297-0.441-0.297-0.729v-7.02c0-1.602-0.445-2.821-1.336-3.658s-2.057-1.256-3.497-1.256
		c-0.882,0-1.679,0.171-2.39,0.513c-0.711,0.343-1.273,0.814-1.688,1.418s-0.621,1.273-0.621,2.012v7.991
		c0,0.307-0.094,0.554-0.283,0.743c-0.189,0.188-0.437,0.283-0.743,0.283s-0.558-0.095-0.756-0.283
		c-0.198-0.189-0.297-0.437-0.297-0.743v-12.689c0-0.306,0.099-0.558,0.297-0.756c0.198-0.198,0.45-0.297,0.756-0.297
		s0.554,0.099,0.743,0.297s0.283,0.45,0.283,0.756v0.918c0.594-0.666,1.314-1.188,2.16-1.566c0.846-0.378,1.764-0.566,2.754-0.566
		C165.016,374.346,166.163,374.615,167.181,375.155z"/>
	<path class="st1" d="M177.535,369.161c0.288,0.271,0.432,0.621,0.432,1.054c0,0.414-0.145,0.765-0.432,1.053
		c-0.288,0.288-0.639,0.432-1.053,0.432c-0.415,0-0.761-0.144-1.04-0.432c-0.279-0.288-0.418-0.639-0.418-1.053
		c0-0.433,0.144-0.783,0.432-1.054c0.288-0.27,0.639-0.404,1.053-0.404C176.904,368.757,177.247,368.892,177.535,369.161z
		 M175.753,374.805c0.198-0.198,0.45-0.297,0.756-0.297c0.306,0,0.553,0.099,0.743,0.297c0.189,0.198,0.283,0.45,0.283,0.756v12.663
		c0,0.306-0.094,0.558-0.283,0.756c-0.189,0.198-0.437,0.297-0.743,0.297c-0.306,0-0.558-0.099-0.756-0.297
		c-0.198-0.198-0.297-0.45-0.297-0.756v-12.663C175.456,375.255,175.555,375.003,175.753,374.805z"/>
	<path class="st1" d="M194.221,388.412c0,0.271-0.126,0.514-0.378,0.729c-0.216,0.162-0.432,0.243-0.648,0.243
		c-0.288,0-0.531-0.126-0.729-0.378l-5.562-6.831l-2.025,1.836v4.238c0,0.307-0.094,0.554-0.283,0.743
		c-0.189,0.188-0.437,0.283-0.743,0.283c-0.306,0-0.554-0.095-0.743-0.283c-0.189-0.189-0.283-0.437-0.283-0.743v-19.034
		c0-0.307,0.094-0.554,0.283-0.743c0.189-0.188,0.437-0.283,0.743-0.283c0.306,0,0.553,0.095,0.743,0.283
		c0.189,0.189,0.283,0.437,0.283,0.743V381.5l7.614-6.885c0.198-0.18,0.414-0.27,0.648-0.27c0.27,0,0.495,0.107,0.675,0.323
		c0.198,0.234,0.297,0.45,0.297,0.648c0,0.252-0.117,0.478-0.351,0.675l-5.4,4.887l5.616,6.912
		C194.14,387.972,194.221,388.179,194.221,388.412z"/>
	<path class="st1" d="M219.871,388.386c0,0.27-0.099,0.485-0.297,0.647s-0.459,0.243-0.783,0.243c-0.216,0-0.396-0.045-0.54-0.135
		c-0.145-0.09-0.27-0.225-0.378-0.405l-4.86-7.722h-0.459h-3.996v7.209c0,0.306-0.099,0.558-0.297,0.756s-0.45,0.297-0.756,0.297
		s-0.558-0.099-0.756-0.297c-0.198-0.198-0.297-0.45-0.297-0.756v-18.981c0-0.306,0.099-0.558,0.297-0.756
		c0.198-0.198,0.45-0.297,0.756-0.297h5.049c1.314,0,2.484,0.274,3.51,0.823c1.026,0.55,1.832,1.319,2.417,2.309
		c0.584,0.99,0.877,2.115,0.877,3.375c0,1.387-0.374,2.602-1.121,3.646s-1.759,1.791-3.037,2.24l4.428,7.074
		C219.79,387.927,219.871,388.169,219.871,388.386z M212.553,378.989c0.9,0,1.715-0.185,2.444-0.554
		c0.729-0.368,1.296-0.877,1.701-1.525c0.405-0.647,0.608-1.386,0.608-2.214c0-0.864-0.203-1.638-0.608-2.322
		c-0.405-0.684-0.968-1.215-1.688-1.593s-1.539-0.566-2.457-0.566h-3.996v8.774H212.553z"/>
	<path class="st1" d="M233.424,375.345c1.134,0.647,2.029,1.548,2.687,2.699c0.657,1.152,0.986,2.439,0.986,3.861
		s-0.324,2.705-0.972,3.848c-0.648,1.144-1.543,2.038-2.687,2.687c-1.143,0.647-2.426,0.972-3.848,0.972s-2.705-0.324-3.847-0.972
		c-1.144-0.648-2.039-1.543-2.687-2.687c-0.648-1.143-0.972-2.426-0.972-3.848s0.324-2.709,0.972-3.861
		c0.648-1.151,1.543-2.052,2.687-2.699c1.143-0.648,2.425-0.973,3.847-0.973S232.291,374.696,233.424,375.345z M226.796,376.991
		c-0.837,0.486-1.494,1.157-1.971,2.012c-0.478,0.855-0.716,1.822-0.716,2.902c0,1.063,0.238,2.021,0.716,2.876
		c0.477,0.854,1.134,1.525,1.971,2.011c0.837,0.486,1.769,0.729,2.794,0.729c1.044,0,1.98-0.243,2.808-0.729
		c0.828-0.485,1.476-1.156,1.944-2.011c0.468-0.855,0.702-1.813,0.702-2.876c0-1.08-0.234-2.047-0.702-2.902
		c-0.468-0.854-1.116-1.525-1.944-2.012c-0.828-0.486-1.764-0.729-2.808-0.729C228.564,376.263,227.633,376.505,226.796,376.991z"/>
	<path class="st1" d="M254.268,374.791c0.198,0.188,0.297,0.437,0.297,0.742v12.69c0,0.306-0.099,0.558-0.297,0.756
		s-0.45,0.297-0.756,0.297s-0.553-0.099-0.742-0.297c-0.189-0.198-0.284-0.45-0.284-0.756v-0.918
		c-0.594,0.666-1.314,1.188-2.16,1.565s-1.764,0.567-2.754,0.567c-1.278,0-2.426-0.271-3.442-0.811
		c-1.017-0.54-1.813-1.327-2.39-2.362c-0.576-1.034-0.864-2.272-0.864-3.712v-7.021c0-0.287,0.099-0.53,0.297-0.729
		c0.198-0.198,0.441-0.297,0.729-0.297c0.306,0,0.558,0.099,0.756,0.297c0.198,0.198,0.297,0.441,0.297,0.729v7.021
		c0,1.602,0.446,2.821,1.337,3.658c0.891,0.837,2.056,1.256,3.496,1.256c0.882,0,1.678-0.171,2.39-0.514
		c0.711-0.342,1.273-0.813,1.688-1.417s0.621-1.273,0.621-2.012v-7.992c0-0.306,0.094-0.554,0.284-0.742
		c0.189-0.189,0.436-0.283,0.742-0.283S254.07,374.602,254.268,374.791z"/>
	<path class="st1" d="M273.654,375.533v6.345c0,1.404-0.329,2.683-0.986,3.834c-0.657,1.152-1.557,2.057-2.7,2.714
		c-1.144,0.657-2.417,0.985-3.821,0.985c-1.404,0-2.677-0.328-3.82-0.985s-2.043-1.562-2.7-2.714
		c-0.657-1.151-0.985-2.43-0.985-3.834c0-1.403,0.319-2.677,0.958-3.82c0.639-1.143,1.512-2.042,2.619-2.7
		c1.107-0.656,2.344-0.985,3.712-0.985c1.17,0,2.241,0.248,3.213,0.743c0.972,0.495,1.773,1.174,2.403,2.038v-7.911
		c0-0.306,0.099-0.558,0.297-0.756c0.198-0.198,0.45-0.297,0.756-0.297c0.306,0,0.554,0.099,0.743,0.297s0.283,0.45,0.283,0.756
		v6.048C273.645,375.345,273.654,375.426,273.654,375.533z M268.929,386.779c0.828-0.495,1.48-1.17,1.958-2.025
		c0.477-0.854,0.715-1.813,0.715-2.876c0-0.306-0.009-0.53-0.027-0.675c-0.018-0.035-0.027-0.081-0.027-0.135
		c-0.18-1.404-0.77-2.556-1.769-3.456c-0.999-0.899-2.21-1.35-3.632-1.35c-1.026,0-1.958,0.242-2.794,0.729
		s-1.494,1.157-1.971,2.012c-0.478,0.855-0.716,1.813-0.716,2.875c0,1.063,0.238,2.021,0.716,2.876
		c0.477,0.855,1.134,1.53,1.971,2.025s1.769,0.742,2.794,0.742C267.174,387.521,268.101,387.274,268.929,386.779z"/>
	<path class="st1" d="M288.949,375.155c1.016,0.54,1.813,1.328,2.389,2.362c0.576,1.035,0.865,2.272,0.865,3.713v7.02
		c0,0.288-0.1,0.531-0.297,0.729c-0.199,0.198-0.441,0.297-0.73,0.297c-0.305,0-0.557-0.099-0.756-0.297
		c-0.197-0.198-0.297-0.441-0.297-0.729v-7.02c0-1.602-0.445-2.821-1.336-3.658c-0.891-0.837-2.057-1.256-3.497-1.256
		c-0.882,0-1.679,0.171-2.39,0.513c-0.711,0.343-1.273,0.814-1.688,1.418s-0.621,1.273-0.621,2.012v7.991
		c0,0.307-0.094,0.554-0.283,0.743c-0.189,0.188-0.437,0.283-0.743,0.283s-0.558-0.095-0.756-0.283
		c-0.198-0.189-0.297-0.437-0.297-0.743v-12.689c0-0.306,0.099-0.558,0.297-0.756c0.198-0.198,0.45-0.297,0.756-0.297
		s0.554,0.099,0.743,0.297s0.283,0.45,0.283,0.756v0.918c0.594-0.666,1.314-1.188,2.16-1.566c0.846-0.378,1.764-0.566,2.754-0.566
		C286.784,374.346,287.932,374.615,288.949,375.155z"/>
	<path class="st1" d="M308.97,375.371c0,0.162-0.037,0.324-0.108,0.486l-8.748,19.224c-0.162,0.414-0.423,0.621-0.783,0.621
		c-0.18,0-0.342-0.036-0.485-0.107c-0.415-0.162-0.621-0.433-0.621-0.811c0-0.162,0.035-0.324,0.107-0.485l2.673-5.913v-0.027
		l-6.021-12.474c-0.072-0.145-0.108-0.307-0.108-0.486c0-0.378,0.198-0.648,0.595-0.811c0.144-0.071,0.306-0.107,0.485-0.107
		c0.378,0,0.648,0.188,0.811,0.567l5.265,11.097l5.022-11.07c0.18-0.396,0.449-0.594,0.81-0.594c0.162,0,0.324,0.036,0.486,0.107
		C308.762,374.75,308.97,375.012,308.97,375.371z M304.73,367.163c0.306,0,0.558,0.104,0.756,0.311
		c0.198,0.207,0.297,0.464,0.297,0.77c0,0.288-0.099,0.522-0.297,0.702l-3.024,3.051c-0.18,0.181-0.414,0.271-0.701,0.271
		c-0.307,0-0.559-0.104-0.757-0.311s-0.297-0.454-0.297-0.743c0-0.287,0.081-0.521,0.243-0.701l3.051-3.052
		C304.199,367.263,304.442,367.163,304.73,367.163z"/>
	<path class="st1" d="M330.043,375.357c1.143,0.658,2.043,1.563,2.7,2.714c0.656,1.152,0.985,2.43,0.985,3.834v6.345
		c0,0.288-0.1,0.531-0.297,0.729c-0.198,0.198-0.45,0.297-0.756,0.297c-0.307,0-0.559-0.095-0.757-0.283
		c-0.198-0.189-0.297-0.437-0.297-0.743v-1.62c-0.63,0.864-1.431,1.544-2.402,2.039c-0.973,0.495-2.044,0.742-3.214,0.742
		c-1.367,0-2.605-0.328-3.712-0.985c-1.107-0.657-1.98-1.557-2.619-2.7c-0.639-1.143-0.958-2.416-0.958-3.82
		s0.328-2.682,0.985-3.834c0.656-1.151,1.557-2.056,2.699-2.714c1.144-0.656,2.417-0.985,3.821-0.985
		C327.626,374.372,328.899,374.701,330.043,375.357z M329.003,386.792c0.828-0.485,1.48-1.156,1.958-2.011
		c0.477-0.855,0.716-1.813,0.716-2.876c0-1.062-0.239-2.021-0.716-2.875c-0.478-0.855-1.13-1.53-1.958-2.025
		s-1.755-0.742-2.78-0.742c-1.026,0-1.958,0.247-2.795,0.742s-1.494,1.17-1.971,2.025c-0.478,0.854-0.716,1.813-0.716,2.875
		c0,1.063,0.238,2.021,0.716,2.876c0.477,0.854,1.134,1.525,1.971,2.011c0.837,0.486,1.769,0.729,2.795,0.729
		C327.248,387.521,328.175,387.278,329.003,386.792z"/>
	<path class="st1" d="M366.749,368.486c0.197,0.198,0.297,0.45,0.297,0.756v18.981c0,0.288-0.1,0.535-0.297,0.742
		c-0.198,0.207-0.441,0.311-0.729,0.311c-0.306,0-0.563-0.104-0.77-0.311s-0.311-0.454-0.311-0.742v-15.282l-7.506,15.336
		c-0.216,0.342-0.522,0.513-0.918,0.513c-0.45,0-0.774-0.216-0.972-0.647l-7.479-14.958v15.039c0,0.288-0.099,0.535-0.297,0.742
		s-0.45,0.311-0.756,0.311c-0.288,0-0.536-0.104-0.742-0.311c-0.207-0.207-0.311-0.454-0.311-0.742v-18.981
		c0-0.306,0.104-0.558,0.311-0.756c0.206-0.198,0.454-0.297,0.742-0.297c0.414,0,0.729,0.18,0.945,0.54l8.64,17.172l8.479-17.172
		c0.216-0.36,0.53-0.54,0.944-0.54C366.308,368.189,366.551,368.288,366.749,368.486z"/>
	<path class="st1" d="M382.719,375.357c1.143,0.658,2.043,1.563,2.7,2.714c0.656,1.152,0.985,2.43,0.985,3.834v6.345
		c0,0.288-0.1,0.531-0.297,0.729c-0.198,0.198-0.45,0.297-0.756,0.297c-0.307,0-0.559-0.095-0.757-0.283
		c-0.198-0.189-0.297-0.437-0.297-0.743v-1.62c-0.63,0.864-1.431,1.544-2.402,2.039c-0.973,0.495-2.044,0.742-3.214,0.742
		c-1.367,0-2.605-0.328-3.712-0.985c-1.107-0.657-1.98-1.557-2.619-2.7c-0.639-1.143-0.958-2.416-0.958-3.82
		s0.328-2.682,0.985-3.834c0.656-1.151,1.557-2.056,2.699-2.714c1.144-0.656,2.417-0.985,3.821-0.985
		C380.302,374.372,381.575,374.701,382.719,375.357z M381.679,386.792c0.828-0.485,1.48-1.156,1.958-2.011
		c0.477-0.855,0.716-1.813,0.716-2.876c0-1.062-0.239-2.021-0.716-2.875c-0.478-0.855-1.13-1.53-1.958-2.025
		s-1.755-0.742-2.78-0.742c-1.026,0-1.958,0.247-2.795,0.742s-1.494,1.17-1.971,2.025c-0.478,0.854-0.716,1.813-0.716,2.875
		c0,1.063,0.238,2.021,0.716,2.876c0.477,0.854,1.134,1.525,1.971,2.011c0.837,0.486,1.769,0.729,2.795,0.729
		C379.924,387.521,380.851,387.278,381.679,386.792z"/>
	<path class="st1" d="M398.918,374.643c0.44,0.198,0.661,0.477,0.661,0.837c0,0.107-0.009,0.188-0.026,0.243
		c-0.072,0.252-0.186,0.423-0.338,0.513c-0.153,0.09-0.364,0.135-0.635,0.135c-0.162,0-0.441-0.018-0.837-0.054
		c-0.144-0.018-0.36-0.027-0.647-0.027c-1.351,0-2.453,0.36-3.308,1.08c-0.855,0.721-1.282,1.656-1.282,2.809v8.072
		c0,0.324-0.091,0.576-0.271,0.757c-0.18,0.18-0.432,0.27-0.756,0.27s-0.576-0.09-0.756-0.27c-0.181-0.181-0.271-0.433-0.271-0.757
		v-12.717c0-0.324,0.09-0.576,0.271-0.756c0.18-0.18,0.432-0.27,0.756-0.27s0.576,0.09,0.756,0.27s0.271,0.432,0.271,0.756v1.188
		c0.521-0.756,1.188-1.341,1.998-1.755c0.81-0.414,1.683-0.621,2.618-0.621C397.879,374.346,398.477,374.444,398.918,374.643z"/>
	<path class="st1" d="M410.028,387.494c0.18,0.198,0.271,0.45,0.271,0.756c0,0.288-0.108,0.531-0.324,0.729s-0.486,0.297-0.81,0.297
		h-0.567c-0.954,0-1.809-0.229-2.565-0.688c-0.756-0.459-1.346-1.08-1.769-1.863s-0.634-1.669-0.634-2.659v-7.209h-1.755
		c-0.288,0-0.518-0.085-0.688-0.257c-0.172-0.171-0.257-0.382-0.257-0.634c0-0.271,0.085-0.49,0.257-0.662
		c0.171-0.171,0.4-0.256,0.688-0.256h1.755v-4.186c0-0.306,0.095-0.558,0.283-0.756c0.189-0.198,0.437-0.297,0.742-0.297
		c0.307,0,0.558,0.099,0.757,0.297c0.197,0.198,0.297,0.45,0.297,0.756v4.186h3.051c0.288,0,0.518,0.085,0.688,0.256
		c0.171,0.172,0.257,0.392,0.257,0.662c0,0.252-0.086,0.463-0.257,0.634c-0.171,0.172-0.4,0.257-0.688,0.257h-3.051v7.209
		c0,0.918,0.27,1.67,0.81,2.255s1.232,0.877,2.079,0.877h0.729C409.614,387.197,409.849,387.297,410.028,387.494z"/>
	<path class="st1" d="M416.185,369.161c0.287,0.271,0.432,0.621,0.432,1.054c0,0.414-0.145,0.765-0.432,1.053
		c-0.288,0.288-0.64,0.432-1.054,0.432s-0.761-0.144-1.039-0.432c-0.279-0.288-0.419-0.639-0.419-1.053
		c0-0.433,0.145-0.783,0.433-1.054c0.287-0.27,0.639-0.404,1.053-0.404C415.554,368.757,415.896,368.892,416.185,369.161z
		 M414.402,374.805c0.197-0.198,0.449-0.297,0.756-0.297c0.306,0,0.554,0.099,0.742,0.297c0.189,0.198,0.284,0.45,0.284,0.756
		v12.663c0,0.306-0.095,0.558-0.284,0.756c-0.188,0.198-0.437,0.297-0.742,0.297c-0.307,0-0.559-0.099-0.756-0.297
		c-0.198-0.198-0.297-0.45-0.297-0.756v-12.663C414.105,375.255,414.204,375.003,414.402,374.805z"/>
	<path class="st1" d="M431.911,375.155c1.017,0.54,1.813,1.328,2.39,2.362c0.576,1.035,0.864,2.272,0.864,3.713v7.02
		c0,0.288-0.1,0.531-0.297,0.729c-0.198,0.198-0.441,0.297-0.729,0.297c-0.306,0-0.558-0.099-0.756-0.297s-0.297-0.441-0.297-0.729
		v-7.02c0-1.602-0.445-2.821-1.337-3.658c-0.891-0.837-2.057-1.256-3.496-1.256c-0.882,0-1.679,0.171-2.39,0.513
		c-0.711,0.343-1.273,0.814-1.688,1.418s-0.621,1.273-0.621,2.012v7.991c0,0.307-0.095,0.554-0.283,0.743
		c-0.189,0.188-0.437,0.283-0.742,0.283c-0.307,0-0.559-0.095-0.757-0.283c-0.198-0.189-0.297-0.437-0.297-0.743v-12.689
		c0-0.306,0.099-0.558,0.297-0.756s0.45-0.297,0.757-0.297c0.306,0,0.553,0.099,0.742,0.297c0.188,0.198,0.283,0.45,0.283,0.756
		v0.918c0.594-0.666,1.313-1.188,2.16-1.566c0.846-0.378,1.764-0.566,2.754-0.566C429.747,374.346,430.895,374.615,431.911,375.155z
		"/>
	<path class="st1" d="M468.726,368.486c0.197,0.198,0.297,0.45,0.297,0.756v18.981c0,0.288-0.1,0.535-0.297,0.742
		c-0.198,0.207-0.441,0.311-0.729,0.311c-0.306,0-0.563-0.104-0.77-0.311s-0.311-0.454-0.311-0.742v-15.282l-7.506,15.336
		c-0.216,0.342-0.522,0.513-0.918,0.513c-0.45,0-0.774-0.216-0.972-0.647l-7.479-14.958v15.039c0,0.288-0.099,0.535-0.297,0.742
		s-0.45,0.311-0.756,0.311c-0.288,0-0.536-0.104-0.742-0.311c-0.207-0.207-0.311-0.454-0.311-0.742v-18.981
		c0-0.306,0.104-0.558,0.311-0.756c0.206-0.198,0.454-0.297,0.742-0.297c0.414,0,0.729,0.18,0.945,0.54l8.64,17.172l8.479-17.172
		c0.216-0.36,0.53-0.54,0.944-0.54C468.284,368.189,468.527,368.288,468.726,368.486z"/>
	<path class="st1" d="M484.695,375.357c1.143,0.658,2.043,1.563,2.7,2.714c0.656,1.152,0.985,2.43,0.985,3.834v6.345
		c0,0.288-0.1,0.531-0.297,0.729c-0.198,0.198-0.45,0.297-0.756,0.297c-0.307,0-0.559-0.095-0.757-0.283
		c-0.198-0.189-0.297-0.437-0.297-0.743v-1.62c-0.63,0.864-1.431,1.544-2.402,2.039c-0.973,0.495-2.044,0.742-3.214,0.742
		c-1.367,0-2.605-0.328-3.712-0.985c-1.107-0.657-1.98-1.557-2.619-2.7c-0.639-1.143-0.958-2.416-0.958-3.82
		s0.328-2.682,0.985-3.834c0.656-1.151,1.557-2.056,2.699-2.714c1.144-0.656,2.417-0.985,3.821-0.985
		C482.278,374.372,483.552,374.701,484.695,375.357z M483.655,386.792c0.828-0.485,1.48-1.156,1.958-2.011
		c0.477-0.855,0.716-1.813,0.716-2.876c0-1.062-0.239-2.021-0.716-2.875c-0.478-0.855-1.13-1.53-1.958-2.025
		s-1.755-0.742-2.78-0.742c-1.026,0-1.958,0.247-2.795,0.742s-1.494,1.17-1.971,2.025c-0.478,0.854-0.716,1.813-0.716,2.875
		c0,1.063,0.238,2.021,0.716,2.876c0.477,0.854,1.134,1.525,1.971,2.011c0.837,0.486,1.769,0.729,2.795,0.729
		C481.9,387.521,482.827,387.278,483.655,386.792z"/>
	<path class="st1" d="M492.187,368.473c0.198-0.188,0.441-0.283,0.729-0.283c0.306,0,0.554,0.095,0.742,0.283
		c0.189,0.189,0.284,0.437,0.284,0.743v15.39c0,0.774,0.157,1.404,0.472,1.89c0.315,0.486,0.716,0.729,1.202,0.729h0.675
		c0.27,0,0.486,0.095,0.648,0.283c0.161,0.189,0.242,0.437,0.242,0.742c0,0.307-0.112,0.554-0.337,0.743
		c-0.226,0.188-0.518,0.283-0.878,0.283h-0.351c-1.099,0-1.994-0.437-2.687-1.31c-0.693-0.873-1.04-1.993-1.04-3.361v-15.39
		C491.89,368.909,491.988,368.662,492.187,368.473z"/>
	<path class="st1" d="M504.311,367.163c0.306,0,0.558,0.104,0.756,0.311c0.197,0.207,0.297,0.464,0.297,0.77
		c0,0.288-0.1,0.522-0.297,0.702l-3.024,3.051c-0.18,0.181-0.414,0.271-0.702,0.271c-0.306,0-0.558-0.104-0.756-0.311
		s-0.297-0.454-0.297-0.743c0-0.287,0.081-0.521,0.243-0.701l3.051-3.052C503.779,367.263,504.022,367.163,504.311,367.163z
		 M500.773,374.805c0.197-0.198,0.449-0.297,0.756-0.297c0.306,0,0.554,0.099,0.742,0.297c0.189,0.198,0.284,0.45,0.284,0.756
		v12.663c0,0.306-0.095,0.558-0.284,0.756c-0.188,0.198-0.437,0.297-0.742,0.297c-0.307,0-0.559-0.099-0.756-0.297
		c-0.198-0.198-0.297-0.45-0.297-0.756v-12.663C500.477,375.255,500.575,375.003,500.773,374.805z"/>
	<path class="st1" d="M516.312,374.643c0.44,0.198,0.661,0.477,0.661,0.837c0,0.107-0.009,0.188-0.026,0.243
		c-0.072,0.252-0.186,0.423-0.338,0.513c-0.153,0.09-0.364,0.135-0.635,0.135c-0.162,0-0.441-0.018-0.837-0.054
		c-0.144-0.018-0.36-0.027-0.647-0.027c-1.351,0-2.453,0.36-3.308,1.08c-0.855,0.721-1.282,1.656-1.282,2.809v8.072
		c0,0.324-0.091,0.576-0.271,0.757c-0.18,0.18-0.432,0.27-0.756,0.27s-0.576-0.09-0.756-0.27c-0.181-0.181-0.271-0.433-0.271-0.757
		v-12.717c0-0.324,0.09-0.576,0.271-0.756c0.18-0.18,0.432-0.27,0.756-0.27s0.576,0.09,0.756,0.27s0.271,0.432,0.271,0.756v1.188
		c0.521-0.756,1.188-1.341,1.998-1.755c0.81-0.414,1.683-0.621,2.618-0.621C515.272,374.346,515.87,374.444,516.312,374.643z
		 M515.758,368.108c0.252,0,0.45,0.077,0.594,0.229c0.145,0.153,0.217,0.338,0.217,0.554c0,0.36-0.172,0.657-0.514,0.891
		l-3.159,2.106c-0.126,0.09-0.306,0.135-0.539,0.135c-0.234,0-0.405-0.045-0.514-0.135l-3.186-2.106
		c-0.343-0.233-0.514-0.53-0.514-0.891c0-0.234,0.077-0.423,0.229-0.567c0.153-0.144,0.355-0.216,0.608-0.216
		c0.27,0,0.558,0.099,0.863,0.297l2.512,1.701l2.511-1.674C515.173,368.217,515.47,368.108,515.758,368.108z"/>
	<path class="st1" d="M129.88,407.934v6.345c0,1.404-0.329,2.683-0.986,3.834c-0.657,1.152-1.557,2.057-2.7,2.714
		c-1.144,0.657-2.417,0.985-3.821,0.985c-1.404,0-2.677-0.328-3.82-0.985s-2.043-1.562-2.7-2.714
		c-0.657-1.151-0.985-2.43-0.985-3.834c0-1.403,0.319-2.677,0.958-3.82c0.639-1.143,1.512-2.042,2.619-2.7
		c1.107-0.656,2.344-0.985,3.712-0.985c1.17,0,2.241,0.248,3.213,0.743c0.972,0.495,1.773,1.174,2.403,2.038v-7.911
		c0-0.306,0.099-0.558,0.297-0.756c0.198-0.198,0.45-0.297,0.756-0.297c0.306,0,0.554,0.099,0.743,0.297s0.283,0.45,0.283,0.756
		v6.048C129.871,407.745,129.88,407.826,129.88,407.934z M125.155,419.18c0.828-0.495,1.48-1.17,1.958-2.025
		c0.477-0.854,0.715-1.813,0.715-2.876c0-0.306-0.009-0.53-0.027-0.675c-0.018-0.035-0.027-0.081-0.027-0.135
		c-0.18-1.404-0.77-2.556-1.769-3.456c-0.999-0.899-2.21-1.35-3.632-1.35c-1.026,0-1.958,0.242-2.794,0.729
		s-1.494,1.157-1.971,2.012c-0.478,0.855-0.716,1.813-0.716,2.875c0,1.063,0.238,2.021,0.716,2.876
		c0.477,0.855,1.134,1.53,1.971,2.025s1.769,0.742,2.794,0.742C123.4,419.922,124.327,419.675,125.155,419.18z"/>
	<path class="st1" d="M145.296,407.745c1.134,0.647,2.029,1.548,2.687,2.699c0.657,1.152,0.986,2.439,0.986,3.861
		s-0.324,2.705-0.972,3.848c-0.648,1.144-1.543,2.038-2.687,2.687c-1.143,0.647-2.426,0.972-3.848,0.972s-2.705-0.324-3.847-0.972
		c-1.144-0.648-2.039-1.543-2.687-2.687c-0.648-1.143-0.972-2.426-0.972-3.848s0.324-2.709,0.972-3.861
		c0.648-1.151,1.543-2.052,2.687-2.699c1.143-0.648,2.425-0.973,3.847-0.973S144.162,407.097,145.296,407.745z M138.667,409.392
		c-0.837,0.486-1.494,1.157-1.971,2.012c-0.478,0.855-0.716,1.822-0.716,2.902c0,1.063,0.238,2.021,0.716,2.876
		c0.477,0.854,1.134,1.525,1.971,2.011c0.837,0.486,1.769,0.729,2.794,0.729c1.044,0,1.98-0.243,2.808-0.729
		c0.828-0.485,1.476-1.156,1.944-2.011c0.468-0.855,0.702-1.813,0.702-2.876c0-1.08-0.234-2.047-0.702-2.902
		c-0.468-0.854-1.116-1.525-1.944-2.012c-0.828-0.486-1.764-0.729-2.808-0.729C140.436,408.663,139.504,408.905,138.667,409.392z"/>
	<path class="st1" d="M171.392,407.502c0.819,0.504,1.458,1.22,1.917,2.146s0.688,2.003,0.688,3.227v7.775
		c0,0.307-0.095,0.554-0.284,0.743c-0.189,0.188-0.437,0.283-0.743,0.283s-0.558-0.095-0.756-0.283
		c-0.198-0.189-0.297-0.437-0.297-0.743v-7.775c0-1.278-0.329-2.291-0.985-3.038c-0.658-0.746-1.517-1.12-2.579-1.12
		c-1.134,0-2.052,0.378-2.754,1.134c-0.702,0.756-1.044,1.746-1.026,2.97v0.055v7.775c0,0.307-0.094,0.554-0.283,0.743
		c-0.189,0.188-0.437,0.283-0.743,0.283c-0.306,0-0.558-0.095-0.756-0.283c-0.198-0.189-0.297-0.437-0.297-0.743v-7.775
		c0-1.278-0.329-2.291-0.986-3.038c-0.657-0.746-1.517-1.12-2.579-1.12c-1.116,0-2.034,0.369-2.754,1.107
		c-0.72,0.738-1.08,1.683-1.08,2.835v7.991c0,0.307-0.094,0.554-0.283,0.743c-0.189,0.188-0.437,0.283-0.743,0.283
		s-0.558-0.095-0.756-0.283c-0.198-0.189-0.297-0.437-0.297-0.743v-12.689c0-0.306,0.099-0.558,0.297-0.756
		c0.198-0.198,0.45-0.297,0.756-0.297s0.554,0.099,0.743,0.297s0.283,0.45,0.283,0.756v0.594c0.504-0.576,1.103-1.021,1.796-1.337
		c0.692-0.314,1.444-0.472,2.254-0.472c0.99,0,1.881,0.225,2.673,0.675s1.422,1.08,1.89,1.89c0.522-0.81,1.202-1.439,2.039-1.89
		s1.777-0.675,2.821-0.675C169.632,406.746,170.572,406.998,171.392,407.502z"/>
	<path class="st1" d="M189.13,407.758c1.143,0.658,2.042,1.563,2.7,2.714c0.657,1.152,0.986,2.43,0.986,3.834v6.345
		c0,0.288-0.099,0.531-0.297,0.729s-0.45,0.297-0.756,0.297c-0.306,0-0.558-0.095-0.756-0.283c-0.198-0.189-0.297-0.437-0.297-0.743
		v-1.62c-0.63,0.864-1.431,1.544-2.403,2.039c-0.972,0.495-2.043,0.742-3.213,0.742c-1.368,0-2.605-0.328-3.712-0.985
		s-1.98-1.557-2.619-2.7c-0.639-1.143-0.958-2.416-0.958-3.82s0.328-2.682,0.985-3.834c0.657-1.151,1.557-2.056,2.7-2.714
		c1.143-0.656,2.417-0.985,3.82-0.985C186.714,406.772,187.987,407.102,189.13,407.758z M188.091,419.192
		c0.828-0.485,1.48-1.156,1.958-2.011c0.477-0.855,0.715-1.813,0.715-2.876c0-1.062-0.239-2.021-0.715-2.875
		c-0.477-0.855-1.13-1.53-1.958-2.025c-0.828-0.495-1.755-0.742-2.781-0.742c-1.026,0-1.958,0.247-2.794,0.742
		s-1.494,1.17-1.971,2.025c-0.478,0.854-0.716,1.813-0.716,2.875c0,1.063,0.238,2.021,0.716,2.876
		c0.477,0.854,1.134,1.525,1.971,2.011c0.837,0.486,1.769,0.729,2.794,0.729C186.336,419.922,187.263,419.679,188.091,419.192z"/>
	<path class="st1" d="M205.074,407.38c0.881,0.405,1.593,0.968,2.133,1.688c0.144,0.234,0.216,0.441,0.216,0.621
		c0,0.307-0.144,0.55-0.432,0.729c-0.126,0.09-0.297,0.135-0.513,0.135c-0.378,0-0.693-0.135-0.945-0.405
		c-0.882-1.008-2.088-1.512-3.618-1.512c-0.99,0-1.782,0.202-2.376,0.607c-0.594,0.405-0.891,0.914-0.891,1.525
		c0,0.648,0.279,1.166,0.837,1.553c0.558,0.388,1.548,0.697,2.97,0.932c1.926,0.324,3.303,0.851,4.131,1.579
		c0.828,0.729,1.242,1.634,1.242,2.714c0,0.828-0.248,1.565-0.743,2.214s-1.184,1.152-2.065,1.512
		c-0.882,0.36-1.881,0.54-2.997,0.54c-1.116,0-2.187-0.188-3.213-0.566s-1.854-0.909-2.484-1.594c-0.18-0.216-0.27-0.422-0.27-0.621
		c0-0.306,0.144-0.575,0.432-0.81c0.216-0.162,0.441-0.243,0.675-0.243c0.306,0,0.567,0.126,0.783,0.378
		c0.432,0.505,1.003,0.892,1.715,1.161c0.711,0.271,1.499,0.405,2.362,0.405c1.26,0,2.205-0.216,2.835-0.648
		c0.63-0.432,0.954-0.999,0.972-1.7c0-0.648-0.315-1.188-0.945-1.62c-0.63-0.433-1.629-0.757-2.997-0.973
		c-1.765-0.287-3.083-0.787-3.956-1.498c-0.874-0.711-1.31-1.57-1.31-2.579c0-1.313,0.508-2.33,1.525-3.051
		c1.017-0.72,2.291-1.08,3.821-1.08C203.157,406.772,204.191,406.976,205.074,407.38z"/>
	<path class="st1" d="M221.975,407.745c1.134,0.647,2.029,1.548,2.687,2.699c0.657,1.152,0.986,2.439,0.986,3.861
		s-0.324,2.705-0.972,3.848c-0.648,1.144-1.543,2.038-2.687,2.687c-1.143,0.647-2.426,0.972-3.848,0.972s-2.705-0.324-3.847-0.972
		c-1.144-0.648-2.039-1.543-2.687-2.687c-0.648-1.143-0.972-2.426-0.972-3.848s0.324-2.709,0.972-3.861
		c0.648-1.151,1.543-2.052,2.687-2.699c1.143-0.648,2.425-0.973,3.847-0.973S220.841,407.097,221.975,407.745z M215.347,409.392
		c-0.837,0.486-1.494,1.157-1.971,2.012c-0.478,0.855-0.716,1.822-0.716,2.902c0,1.063,0.238,2.021,0.716,2.876
		c0.477,0.854,1.134,1.525,1.971,2.011c0.837,0.486,1.769,0.729,2.794,0.729c1.044,0,1.98-0.243,2.808-0.729
		c0.828-0.485,1.476-1.156,1.944-2.011c0.468-0.855,0.702-1.813,0.702-2.876c0-1.08-0.234-2.047-0.702-2.902
		c-0.468-0.854-1.116-1.525-1.944-2.012c-0.828-0.486-1.764-0.729-2.808-0.729C217.115,408.663,216.184,408.905,215.347,409.392z"/>
	<path class="st1" d="M233.518,403.668c-0.603,0.792-0.904,1.845-0.904,3.159v0.621h3.24c0.288,0,0.517,0.085,0.688,0.256
		c0.171,0.172,0.256,0.392,0.256,0.662c0,0.252-0.085,0.463-0.256,0.634c-0.171,0.172-0.401,0.257-0.688,0.257h-3.24v11.367
		c0,0.324-0.095,0.58-0.284,0.77c-0.189,0.188-0.455,0.283-0.796,0.283c-0.288,0-0.527-0.095-0.716-0.283
		c-0.189-0.189-0.283-0.445-0.283-0.77v-11.367h-1.728c-0.288,0-0.518-0.085-0.688-0.257c-0.171-0.171-0.256-0.382-0.256-0.634
		c0-0.271,0.085-0.49,0.256-0.662c0.171-0.171,0.4-0.256,0.688-0.256h1.728v-0.514c0-1.926,0.495-3.465,1.485-4.617
		c0.99-1.151,2.385-1.728,4.185-1.728c0.306,0,0.558,0.09,0.756,0.27c0.198,0.181,0.297,0.405,0.297,0.676
		c0,0.27-0.1,0.495-0.297,0.675c-0.198,0.18-0.45,0.27-0.756,0.27C235.016,402.479,234.121,402.876,233.518,403.668z"/>
	<path class="st1" d="M246.788,419.895c0.18,0.198,0.27,0.45,0.27,0.756c0,0.288-0.108,0.531-0.324,0.729s-0.486,0.297-0.81,0.297
		h-0.567c-0.954,0-1.809-0.229-2.565-0.688s-1.346-1.08-1.769-1.863c-0.423-0.783-0.634-1.669-0.634-2.659v-7.209h-1.755
		c-0.288,0-0.518-0.085-0.688-0.257c-0.171-0.171-0.256-0.382-0.256-0.634c0-0.271,0.085-0.49,0.256-0.662
		c0.171-0.171,0.4-0.256,0.688-0.256h1.755v-4.186c0-0.306,0.094-0.558,0.283-0.756s0.437-0.297,0.743-0.297
		c0.306,0,0.558,0.099,0.756,0.297c0.198,0.198,0.297,0.45,0.297,0.756v4.186h3.051c0.288,0,0.517,0.085,0.688,0.256
		c0.171,0.172,0.256,0.392,0.256,0.662c0,0.252-0.085,0.463-0.256,0.634c-0.171,0.172-0.401,0.257-0.688,0.257h-3.051v7.209
		c0,0.918,0.27,1.67,0.81,2.255s1.233,0.877,2.079,0.877h0.729C246.374,419.598,246.608,419.697,246.788,419.895z"/>
	<path class="st1" d="M267.281,407.15c0.162,0.162,0.243,0.378,0.243,0.648c0,0.216-0.036,0.405-0.108,0.567l-4.212,12.636
		c-0.072,0.198-0.194,0.36-0.365,0.485c-0.171,0.127-0.374,0.189-0.607,0.189c-0.234,0-0.445-0.063-0.634-0.189
		c-0.189-0.125-0.311-0.287-0.365-0.485l-3.24-10.746l-3.24,10.746c-0.072,0.216-0.198,0.383-0.378,0.499
		c-0.18,0.117-0.378,0.176-0.594,0.176c-0.234,0-0.437-0.063-0.607-0.189c-0.171-0.125-0.302-0.287-0.392-0.485l-4.212-12.636
		c-0.054-0.217-0.081-0.405-0.081-0.567c0-0.594,0.288-0.891,0.864-0.891c0.503,0,0.846,0.261,1.026,0.782l3.456,10.53l3.186-10.503
		c0.072-0.252,0.193-0.45,0.364-0.594c0.171-0.145,0.392-0.216,0.662-0.216s0.49,0.071,0.662,0.216
		c0.171,0.144,0.292,0.342,0.364,0.594l3.105,10.449l3.429-10.477c0.18-0.521,0.513-0.782,0.999-0.782
		C266.894,406.908,267.119,406.988,267.281,407.15z"/>
	<path class="st1" d="M280.417,407.758c1.143,0.658,2.042,1.563,2.7,2.714c0.657,1.152,0.986,2.43,0.986,3.834v6.345
		c0,0.288-0.099,0.531-0.297,0.729s-0.45,0.297-0.756,0.297c-0.306,0-0.558-0.095-0.756-0.283c-0.198-0.189-0.297-0.437-0.297-0.743
		v-1.62c-0.63,0.864-1.431,1.544-2.403,2.039c-0.972,0.495-2.043,0.742-3.213,0.742c-1.368,0-2.605-0.328-3.712-0.985
		s-1.98-1.557-2.619-2.7c-0.639-1.143-0.958-2.416-0.958-3.82s0.328-2.682,0.985-3.834c0.657-1.151,1.557-2.056,2.7-2.714
		c1.143-0.656,2.417-0.985,3.82-0.985C278,406.772,279.273,407.102,280.417,407.758z M279.377,419.192
		c0.828-0.485,1.48-1.156,1.958-2.011c0.477-0.855,0.715-1.813,0.715-2.876c0-1.062-0.239-2.021-0.715-2.875
		c-0.477-0.855-1.13-1.53-1.958-2.025c-0.828-0.495-1.755-0.742-2.781-0.742c-1.026,0-1.958,0.247-2.794,0.742
		s-1.494,1.17-1.971,2.025c-0.478,0.854-0.716,1.813-0.716,2.875c0,1.063,0.238,2.021,0.716,2.876
		c0.477,0.854,1.134,1.525,1.971,2.011c0.837,0.486,1.769,0.729,2.794,0.729C277.622,419.922,278.549,419.679,279.377,419.192z"/>
	<path class="st1" d="M296.616,407.043c0.44,0.198,0.661,0.477,0.661,0.837c0,0.107-0.009,0.188-0.026,0.243
		c-0.072,0.252-0.186,0.423-0.338,0.513c-0.153,0.09-0.364,0.135-0.635,0.135c-0.162,0-0.441-0.018-0.837-0.054
		c-0.144-0.018-0.36-0.027-0.647-0.027c-1.351,0-2.453,0.36-3.308,1.08c-0.855,0.721-1.282,1.656-1.282,2.809v8.072
		c0,0.324-0.091,0.576-0.271,0.757c-0.18,0.18-0.432,0.27-0.756,0.27s-0.576-0.09-0.756-0.27c-0.18-0.181-0.27-0.433-0.27-0.757
		v-12.717c0-0.324,0.09-0.576,0.27-0.756c0.18-0.18,0.432-0.27,0.756-0.27s0.576,0.09,0.756,0.27s0.271,0.432,0.271,0.756v1.188
		c0.521-0.756,1.188-1.341,1.998-1.755c0.81-0.414,1.683-0.621,2.618-0.621C295.577,406.746,296.175,406.845,296.616,407.043z"/>
	<path class="st1" d="M309.266,407.704c1.026,0.621,1.822,1.48,2.39,2.579c0.567,1.098,0.851,2.349,0.851,3.753
		c0,0.288-0.09,0.518-0.271,0.688c-0.18,0.171-0.414,0.256-0.701,0.256h-10.908c0.144,1.477,0.72,2.673,1.728,3.591
		c1.008,0.919,2.269,1.378,3.78,1.378c0.648,0,1.3-0.112,1.958-0.338c0.656-0.225,1.183-0.509,1.579-0.851
		c0.233-0.18,0.477-0.27,0.729-0.27c0.198,0,0.396,0.071,0.595,0.216c0.233,0.216,0.351,0.459,0.351,0.729
		c0,0.234-0.099,0.441-0.297,0.621c-0.594,0.504-1.35,0.923-2.268,1.256c-0.919,0.333-1.801,0.499-2.646,0.499
		c-1.44,0-2.727-0.319-3.861-0.958c-1.134-0.639-2.021-1.53-2.659-2.673c-0.639-1.144-0.958-2.435-0.958-3.875
		c0-1.458,0.301-2.758,0.904-3.901c0.603-1.143,1.439-2.034,2.511-2.673c1.07-0.639,2.29-0.959,3.658-0.959
		C307.061,406.772,308.24,407.083,309.266,407.704z M302.327,409.904c-0.9,0.847-1.449,1.963-1.647,3.349h9.882
		c-0.144-1.386-0.647-2.502-1.512-3.349c-0.864-0.846-1.971-1.269-3.321-1.269C304.36,408.636,303.227,409.059,302.327,409.904z"/>
	<path class="st1" d="M336.063,420.191c0.207,0.288,0.499,0.433,0.878,0.433c0.575,0,1.093-0.271,1.552-0.811
		s0.819-1.291,1.08-2.254s0.392-2.057,0.392-3.281c0-2.231-0.495-4.225-1.485-5.98c-0.989-1.755-2.362-3.127-4.117-4.117
		c-1.755-0.989-3.749-1.485-5.98-1.485c-2.232,0-4.23,0.496-5.994,1.485c-1.764,0.99-3.137,2.362-4.117,4.117
		c-0.981,1.756-1.472,3.749-1.472,5.98c0,2.251,0.49,4.253,1.472,6.008c0.98,1.755,2.349,3.123,4.104,4.104
		c1.756,0.98,3.758,1.471,6.008,1.471c0.792,0,1.634-0.09,2.524-0.27c0.892-0.181,1.634-0.414,2.228-0.702
		c0.252-0.126,0.504-0.188,0.756-0.188c0.271,0,0.477,0.09,0.621,0.27s0.216,0.432,0.216,0.756c0,0.378-0.274,0.738-0.823,1.08
		s-1.31,0.621-2.281,0.837s-2.052,0.324-3.24,0.324c-2.646,0-5.009-0.58-7.087-1.741c-2.079-1.161-3.699-2.781-4.86-4.86
		s-1.741-4.441-1.741-7.088c0-2.646,0.58-5.008,1.741-7.087s2.781-3.699,4.86-4.86c2.078-1.161,4.441-1.741,7.087-1.741
		c2.646,0,5.009,0.58,7.088,1.741s3.698,2.781,4.859,4.86s1.742,4.441,1.742,7.087c0,1.639-0.226,3.097-0.676,4.374
		c-0.45,1.278-1.07,2.277-1.862,2.997c-0.793,0.72-1.701,1.08-2.728,1.08c-0.918,0-1.67-0.274-2.254-0.823
		c-0.586-0.549-0.878-1.265-0.878-2.146v-1.026c-0.522,0.847-1.292,1.549-2.309,2.106s-2.048,0.837-3.091,0.837
		c-1.404,0-2.655-0.314-3.754-0.945c-1.098-0.63-1.957-1.507-2.578-2.632s-0.932-2.398-0.932-3.821c0-1.421,0.314-2.695,0.945-3.82
		c0.63-1.124,1.503-2.002,2.619-2.632c1.115-0.63,2.385-0.945,3.807-0.945s2.69,0.315,3.807,0.945s1.989,1.508,2.619,2.632
		c0.63,1.125,0.945,2.399,0.945,3.82v4.645C335.753,419.48,335.856,419.904,336.063,420.191z M325.655,409.688
		c-0.793,0.45-1.414,1.076-1.863,1.877c-0.45,0.801-0.675,1.705-0.675,2.713c0,1.026,0.22,1.94,0.661,2.741s1.062,1.422,1.863,1.862
		c0.801,0.441,1.714,0.662,2.74,0.662c1.008,0,1.912-0.225,2.714-0.675c0.801-0.45,1.426-1.071,1.876-1.863s0.675-1.701,0.675-2.728
		c0-1.008-0.225-1.912-0.675-2.713s-1.075-1.427-1.876-1.877c-0.802-0.449-1.706-0.675-2.714-0.675
		C327.355,409.014,326.447,409.239,325.655,409.688z"/>
	<path class="st1" d="M356.138,407.731c1.135,0.639,2.025,1.53,2.673,2.673c0.648,1.144,0.973,2.443,0.973,3.901v5.508
		c0,1.44-0.32,2.745-0.959,3.915s-1.525,2.093-2.659,2.768s-2.412,1.013-3.834,1.013c-1.387,0-2.619-0.261-3.699-0.783
		s-1.989-1.251-2.727-2.187c-0.162-0.181-0.243-0.388-0.243-0.621c0-0.271,0.126-0.504,0.378-0.702
		c0.18-0.126,0.378-0.189,0.594-0.189c0.162,0,0.324,0.041,0.486,0.122s0.288,0.185,0.378,0.311c0.54,0.684,1.224,1.215,2.052,1.593
		s1.764,0.567,2.809,0.567c1.008,0,1.921-0.248,2.74-0.743c0.818-0.495,1.462-1.188,1.931-2.079
		c0.468-0.891,0.702-1.912,0.702-3.064v-1.215c-0.54,1.026-1.306,1.832-2.296,2.417c-0.989,0.585-2.115,0.877-3.375,0.877
		c-1.403,0-2.659-0.319-3.766-0.958c-1.107-0.639-1.972-1.53-2.593-2.673c-0.621-1.144-0.931-2.435-0.931-3.875
		c0-1.458,0.323-2.758,0.972-3.901c0.647-1.143,1.543-2.034,2.687-2.673c1.143-0.639,2.425-0.959,3.848-0.959
		C353.717,406.772,355.004,407.093,356.138,407.731z M355.085,419.206c0.828-0.477,1.476-1.143,1.944-1.998
		c0.468-0.854,0.702-1.822,0.702-2.902s-0.234-2.047-0.702-2.902c-0.469-0.854-1.116-1.525-1.944-2.012s-1.765-0.729-2.808-0.729
		c-1.063,0-2.008,0.242-2.835,0.729c-0.828,0.486-1.477,1.157-1.944,2.012c-0.469,0.855-0.702,1.822-0.702,2.902
		s0.233,2.048,0.702,2.902c0.468,0.855,1.116,1.521,1.944,1.998c0.827,0.478,1.772,0.716,2.835,0.716
		C353.32,419.922,354.257,419.684,355.085,419.206z"/>
	<path class="st1" d="M382.206,407.502c0.818,0.504,1.458,1.22,1.917,2.146s0.688,2.003,0.688,3.227v7.775
		c0,0.307-0.095,0.554-0.283,0.743c-0.189,0.188-0.438,0.283-0.743,0.283s-0.558-0.095-0.756-0.283
		c-0.198-0.189-0.297-0.437-0.297-0.743v-7.775c0-1.278-0.329-2.291-0.985-3.038c-0.657-0.746-1.517-1.12-2.579-1.12
		c-1.134,0-2.052,0.378-2.754,1.134s-1.044,1.746-1.025,2.97v0.055v7.775c0,0.307-0.095,0.554-0.284,0.743
		c-0.188,0.188-0.437,0.283-0.742,0.283c-0.307,0-0.558-0.095-0.756-0.283c-0.198-0.189-0.297-0.437-0.297-0.743v-7.775
		c0-1.278-0.329-2.291-0.985-3.038c-0.657-0.746-1.517-1.12-2.579-1.12c-1.116,0-2.034,0.369-2.754,1.107s-1.08,1.683-1.08,2.835
		v7.991c0,0.307-0.095,0.554-0.283,0.743c-0.189,0.188-0.437,0.283-0.742,0.283c-0.307,0-0.559-0.095-0.757-0.283
		c-0.198-0.189-0.297-0.437-0.297-0.743v-12.689c0-0.306,0.099-0.558,0.297-0.756s0.45-0.297,0.757-0.297
		c0.306,0,0.553,0.099,0.742,0.297c0.188,0.198,0.283,0.45,0.283,0.756v0.594c0.504-0.576,1.103-1.021,1.796-1.337
		c0.692-0.314,1.444-0.472,2.254-0.472c0.99,0,1.881,0.225,2.674,0.675c0.791,0.45,1.421,1.08,1.89,1.89
		c0.521-0.81,1.201-1.439,2.038-1.89s1.777-0.675,2.822-0.675C380.446,406.746,381.387,406.998,382.206,407.502z"/>
	<path class="st1" d="M399.944,407.758c1.143,0.658,2.043,1.563,2.7,2.714c0.656,1.152,0.985,2.43,0.985,3.834v6.345
		c0,0.288-0.1,0.531-0.297,0.729c-0.198,0.198-0.45,0.297-0.756,0.297c-0.307,0-0.559-0.095-0.757-0.283
		c-0.198-0.189-0.297-0.437-0.297-0.743v-1.62c-0.63,0.864-1.431,1.544-2.402,2.039c-0.973,0.495-2.044,0.742-3.214,0.742
		c-1.367,0-2.605-0.328-3.712-0.985c-1.107-0.657-1.98-1.557-2.619-2.7c-0.639-1.143-0.958-2.416-0.958-3.82
		s0.328-2.682,0.985-3.834c0.656-1.151,1.557-2.056,2.699-2.714c1.144-0.656,2.417-0.985,3.821-0.985
		C397.527,406.772,398.801,407.102,399.944,407.758z M398.904,419.192c0.828-0.485,1.48-1.156,1.958-2.011
		c0.477-0.855,0.716-1.813,0.716-2.876c0-1.062-0.239-2.021-0.716-2.875c-0.478-0.855-1.13-1.53-1.958-2.025
		s-1.755-0.742-2.78-0.742c-1.026,0-1.958,0.247-2.795,0.742s-1.494,1.17-1.971,2.025c-0.478,0.854-0.716,1.813-0.716,2.875
		c0,1.063,0.238,2.021,0.716,2.876c0.477,0.854,1.134,1.525,1.971,2.011c0.837,0.486,1.769,0.729,2.795,0.729
		C397.149,419.922,398.076,419.679,398.904,419.192z"/>
	<path class="st1" d="M410.19,401.562c0.287,0.271,0.432,0.621,0.432,1.054c0,0.414-0.145,0.765-0.432,1.053
		c-0.288,0.288-0.64,0.432-1.054,0.432s-0.761-0.144-1.039-0.432c-0.279-0.288-0.419-0.639-0.419-1.053
		c0-0.433,0.145-0.783,0.433-1.054c0.287-0.27,0.639-0.404,1.053-0.404C409.56,401.157,409.902,401.292,410.19,401.562z
		 M408.408,407.205c0.197-0.198,0.449-0.297,0.756-0.297c0.306,0,0.554,0.099,0.742,0.297c0.189,0.198,0.284,0.45,0.284,0.756
		v12.663c0,0.306-0.095,0.558-0.284,0.756c-0.188,0.198-0.437,0.297-0.742,0.297c-0.307,0-0.559-0.099-0.756-0.297
		c-0.198-0.198-0.297-0.45-0.297-0.756v-12.663C408.111,407.655,408.21,407.403,408.408,407.205z"/>
	<path class="st1" d="M415.238,400.873c0.198-0.188,0.441-0.283,0.729-0.283c0.306,0,0.554,0.095,0.742,0.283
		c0.189,0.189,0.284,0.437,0.284,0.743v15.39c0,0.774,0.157,1.404,0.472,1.89c0.315,0.486,0.716,0.729,1.202,0.729h0.675
		c0.27,0,0.486,0.095,0.648,0.283c0.161,0.189,0.242,0.437,0.242,0.742c0,0.307-0.112,0.554-0.337,0.743
		c-0.226,0.188-0.518,0.283-0.878,0.283h-0.351c-1.099,0-1.994-0.437-2.687-1.31c-0.693-0.873-1.04-1.993-1.04-3.361v-15.39
		C414.941,401.31,415.04,401.063,415.238,400.873z"/>
	<path class="st1" d="M424.689,419.422c0.306,0.315,0.459,0.688,0.459,1.121c0,0.432-0.153,0.801-0.459,1.106
		c-0.307,0.307-0.676,0.459-1.107,0.459s-0.801-0.152-1.107-0.459c-0.306-0.306-0.459-0.675-0.459-1.106
		c0-0.45,0.158-0.828,0.473-1.134c0.315-0.307,0.68-0.459,1.094-0.459C424.014,418.95,424.383,419.107,424.689,419.422z"/>
	<path class="st1" d="M440.727,409.365c0.145,0.161,0.217,0.351,0.217,0.566c0,0.288-0.153,0.54-0.459,0.756
		c-0.162,0.108-0.334,0.162-0.514,0.162c-0.27,0-0.531-0.135-0.782-0.405c-0.54-0.594-1.135-1.039-1.782-1.336
		c-0.648-0.297-1.368-0.445-2.16-0.445c-0.99,0-1.872,0.238-2.646,0.715c-0.773,0.478-1.372,1.147-1.795,2.012
		s-0.635,1.836-0.635,2.916c0,1.063,0.225,2.021,0.675,2.876c0.45,0.854,1.08,1.525,1.891,2.011c0.81,0.486,1.736,0.729,2.78,0.729
		c1.44,0,2.602-0.387,3.483-1.161c0.233-0.198,0.477-0.297,0.729-0.297c0.216,0,0.413,0.072,0.594,0.216
		c0.252,0.216,0.378,0.459,0.378,0.729c0,0.233-0.091,0.432-0.271,0.594c-1.296,1.206-2.934,1.809-4.914,1.809
		c-1.403,0-2.664-0.328-3.779-0.985c-1.116-0.657-1.994-1.557-2.633-2.7c-0.639-1.143-0.958-2.416-0.958-3.82
		c0-1.439,0.306-2.731,0.918-3.874c0.611-1.144,1.458-2.039,2.537-2.687c1.08-0.648,2.296-0.973,3.646-0.973
		C437.496,406.772,439.323,407.637,440.727,409.365z"/>
	<path class="st1" d="M455.577,407.745c1.134,0.647,2.029,1.548,2.687,2.699c0.656,1.152,0.985,2.439,0.985,3.861
		s-0.324,2.705-0.973,3.848c-0.647,1.144-1.543,2.038-2.686,2.687c-1.144,0.647-2.426,0.972-3.848,0.972
		c-1.423,0-2.705-0.324-3.848-0.972c-1.144-0.648-2.039-1.543-2.687-2.687c-0.648-1.143-0.972-2.426-0.972-3.848
		s0.323-2.709,0.972-3.861c0.647-1.151,1.543-2.052,2.687-2.699c1.143-0.648,2.425-0.973,3.848-0.973
		C453.165,406.772,454.442,407.097,455.577,407.745z M448.948,409.392c-0.837,0.486-1.494,1.157-1.971,2.012
		c-0.478,0.855-0.716,1.822-0.716,2.902c0,1.063,0.238,2.021,0.716,2.876c0.477,0.854,1.134,1.525,1.971,2.011
		c0.837,0.486,1.769,0.729,2.795,0.729c1.043,0,1.979-0.243,2.808-0.729c0.828-0.485,1.476-1.156,1.944-2.011
		c0.468-0.855,0.702-1.813,0.702-2.876c0-1.08-0.234-2.047-0.702-2.902c-0.469-0.854-1.116-1.525-1.944-2.012
		s-1.765-0.729-2.808-0.729C450.717,408.663,449.785,408.905,448.948,409.392z"/>
	<path class="st1" d="M481.672,407.502c0.818,0.504,1.458,1.22,1.917,2.146s0.688,2.003,0.688,3.227v7.775
		c0,0.307-0.095,0.554-0.283,0.743c-0.189,0.188-0.438,0.283-0.743,0.283s-0.558-0.095-0.756-0.283
		c-0.198-0.189-0.297-0.437-0.297-0.743v-7.775c0-1.278-0.329-2.291-0.985-3.038c-0.657-0.746-1.517-1.12-2.579-1.12
		c-1.134,0-2.052,0.378-2.754,1.134s-1.044,1.746-1.025,2.97v0.055v7.775c0,0.307-0.095,0.554-0.284,0.743
		c-0.188,0.188-0.437,0.283-0.742,0.283c-0.307,0-0.558-0.095-0.756-0.283c-0.198-0.189-0.297-0.437-0.297-0.743v-7.775
		c0-1.278-0.329-2.291-0.985-3.038c-0.657-0.746-1.517-1.12-2.579-1.12c-1.116,0-2.034,0.369-2.754,1.107s-1.08,1.683-1.08,2.835
		v7.991c0,0.307-0.095,0.554-0.283,0.743c-0.189,0.188-0.437,0.283-0.742,0.283c-0.307,0-0.559-0.095-0.757-0.283
		c-0.198-0.189-0.297-0.437-0.297-0.743v-12.689c0-0.306,0.099-0.558,0.297-0.756s0.45-0.297,0.757-0.297
		c0.306,0,0.553,0.099,0.742,0.297c0.188,0.198,0.283,0.45,0.283,0.756v0.594c0.504-0.576,1.103-1.021,1.796-1.337
		c0.692-0.314,1.444-0.472,2.254-0.472c0.99,0,1.881,0.225,2.674,0.675c0.791,0.45,1.421,1.08,1.89,1.89
		c0.521-0.81,1.201-1.439,2.038-1.89s1.777-0.675,2.822-0.675C479.912,406.746,480.853,406.998,481.672,407.502z"/>
</g>
</svg>
