<svg id="Layer_1" data-name="Layer 1" xmlns="http://www.w3.org/2000/svg" viewBox="0 0 308 185">
  <defs>
    <style>
      .cls-1 {
        fill: #23b0d0;
      }

      .cls-2 {
        fill: #231f20;
      }

      .cls-3, .cls-4, .cls-5 {
        fill: #fff;
      }

      .cls-4 {
        stroke: #fff;
        stroke-miterlimit: 10;
      }

      .cls-5 {
        font-size: 48px;
        font-family: Comfortaa-Regular, Comfortaa;
      }

      .cls-6 {
        letter-spacing: -0.15em;
      }
    </style>
  </defs>
  <title>DomaSoftwareIndex</title>
  <rect class="cls-1" x="13.8" width="82.2" height="82.2"/>
  <polygon class="cls-2" points="81.5 45.1 81.5 16.1 28.2 16.1 28.2 45.1 50.8 45.1 50.8 53.1 37.9 53.1 37.6 66 71.8 66 72.1 53.1 58.9 53.1 58.9 45.1 81.5 45.1"/>
  <g>
    <path class="cls-1" d="M181.1,4a14.011,14.011,0,0,1,5.4,5.4,15.71,15.71,0,0,1,2,7.9,15.983,15.983,0,0,1-2,7.9,14.011,14.011,0,0,1-5.4,5.4,15.983,15.983,0,0,1-7.9,2h-7a1.032,1.032,0,0,1-1.1-1.1V3.2a1.222,1.222,0,0,1,.3-.9,1.135,1.135,0,0,1,.8-.3h7A17.449,17.449,0,0,1,181.1,4Zm-1.3,24.8a11.566,11.566,0,0,0,4.6-4.7,14,14,0,0,0,1.7-6.8,14,14,0,0,0-1.7-6.8,11.566,11.566,0,0,0-4.6-4.7,13.609,13.609,0,0,0-6.7-1.7h-5.9V30.4h5.9A12.122,12.122,0,0,0,179.8,28.8Z" transform="translate(-58)"/>
    <path class="cls-1" d="M209.7,12.4a10.425,10.425,0,0,1,3.9,3.9,10.6,10.6,0,0,1,1.4,5.6,11.918,11.918,0,0,1-1.4,5.6,10.425,10.425,0,0,1-3.9,3.9,10.6,10.6,0,0,1-5.6,1.4,11.625,11.625,0,0,1-5.6-1.4,10.425,10.425,0,0,1-3.9-3.9,10.6,10.6,0,0,1-1.4-5.6,11.625,11.625,0,0,1,1.4-5.6,10.425,10.425,0,0,1,3.9-3.9,10.6,10.6,0,0,1,5.6-1.4A11.918,11.918,0,0,1,209.7,12.4Zm-10,1.9a8.664,8.664,0,0,0-3.1,3.2,8.358,8.358,0,0,0-1.1,4.5,9.969,9.969,0,0,0,1.1,4.5,8.381,8.381,0,0,0,3.1,3.1,8.235,8.235,0,0,0,4.4,1.1,9.257,9.257,0,0,0,4.4-1.1,9.193,9.193,0,0,0,3.1-3.1,9.364,9.364,0,0,0,1.1-4.5,9.969,9.969,0,0,0-1.1-4.5,8.641,8.641,0,0,0-3.1-3.2,8.308,8.308,0,0,0-4.4-1.2A10.659,10.659,0,0,0,199.7,14.3Z" transform="translate(-58)"/>
    <path class="cls-1" d="M247.7,12.1a8.478,8.478,0,0,1,2.9,3.3,10.578,10.578,0,0,1,1,4.8V31.5a1.135,1.135,0,0,1-.3.8,1.222,1.222,0,0,1-.9.3,1.032,1.032,0,0,1-1.1-1.1V20.1a7.063,7.063,0,0,0-1.6-4.9,5.022,5.022,0,0,0-4.1-1.9,5.729,5.729,0,0,0-4.4,1.8,6.376,6.376,0,0,0-1.6,4.8V31.5a1.135,1.135,0,0,1-.3.8,1.222,1.222,0,0,1-.9.3,1.032,1.032,0,0,1-1.1-1.1V20.1a7.063,7.063,0,0,0-1.6-4.9,5.022,5.022,0,0,0-4.1-1.9,6.033,6.033,0,0,0-4.4,1.7,6.109,6.109,0,0,0-1.7,4.5v12a1.135,1.135,0,0,1-.3.8,1.222,1.222,0,0,1-.9.3,1.032,1.032,0,0,1-1.1-1.1V12.4a1.222,1.222,0,0,1,.3-.9,1.135,1.135,0,0,1,.8-.3,1.061,1.061,0,0,1,1.2,1.2v1.5a7.289,7.289,0,0,1,2.7-2.2,7.927,7.927,0,0,1,7.5.3,7.893,7.893,0,0,1,2.9,3.1,8.632,8.632,0,0,1,2.9-3.1,8.769,8.769,0,0,1,4.2-1.1A7.457,7.457,0,0,1,247.7,12.1Z" transform="translate(-58)"/>
    <path class="cls-1" d="M273.5,12.4a10.425,10.425,0,0,1,3.9,3.9,10.6,10.6,0,0,1,1.4,5.6v9.5a1.135,1.135,0,0,1-.3.8,1.222,1.222,0,0,1-.9.3,1.032,1.032,0,0,1-1.1-1.1V28.3a9.253,9.253,0,0,1-3.5,3.3,10.551,10.551,0,0,1-5,1.2,11.625,11.625,0,0,1-5.6-1.4,10.425,10.425,0,0,1-3.9-3.9,10.6,10.6,0,0,1-1.4-5.6,11.625,11.625,0,0,1,1.4-5.6,10.425,10.425,0,0,1,3.9-3.9A10.6,10.6,0,0,1,268,11,11.236,11.236,0,0,1,273.5,12.4Zm-1.1,17.1a9.193,9.193,0,0,0,3.1-3.1,9.364,9.364,0,0,0,1.1-4.5,9.969,9.969,0,0,0-1.1-4.5,8.641,8.641,0,0,0-3.1-3.2,8.667,8.667,0,0,0-8.8,0,8.664,8.664,0,0,0-3.1,3.2,8.358,8.358,0,0,0-1.1,4.5,9.969,9.969,0,0,0,1.1,4.5,8.381,8.381,0,0,0,3.1,3.1,8.235,8.235,0,0,0,4.4,1.1A7.425,7.425,0,0,0,272.4,29.5Z" transform="translate(-58)"/>
    <path class="cls-3" d="M179,43.5a8.632,8.632,0,0,1,3.5,3.3,1,1,0,0,1,0,1.2,1,1,0,0,1-.5.4.749.749,0,0,1-.5.1,1.255,1.255,0,0,1-1.1-.6,7.51,7.51,0,0,0-6.7-3.4,7.755,7.755,0,0,0-5.1,1.5,4.964,4.964,0,0,0-1.8,4.1,4.591,4.591,0,0,0,1.8,3.7,11.72,11.72,0,0,0,5.6,2.1,13.4,13.4,0,0,1,7.2,3,7.833,7.833,0,0,1,2.3,5.8,8.878,8.878,0,0,1-1.2,4.7,8.54,8.54,0,0,1-3.4,3.1,11.166,11.166,0,0,1-5,1.1,12.888,12.888,0,0,1-6.4-1.5,9.862,9.862,0,0,1-4-4.1.9.9,0,0,1-.1-.5,1.135,1.135,0,0,1,.3-.8,1.222,1.222,0,0,1,.9-.3,1.081,1.081,0,0,1,1.1.7,7.168,7.168,0,0,0,3.2,3,11.166,11.166,0,0,0,5,1.1,8.021,8.021,0,0,0,5.3-1.7,5.908,5.908,0,0,0,1.9-4.8,5.618,5.618,0,0,0-1.9-4.4,10.342,10.342,0,0,0-5.6-2.3,12.879,12.879,0,0,1-6.8-2.8,6.91,6.91,0,0,1-2.5-5.4,6.758,6.758,0,0,1,1.2-4,7.628,7.628,0,0,1,3.2-2.7,12.084,12.084,0,0,1,4.8-1A10.757,10.757,0,0,1,179,43.5Z" transform="translate(-58)"/>
    <path class="cls-3" d="M205.1,52.9a10.425,10.425,0,0,1,3.9,3.9,10.6,10.6,0,0,1,1.4,5.6A11.918,11.918,0,0,1,209,68a10.425,10.425,0,0,1-3.9,3.9,10.6,10.6,0,0,1-5.6,1.4,11.625,11.625,0,0,1-5.6-1.4A10.425,10.425,0,0,1,190,68a10.6,10.6,0,0,1-1.4-5.6,11.625,11.625,0,0,1,1.4-5.6,10.425,10.425,0,0,1,3.9-3.9,10.6,10.6,0,0,1,5.6-1.4A9.756,9.756,0,0,1,205.1,52.9Zm-10,1.9a9.193,9.193,0,0,0-3.1,3.1,8.358,8.358,0,0,0-1.1,4.5,9.969,9.969,0,0,0,1.1,4.5,8.381,8.381,0,0,0,3.1,3.1A8.7,8.7,0,0,0,207,66.9a9.364,9.364,0,0,0,1.1-4.5,9.969,9.969,0,0,0-1.1-4.5,7.709,7.709,0,0,0-3.1-3.1,8.308,8.308,0,0,0-4.4-1.2A8.564,8.564,0,0,0,195.1,54.8Z" transform="translate(-58)"/>
    <path class="cls-3" d="M221.8,46.5a8.781,8.781,0,0,0-1.3,5.1v.8h5.2a1.135,1.135,0,0,1,.8.3,1.1,1.1,0,0,1-.8,1.9h-5.2V71.9a1.135,1.135,0,0,1-.3.8,1.222,1.222,0,0,1-.9.3,1.032,1.032,0,0,1-1.1-1.1V54.6H215a1.135,1.135,0,0,1-.8-.3,1.1,1.1,0,0,1,.8-1.9h3.1v-.8a10.684,10.684,0,0,1,2-6.7,7.255,7.255,0,0,1,5.9-2.5,1.1,1.1,0,1,1,0,2.2A4.721,4.721,0,0,0,221.8,46.5Z" transform="translate(-58)"/>
    <path class="cls-3" d="M241.2,71a1.222,1.222,0,0,1,.3.9,1.135,1.135,0,0,1-.3.8,1.222,1.222,0,0,1-.9.3h-.9a6.97,6.97,0,0,1-3.8-1,6.757,6.757,0,0,1-2.6-2.7,8.025,8.025,0,0,1-.9-3.9v-11H229a1.135,1.135,0,0,1-.8-.3,1.1,1.1,0,0,1,.8-1.9h3.1V45.8a1.222,1.222,0,0,1,.3-.9,1.135,1.135,0,0,1,.8-.3,1.061,1.061,0,0,1,1.2,1.2v6.4h5.2a1.135,1.135,0,0,1,.8.3,1.1,1.1,0,0,1-.8,1.9h-5.2v11a5.308,5.308,0,0,0,1.4,3.7,4.675,4.675,0,0,0,3.6,1.4h.9C240.6,70.7,240.9,70.8,241.2,71Z" transform="translate(-58)"/>
    <path class="cls-3" d="M271.1,52a1.135,1.135,0,0,1,.3.8,1.268,1.268,0,0,1-.1.6l-6.3,19a1,1,0,0,1-.4.5,1.325,1.325,0,0,1-1.4,0,1,1,0,0,1-.4-.5l-5.3-16.6-5.2,16.6a1.008,1.008,0,0,1-1.1.7,1.445,1.445,0,0,1-.7-.2,1,1,0,0,1-.4-.5l-6.3-19a1.759,1.759,0,0,1-.1-.6c0-.7.3-1.1,1-1.1a1.072,1.072,0,0,1,.6.2c.2.1.3.3.5.5l5.5,16.7,5.1-16.4a1.612,1.612,0,0,1,.4-.7,1.08,1.08,0,0,1,.7-.3,1.176,1.176,0,0,1,1.2.9l5.1,16.1,5.4-16.4a1.081,1.081,0,0,1,1.1-.7A1.506,1.506,0,0,1,271.1,52Z" transform="translate(-58)"/>
    <path class="cls-3" d="M290.3,52.9a10.425,10.425,0,0,1,3.9,3.9,10.6,10.6,0,0,1,1.4,5.6v9.5a1.135,1.135,0,0,1-.3.8,1.222,1.222,0,0,1-.9.3,1.032,1.032,0,0,1-1.1-1.1V68.8a9.253,9.253,0,0,1-3.5,3.3,10.551,10.551,0,0,1-5,1.2,11.625,11.625,0,0,1-5.6-1.4,10.425,10.425,0,0,1-3.9-3.9,10.6,10.6,0,0,1-1.4-5.6,11.625,11.625,0,0,1,1.4-5.6,10.425,10.425,0,0,1,3.9-3.9,10.6,10.6,0,0,1,5.6-1.4A9.834,9.834,0,0,1,290.3,52.9ZM289.1,70a9.193,9.193,0,0,0,3.1-3.1,9.364,9.364,0,0,0,1.1-4.5,9.969,9.969,0,0,0-1.1-4.5,7.709,7.709,0,0,0-3.1-3.1,8.667,8.667,0,0,0-8.8,0,9.193,9.193,0,0,0-3.1,3.1,8.358,8.358,0,0,0-1.1,4.5,9.969,9.969,0,0,0,1.1,4.5,8.381,8.381,0,0,0,3.1,3.1,9.35,9.35,0,0,0,8.8,0Z" transform="translate(-58)"/>
    <path class="cls-3" d="M313.5,52.7V53a.918.918,0,0,1-.4.6,1.445,1.445,0,0,1-.7.2,3.445,3.445,0,0,1-.9-.1,3.751,3.751,0,0,0-1-.1,7.845,7.845,0,0,0-3.5.8,6.317,6.317,0,0,0-3.3,5.5V71.8a1.135,1.135,0,0,1-.3.8,1.222,1.222,0,0,1-.9.3,1.032,1.032,0,0,1-1.1-1.1v-19a1.222,1.222,0,0,1,.3-.9,1.135,1.135,0,0,1,.8-.3,1.061,1.061,0,0,1,1.2,1.2v2.4a8.615,8.615,0,0,1,2.9-2.8,7.457,7.457,0,0,1,3.8-1C312.6,51.4,313.5,51.9,313.5,52.7Z" transform="translate(-58)"/>
    <path class="cls-3" d="M331.1,52.8a8.923,8.923,0,0,1,3.5,3.7,11.956,11.956,0,0,1,1.3,5.4,1.032,1.032,0,0,1-1.1,1.1H318.4a9.335,9.335,0,0,0,1.2,4.1,7.1,7.1,0,0,0,2.9,2.8,8.04,8.04,0,0,0,4.1,1,11.766,11.766,0,0,0,3.1-.5,6.916,6.916,0,0,0,2.4-1.4,1.33,1.33,0,0,1,.8-.3,1.445,1.445,0,0,1,.7.2.909.909,0,0,1,.4.8.755.755,0,0,1-.4.7,8.7,8.7,0,0,1-3.3,1.9,10.723,10.723,0,0,1-3.9.7,10.959,10.959,0,0,1-5.5-1.4,9.524,9.524,0,0,1-3.8-3.9,11.625,11.625,0,0,1-1.4-5.6,11.964,11.964,0,0,1,1.3-5.7,9.036,9.036,0,0,1,3.6-3.9,10.113,10.113,0,0,1,5.2-1.4A15.736,15.736,0,0,1,331.1,52.8Zm-10.3,2.9a8.818,8.818,0,0,0-2.5,5.4h15.2a8.9,8.9,0,0,0-2.3-5.4,7.76,7.76,0,0,0-10.4,0Z" transform="translate(-58)"/>
  </g>
  <line class="cls-4" y1="100.5" x2="292.5" y2="100.5"/>
  <text class="cls-5" transform="translate(1.545 168.669)"><tspan class="cls-6">T</tspan><tspan x="24.24" y="0">o the stars!</tspan></text>
</svg>
