<?xml version="1.0" encoding="utf-8"?>
<!-- Generator: Adobe Illustrator 23.0.1, SVG Export Plug-In . SVG Version: 6.00 Build 0)  -->
<svg version="1.1" id="Layer_1" xmlns="http://www.w3.org/2000/svg" xmlns:xlink="http://www.w3.org/1999/xlink" x="0px" y="0px"
	 viewBox="0 0 265.1 82.5" style="enable-background:new 0 0 265.1 82.5;" xml:space="preserve">
<style type="text/css">
	.st0{fill:#23B0D0;}
	.st1{fill:#231F20;}
	.st2{fill:#FFFFFF;}
</style>
<title>DomaSoftware157878</title>
<rect x="0.8" class="st0" width="82.2" height="82.2"/>
<polygon class="st1" points="68.5,45.1 68.5,16.1 15.2,16.1 15.2,45.1 37.8,45.1 37.8,53.1 24.9,53.1 24.6,66 58.8,66 59.1,53.1 
	45.9,53.1 45.9,45.1 "/>
<g>
	<path class="st0" d="M110.1,4c2.3,1.3,4.1,3.1,5.4,5.4s2,4.9,2,7.9c0,2.9-0.7,5.6-2,7.9c-1.3,2.3-3.1,4.1-5.4,5.4
		c-2.3,1.3-5,2-7.9,2h-7c-0.3,0-0.6-0.1-0.8-0.3s-0.3-0.5-0.3-0.8V3.2c0-0.4,0.1-0.7,0.3-0.9c0.2-0.2,0.5-0.3,0.8-0.3h7
		C105.1,2.1,107.7,2.7,110.1,4z M108.8,28.8c2-1.1,3.5-2.7,4.6-4.7c1.1-2,1.7-4.3,1.7-6.8s-0.6-4.8-1.7-6.8c-1.1-2-2.6-3.6-4.6-4.7
		s-4.2-1.7-6.7-1.7h-5.9v26.3h5.9C104.7,30.5,106.9,29.9,108.8,28.8z"/>
	<path class="st0" d="M138.7,12.4c1.7,1,3,2.3,3.9,3.9c1,1.7,1.4,3.5,1.4,5.6c0,2-0.5,3.9-1.4,5.6c-1,1.7-2.3,3-3.9,3.9
		c-1.7,1-3.5,1.4-5.6,1.4c-2.1,0-3.9-0.5-5.6-1.4c-1.7-1-3-2.3-3.9-3.9c-1-1.7-1.4-3.5-1.4-5.6c0-2.1,0.5-3.9,1.4-5.6
		c1-1.7,2.3-3,3.9-3.9c1.7-1,3.5-1.4,5.6-1.4C135.1,11,137,11.5,138.7,12.4z M128.7,14.3c-1.3,0.8-2.3,1.8-3.1,3.2
		c-0.8,1.3-1.1,2.8-1.1,4.5c0,1.6,0.4,3.1,1.1,4.5c0.8,1.3,1.8,2.4,3.1,3.1c1.3,0.8,2.8,1.1,4.4,1.1c1.6,0,3.1-0.4,4.4-1.1
		c1.3-0.8,2.3-1.8,3.1-3.1c0.7-1.3,1.1-2.8,1.1-4.5c0-1.6-0.4-3.1-1.1-4.5c-0.7-1.3-1.8-2.4-3.1-3.2c-1.3-0.8-2.8-1.2-4.4-1.2
		C131.5,13.2,130,13.6,128.7,14.3z"/>
	<path class="st0" d="M176.7,12.1c1.2,0.8,2.2,1.9,2.9,3.3c0.7,1.4,1,3,1,4.8v11.3c0,0.3-0.1,0.6-0.3,0.8c-0.2,0.2-0.5,0.3-0.9,0.3
		c-0.3,0-0.6-0.1-0.8-0.3c-0.2-0.2-0.3-0.5-0.3-0.8V20.1c0-2-0.5-3.7-1.6-4.9c-1.1-1.3-2.4-1.9-4.1-1.9c-1.8,0-3.3,0.6-4.4,1.8
		c-1.1,1.2-1.7,2.8-1.6,4.8v0.3v11.3c0,0.3-0.1,0.6-0.3,0.8c-0.2,0.2-0.5,0.3-0.9,0.3c-0.3,0-0.6-0.1-0.8-0.3s-0.3-0.5-0.3-0.8V20.1
		c0-2-0.5-3.7-1.6-4.9c-1.1-1.3-2.4-1.9-4.1-1.9c-1.8,0-3.3,0.6-4.4,1.7c-1.1,1.1-1.7,2.6-1.7,4.5v12c0,0.3-0.1,0.6-0.3,0.8
		s-0.5,0.3-0.9,0.3c-0.3,0-0.6-0.1-0.8-0.3c-0.2-0.2-0.3-0.5-0.3-0.8V12.4c0-0.4,0.1-0.7,0.3-0.9c0.2-0.2,0.5-0.3,0.8-0.3
		c0.4,0,0.7,0.1,0.9,0.3c0.2,0.2,0.3,0.5,0.3,0.9v1.5c0.7-0.9,1.6-1.7,2.7-2.2c1.1-0.5,2.2-0.8,3.4-0.8c1.5,0,2.9,0.4,4.1,1.1
		c1.2,0.7,2.2,1.8,2.9,3.1c0.7-1.3,1.7-2.3,2.9-3.1c1.3-0.7,2.7-1.1,4.2-1.1C174.1,10.9,175.4,11.3,176.7,12.1z"/>
	<path class="st0" d="M202.5,12.4c1.7,1,3,2.3,3.9,3.9c1,1.7,1.4,3.5,1.4,5.6v9.5c0,0.3-0.1,0.6-0.3,0.8s-0.5,0.3-0.9,0.3
		c-0.3,0-0.6-0.1-0.8-0.3c-0.2-0.2-0.3-0.5-0.3-0.8v-3.1c-0.9,1.4-2,2.5-3.5,3.3c-1.5,0.8-3.2,1.2-5,1.2c-2.1,0-3.9-0.5-5.6-1.4
		c-1.7-1-3-2.3-3.9-3.9c-1-1.7-1.4-3.5-1.4-5.6c0-2.1,0.5-3.9,1.4-5.6c1-1.7,2.3-3,3.9-3.9c1.7-1,3.5-1.4,5.6-1.4
		C199,11,200.9,11.5,202.5,12.4z M201.4,29.5c1.3-0.8,2.3-1.8,3.1-3.1c0.7-1.3,1.1-2.8,1.1-4.5c0-1.6-0.4-3.1-1.1-4.5
		c-0.7-1.3-1.8-2.4-3.1-3.2s-2.8-1.2-4.4-1.2c-1.6,0-3.1,0.4-4.4,1.2s-2.3,1.8-3.1,3.2c-0.8,1.3-1.1,2.8-1.1,4.5
		c0,1.6,0.4,3.1,1.1,4.5c0.8,1.3,1.8,2.4,3.1,3.1c1.3,0.8,2.8,1.1,4.4,1.1C198.6,30.7,200.1,30.3,201.4,29.5z"/>
	<path class="st2" d="M108,43.5c1.6,0.9,2.8,2,3.5,3.3c0.1,0.2,0.2,0.4,0.2,0.6c0,0.2-0.1,0.4-0.2,0.6c-0.1,0.2-0.3,0.3-0.5,0.4
		c-0.1,0.1-0.3,0.1-0.5,0.1c-0.5,0-0.8-0.2-1.1-0.6c-1.5-2.3-3.8-3.4-6.7-3.4c-2.2,0-3.9,0.5-5.1,1.5c-1.2,1-1.8,2.3-1.8,4.1
		c0,1.5,0.6,2.7,1.8,3.7c1.2,1,3.1,1.7,5.6,2.1c3.3,0.5,5.7,1.6,7.2,3c1.5,1.5,2.3,3.4,2.3,5.8c0,1.8-0.4,3.4-1.2,4.7
		c-0.8,1.3-1.9,2.3-3.4,3.1c-1.4,0.7-3.1,1.1-5,1.1c-2.5,0-4.6-0.5-6.4-1.5c-1.8-1-3.1-2.4-4-4.1c-0.1-0.2-0.1-0.3-0.1-0.5
		c0-0.3,0.1-0.6,0.3-0.8c0.2-0.2,0.5-0.3,0.9-0.3c0.5,0,0.9,0.2,1.1,0.7c0.7,1.3,1.8,2.3,3.2,3c1.4,0.7,3.1,1.1,5,1.1
		c2.2,0,4-0.6,5.3-1.7c1.3-1.1,1.9-2.7,1.9-4.8c0-1.8-0.6-3.2-1.9-4.4c-1.3-1.2-3.1-1.9-5.6-2.3c-2.9-0.4-5.2-1.4-6.8-2.8
		c-1.7-1.5-2.5-3.3-2.5-5.4c0-1.5,0.4-2.9,1.2-4c0.8-1.2,1.9-2.1,3.2-2.7c1.4-0.6,3-1,4.8-1C104.6,42.1,106.4,42.6,108,43.5z"/>
	<path class="st2" d="M134.1,52.9c1.7,1,3,2.3,3.9,3.9c1,1.7,1.4,3.5,1.4,5.6c0,2-0.5,3.9-1.4,5.6c-1,1.7-2.3,3-3.9,3.9
		c-1.7,1-3.5,1.4-5.6,1.4c-2.1,0-3.9-0.5-5.6-1.4c-1.7-1-3-2.3-3.9-3.9c-1-1.7-1.4-3.5-1.4-5.6c0-2.1,0.5-3.9,1.4-5.6
		c1-1.7,2.3-3,3.9-3.9c1.7-1,3.5-1.4,5.6-1.4C130.6,51.4,132.4,51.9,134.1,52.9z M124.1,54.8c-1.3,0.8-2.3,1.8-3.1,3.1
		c-0.8,1.3-1.1,2.8-1.1,4.5c0,1.6,0.4,3.1,1.1,4.5c0.8,1.3,1.8,2.4,3.1,3.1s2.8,1.1,4.4,1.1c1.6,0,3.1-0.4,4.4-1.1
		c1.3-0.8,2.3-1.8,3.1-3.1c0.7-1.3,1.1-2.8,1.1-4.5c0-1.6-0.4-3.1-1.1-4.5c-0.7-1.3-1.8-2.4-3.1-3.1c-1.3-0.8-2.8-1.2-4.4-1.2
		C126.9,53.6,125.5,54,124.1,54.8z"/>
	<path class="st2" d="M150.8,46.5c-0.9,1.3-1.3,3-1.3,5.1v0.8h5.2c0.3,0,0.6,0.1,0.8,0.3c0.2,0.2,0.3,0.4,0.3,0.8s-0.1,0.6-0.3,0.8
		c-0.2,0.2-0.4,0.3-0.8,0.3h-5.2v17.3c0,0.3-0.1,0.6-0.3,0.8c-0.2,0.2-0.5,0.3-0.9,0.3c-0.3,0-0.6-0.1-0.8-0.3
		c-0.2-0.2-0.3-0.5-0.3-0.8V54.6H144c-0.3,0-0.6-0.1-0.8-0.3c-0.2-0.2-0.3-0.4-0.3-0.8s0.1-0.6,0.3-0.8c0.2-0.2,0.4-0.3,0.8-0.3h3.1
		v-0.8c0-2.8,0.7-5,2-6.7c1.3-1.6,3.3-2.5,5.9-2.5c0.3,0,0.6,0.1,0.8,0.3c0.2,0.2,0.3,0.5,0.3,0.8c0,0.3-0.1,0.6-0.3,0.8
		c-0.2,0.2-0.5,0.3-0.8,0.3C153,44.6,151.6,45.3,150.8,46.5z"/>
	<path class="st2" d="M170.2,71c0.2,0.2,0.3,0.5,0.3,0.9c0,0.3-0.1,0.6-0.3,0.8c-0.2,0.2-0.5,0.3-0.9,0.3h-0.9c-1.4,0-2.7-0.3-3.8-1
		c-1.1-0.7-2-1.5-2.6-2.7c-0.6-1.1-0.9-2.4-0.9-3.9v-11h-3.1c-0.3,0-0.6-0.1-0.8-0.3c-0.2-0.2-0.3-0.4-0.3-0.8s0.1-0.6,0.3-0.8
		c0.2-0.2,0.4-0.3,0.8-0.3h3.1v-6.4c0-0.4,0.1-0.7,0.3-0.9s0.5-0.3,0.8-0.3c0.4,0,0.7,0.1,0.9,0.3c0.2,0.2,0.3,0.5,0.3,0.9v6.4h5.2
		c0.3,0,0.6,0.1,0.8,0.3c0.2,0.2,0.3,0.4,0.3,0.8s-0.1,0.6-0.3,0.8c-0.2,0.2-0.4,0.3-0.8,0.3h-5.2v11c0,1.5,0.5,2.7,1.4,3.7
		c0.9,1,2.2,1.4,3.6,1.4h0.9C169.6,70.7,169.9,70.8,170.2,71z"/>
	<path class="st2" d="M200.1,52c0.2,0.2,0.3,0.5,0.3,0.8c0,0.2,0,0.4-0.1,0.6l-6.3,19c-0.1,0.2-0.2,0.4-0.4,0.5
		c-0.2,0.1-0.4,0.2-0.7,0.2c-0.3,0-0.5-0.1-0.7-0.2c-0.2-0.1-0.3-0.3-0.4-0.5l-5.3-16.6l-5.2,16.6c-0.2,0.5-0.5,0.7-1.1,0.7
		c-0.3,0-0.5-0.1-0.7-0.2c-0.2-0.1-0.3-0.3-0.4-0.5l-6.3-19c-0.1-0.3-0.1-0.5-0.1-0.6c0-0.7,0.3-1.1,1-1.1c0.2,0,0.5,0.1,0.6,0.2
		c0.2,0.1,0.3,0.3,0.5,0.5l5.5,16.7l5.1-16.4c0.1-0.3,0.2-0.5,0.4-0.7c0.2-0.2,0.5-0.3,0.7-0.3c0.6,0,1,0.3,1.2,0.9l5.1,16.1
		l5.4-16.4c0.2-0.5,0.6-0.7,1.1-0.7C199.7,51.7,199.9,51.8,200.1,52z"/>
	<path class="st2" d="M219.3,52.9c1.7,1,3,2.3,3.9,3.9c1,1.7,1.4,3.5,1.4,5.6v9.5c0,0.3-0.1,0.6-0.3,0.8c-0.2,0.2-0.5,0.3-0.9,0.3
		c-0.3,0-0.6-0.1-0.8-0.3c-0.2-0.2-0.3-0.5-0.3-0.8v-3.1c-0.9,1.4-2,2.5-3.5,3.3c-1.5,0.8-3.2,1.2-5,1.2c-2.1,0-3.9-0.5-5.6-1.4
		c-1.7-1-3-2.3-3.9-3.9c-1-1.7-1.4-3.5-1.4-5.6c0-2.1,0.5-3.9,1.4-5.6c1-1.7,2.3-3,3.9-3.9c1.7-1,3.5-1.4,5.6-1.4
		C215.7,51.4,217.6,51.9,219.3,52.9z M218.1,70c1.3-0.8,2.3-1.8,3.1-3.1c0.7-1.3,1.1-2.8,1.1-4.5c0-1.6-0.4-3.1-1.1-4.5
		c-0.7-1.3-1.8-2.4-3.1-3.1c-1.3-0.8-2.8-1.2-4.4-1.2c-1.6,0-3.1,0.4-4.4,1.2c-1.3,0.8-2.3,1.8-3.1,3.1c-0.8,1.3-1.1,2.8-1.1,4.5
		c0,1.6,0.4,3.1,1.1,4.5c0.8,1.3,1.8,2.4,3.1,3.1s2.8,1.1,4.4,1.1C215.3,71.1,216.8,70.7,218.1,70z"/>
	<path class="st2" d="M242.5,52.7c0,0.1,0,0.2,0,0.3c-0.1,0.3-0.2,0.5-0.4,0.6c-0.2,0.1-0.4,0.2-0.7,0.2c-0.2,0-0.5,0-0.9-0.1
		c-0.4-0.1-0.7-0.1-1-0.1c-1.3,0-2.5,0.3-3.5,0.8c-1,0.5-1.8,1.3-2.4,2.3c-0.6,1-0.9,2-0.9,3.2v11.9c0,0.3-0.1,0.6-0.3,0.8
		c-0.2,0.2-0.5,0.3-0.9,0.3c-0.3,0-0.6-0.1-0.8-0.3c-0.2-0.2-0.3-0.5-0.3-0.8V52.8c0-0.4,0.1-0.7,0.3-0.9c0.2-0.2,0.5-0.3,0.8-0.3
		c0.4,0,0.7,0.1,0.9,0.3c0.2,0.2,0.3,0.5,0.3,0.9v2.4c0.8-1.2,1.7-2.1,2.9-2.8c1.2-0.7,2.5-1,3.8-1
		C241.6,51.4,242.5,51.9,242.5,52.7z"/>
	<path class="st2" d="M260.1,52.8c1.5,0.9,2.7,2.1,3.5,3.7c0.8,1.6,1.3,3.4,1.3,5.4c0,0.3-0.1,0.6-0.3,0.8c-0.2,0.2-0.5,0.3-0.8,0.3
		h-16.4c0.1,1.5,0.5,2.9,1.2,4.1c0.7,1.2,1.7,2.2,2.9,2.8c1.2,0.7,2.6,1,4.1,1c1,0,2-0.2,3.1-0.5c1-0.4,1.8-0.8,2.4-1.4
		c0.3-0.2,0.5-0.3,0.8-0.3c0.3,0,0.5,0.1,0.7,0.2c0.3,0.2,0.4,0.5,0.4,0.8c0,0.3-0.1,0.5-0.4,0.7c-0.8,0.8-1.9,1.4-3.3,1.9
		c-1.3,0.5-2.6,0.7-3.9,0.7c-2.1,0-3.9-0.5-5.5-1.4c-1.6-0.9-2.9-2.2-3.8-3.9c-0.9-1.7-1.4-3.5-1.4-5.6c0-2.1,0.4-4,1.3-5.7
		c0.8-1.7,2-2.9,3.6-3.9c1.5-0.9,3.3-1.4,5.2-1.4C256.9,51.5,258.6,51.9,260.1,52.8z M249.8,55.7c-1.4,1.4-2.2,3.1-2.5,5.4h15.2
		c-0.2-2.2-1-4-2.3-5.4c-1.4-1.4-3.1-2-5.2-2C252.9,53.7,251.2,54.3,249.8,55.7z"/>
</g>
</svg>
