<?xml version="1.0" encoding="utf-8"?>
<!-- Generator: Adobe Illustrator 23.0.1, SVG Export Plug-In . SVG Version: 6.00 Build 0)  -->
<svg version="1.1" id="Layer_1" xmlns="http://www.w3.org/2000/svg" xmlns:xlink="http://www.w3.org/1999/xlink" x="0px" y="0px"
	 viewBox="0 0 268.3 83.5" style="enable-background:new 0 0 268.3 83.5;" xml:space="preserve">
<style type="text/css">
	.st0{fill:#FFFFFF;}
</style>
<title>DomaSoftware</title>
<rect x="0.2" y="-0.9" width="83.1" height="83.1"/>
<polygon class="st0" points="68.8,44.8 68.8,15.5 14.8,15.5 14.8,44.8 37.7,44.8 37.7,52.9 24.6,52.9 24.3,66 58.9,66 59.3,52.9 
	45.9,52.9 45.9,44.8 "/>
<g>
	<path class="st0" d="M110.8,3.2c2.3,1.3,4.2,3.1,5.5,5.5c1.3,2.3,2,5,2,8c0,3-0.7,5.6-2,8c-1.3,2.3-3.2,4.2-5.5,5.5
		c-2.3,1.3-5,2-8,2h-7.1c-0.3,0-0.6-0.1-0.9-0.3c-0.2-0.2-0.3-0.5-0.3-0.9V2.4c0-0.4,0.1-0.7,0.3-0.9c0.2-0.2,0.5-0.3,0.9-0.3h7.1
		C105.8,1.2,108.4,1.9,110.8,3.2z M109.5,28.3c2-1.1,3.5-2.7,4.7-4.8c1.1-2,1.7-4.3,1.7-6.8s-0.6-4.8-1.7-6.8
		c-1.1-2-2.7-3.6-4.7-4.8c-2-1.1-4.2-1.7-6.8-1.7h-5.9V30h5.9C105.3,30,107.6,29.4,109.5,28.3z"/>
	<path class="st0" d="M139.7,11.7c1.7,1,3,2.3,4,4c1,1.7,1.4,3.6,1.4,5.7c0,2.1-0.5,3.9-1.4,5.6c-1,1.7-2.3,3-4,4
		c-1.7,1-3.6,1.4-5.6,1.4c-2.1,0-4-0.5-5.7-1.4c-1.7-1-3-2.3-4-4c-1-1.7-1.4-3.6-1.4-5.6c0-2.1,0.5-4,1.4-5.7c1-1.7,2.3-3,4-4
		c1.7-1,3.6-1.4,5.7-1.4C136.1,10.3,138,10.7,139.7,11.7z M129.7,13.6c-1.3,0.8-2.4,1.8-3.1,3.2c-0.8,1.3-1.1,2.9-1.1,4.5
		c0,1.7,0.4,3.2,1.1,4.5c0.8,1.3,1.8,2.4,3.1,3.2c1.3,0.8,2.8,1.1,4.4,1.1c1.6,0,3.1-0.4,4.4-1.1c1.3-0.8,2.4-1.8,3.1-3.2
		c0.8-1.3,1.1-2.9,1.1-4.5c0-1.7-0.4-3.2-1.1-4.5c-0.8-1.3-1.8-2.4-3.1-3.2c-1.3-0.8-2.8-1.2-4.4-1.2
		C132.5,12.5,131,12.9,129.7,13.6z"/>
	<path class="st0" d="M178.2,11.4c1.2,0.8,2.2,1.9,2.9,3.3c0.7,1.4,1,3,1,4.8V31c0,0.3-0.1,0.6-0.3,0.9c-0.2,0.2-0.5,0.3-0.9,0.3
		c-0.3,0-0.6-0.1-0.9-0.3c-0.2-0.2-0.3-0.5-0.3-0.9V19.5c0-2-0.5-3.7-1.6-5c-1.1-1.3-2.5-1.9-4.2-1.9c-1.8,0-3.3,0.6-4.5,1.8
		c-1.1,1.2-1.7,2.8-1.6,4.8v0.3V31c0,0.3-0.1,0.6-0.3,0.9c-0.2,0.2-0.5,0.3-0.9,0.3c-0.3,0-0.6-0.1-0.9-0.3
		c-0.2-0.2-0.3-0.5-0.3-0.9V19.5c0-2-0.5-3.7-1.6-5c-1.1-1.3-2.5-1.9-4.2-1.9c-1.8,0-3.3,0.6-4.5,1.7c-1.2,1.2-1.7,2.7-1.7,4.5V31
		c0,0.3-0.1,0.6-0.3,0.9c-0.2,0.2-0.5,0.3-0.9,0.3c-0.3,0-0.6-0.1-0.9-0.3c-0.2-0.2-0.3-0.5-0.3-0.9V11.7c0-0.4,0.1-0.7,0.3-0.9
		s0.5-0.3,0.9-0.3c0.4,0,0.7,0.1,0.9,0.3c0.2,0.2,0.3,0.5,0.3,0.9v1.5c0.7-1,1.6-1.7,2.7-2.2c1.1-0.5,2.2-0.8,3.5-0.8
		c1.5,0,2.9,0.4,4.1,1.1c1.2,0.8,2.2,1.8,2.9,3.1c0.7-1.3,1.7-2.4,3-3.1c1.3-0.8,2.7-1.1,4.3-1.1S176.9,10.6,178.2,11.4z"/>
	<path class="st0" d="M204.3,11.7c1.7,1,3,2.3,4,4c1,1.7,1.4,3.6,1.4,5.7V31c0,0.3-0.1,0.6-0.3,0.9c-0.2,0.2-0.5,0.3-0.9,0.3
		c-0.3,0-0.6-0.1-0.9-0.3c-0.2-0.2-0.3-0.5-0.3-0.9v-3.1c-0.9,1.4-2.1,2.5-3.6,3.3c-1.5,0.8-3.2,1.2-5.1,1.2c-2.1,0-4-0.5-5.7-1.4
		c-1.7-1-3-2.3-4-4c-1-1.7-1.4-3.6-1.4-5.6c0-2.1,0.5-4,1.4-5.7c1-1.7,2.3-3,4-4c1.7-1,3.6-1.4,5.7-1.4
		C200.8,10.3,202.6,10.7,204.3,11.7z M203.1,29c1.3-0.8,2.4-1.8,3.1-3.2c0.8-1.3,1.1-2.9,1.1-4.5c0-1.7-0.4-3.2-1.1-4.5
		s-1.8-2.4-3.1-3.2c-1.3-0.8-2.8-1.2-4.4-1.2c-1.6,0-3.1,0.4-4.4,1.2c-1.3,0.8-2.4,1.8-3.1,3.2s-1.1,2.9-1.1,4.5
		c0,1.7,0.4,3.2,1.1,4.5c0.8,1.3,1.8,2.4,3.1,3.2c1.3,0.8,2.8,1.1,4.4,1.1C200.3,30.2,201.8,29.8,203.1,29z"/>
	<path d="M108.7,43.1c1.6,0.9,2.8,2,3.6,3.3c0.1,0.2,0.2,0.4,0.2,0.6c0,0.2-0.1,0.4-0.2,0.6c-0.1,0.2-0.3,0.3-0.5,0.4
		c-0.1,0.1-0.3,0.1-0.5,0.1c-0.5,0-0.8-0.2-1.1-0.6c-1.6-2.3-3.8-3.4-6.8-3.4c-2.2,0-3.9,0.5-5.1,1.5c-1.2,1-1.8,2.4-1.8,4.1
		c0,1.5,0.6,2.7,1.8,3.7c1.2,1,3.1,1.7,5.6,2.1c3.3,0.6,5.8,1.6,7.3,3.1c1.5,1.5,2.3,3.5,2.3,5.9c0,1.8-0.4,3.4-1.2,4.8
		c-0.8,1.3-1.9,2.4-3.4,3.1c-1.5,0.7-3.2,1.1-5.1,1.1c-2.5,0-4.6-0.5-6.5-1.5c-1.8-1-3.2-2.4-4.1-4.2c-0.1-0.2-0.1-0.3-0.1-0.5
		c0-0.3,0.1-0.6,0.3-0.8c0.2-0.2,0.5-0.3,0.9-0.3c0.5,0,0.9,0.3,1.1,0.8c0.7,1.3,1.8,2.3,3.2,3.1c1.4,0.7,3.1,1.1,5.1,1.1
		c2.3,0,4.1-0.6,5.4-1.7c1.3-1.1,2-2.7,2-4.8c0-1.8-0.6-3.3-1.9-4.5c-1.3-1.2-3.2-1.9-5.7-2.3c-2.9-0.4-5.2-1.4-6.9-2.9
		c-1.7-1.5-2.5-3.3-2.5-5.4c0-1.5,0.4-2.9,1.2-4.1c0.8-1.2,1.9-2.1,3.3-2.7c1.4-0.6,3-1,4.9-1C105.3,41.7,107.1,42.2,108.7,43.1z"/>
	<path d="M135.1,52.6c1.7,1,3,2.3,4,4c1,1.7,1.4,3.6,1.4,5.7c0,2.1-0.5,3.9-1.4,5.6c-1,1.7-2.3,3-4,4c-1.7,1-3.6,1.4-5.6,1.4
		c-2.1,0-4-0.5-5.7-1.4c-1.7-1-3-2.3-4-4c-1-1.7-1.4-3.6-1.4-5.6c0-2.1,0.5-4,1.4-5.7c1-1.7,2.3-3,4-4c1.7-1,3.6-1.4,5.7-1.4
		C131.5,51.2,133.4,51.6,135.1,52.6z M125,54.6c-1.3,0.8-2.4,1.8-3.1,3.2c-0.8,1.3-1.1,2.9-1.1,4.5c0,1.7,0.4,3.2,1.1,4.5
		c0.8,1.3,1.8,2.4,3.1,3.2c1.3,0.8,2.8,1.1,4.4,1.1c1.6,0,3.1-0.4,4.4-1.1c1.3-0.8,2.4-1.8,3.1-3.2c0.8-1.3,1.1-2.9,1.1-4.5
		c0-1.7-0.4-3.2-1.1-4.5c-0.8-1.3-1.8-2.4-3.1-3.2c-1.3-0.8-2.8-1.2-4.4-1.2C127.8,53.4,126.3,53.8,125,54.6z"/>
	<path d="M151.9,46.2c-0.9,1.3-1.3,3-1.3,5.2v0.8h5.2c0.3,0,0.6,0.1,0.8,0.3c0.2,0.2,0.3,0.5,0.3,0.8c0,0.3-0.1,0.6-0.3,0.8
		c-0.2,0.2-0.5,0.3-0.8,0.3h-5.2v17.5c0,0.3-0.1,0.6-0.3,0.9c-0.2,0.2-0.5,0.3-0.9,0.3c-0.3,0-0.6-0.1-0.9-0.3
		c-0.2-0.2-0.3-0.5-0.3-0.9V54.3h-3.1c-0.3,0-0.6-0.1-0.8-0.3c-0.2-0.2-0.3-0.5-0.3-0.8c0-0.3,0.1-0.6,0.3-0.8
		c0.2-0.2,0.5-0.3,0.8-0.3h3.1v-0.8c0-2.8,0.7-5.1,2-6.7c1.3-1.7,3.3-2.5,5.9-2.5c0.3,0,0.6,0.1,0.9,0.3c0.2,0.2,0.3,0.5,0.3,0.8
		c0,0.3-0.1,0.6-0.3,0.8c-0.2,0.2-0.5,0.3-0.9,0.3C154.2,44.3,152.8,44.9,151.9,46.2z"/>
	<path d="M171.6,71c0.2,0.2,0.3,0.5,0.3,0.9c0,0.3-0.1,0.6-0.3,0.9c-0.2,0.2-0.5,0.3-0.9,0.3h-0.9c-1.5,0-2.7-0.3-3.9-1
		c-1.1-0.7-2-1.6-2.7-2.7c-0.6-1.1-0.9-2.4-0.9-3.9V54.3h-3.1c-0.3,0-0.6-0.1-0.8-0.3c-0.2-0.2-0.3-0.5-0.3-0.8
		c0-0.3,0.1-0.6,0.3-0.8c0.2-0.2,0.5-0.3,0.8-0.3h3.1v-6.5c0-0.4,0.1-0.7,0.3-0.9c0.2-0.2,0.5-0.3,0.9-0.3c0.4,0,0.7,0.1,0.9,0.3
		c0.2,0.2,0.3,0.5,0.3,0.9v6.5h5.2c0.3,0,0.6,0.1,0.8,0.3c0.2,0.2,0.3,0.5,0.3,0.8c0,0.3-0.1,0.6-0.3,0.8c-0.2,0.2-0.5,0.3-0.8,0.3
		h-5.2v11.1c0,1.5,0.5,2.8,1.4,3.7c0.9,1,2.2,1.4,3.7,1.4h0.9C171,70.6,171.3,70.8,171.6,71z"/>
	<path d="M201.9,51.7c0.2,0.2,0.3,0.5,0.3,0.8c0,0.2,0,0.4-0.1,0.6l-6.4,19.2c-0.1,0.2-0.2,0.4-0.4,0.6c-0.2,0.1-0.4,0.2-0.7,0.2
		c-0.3,0-0.5-0.1-0.7-0.2c-0.2-0.1-0.3-0.3-0.4-0.6L188,55.6l-5.2,16.7c-0.2,0.5-0.6,0.8-1.1,0.8c-0.3,0-0.5-0.1-0.7-0.2
		c-0.2-0.1-0.3-0.3-0.4-0.6l-6.4-19.2c-0.1-0.3-0.1-0.5-0.1-0.6c0-0.7,0.3-1.1,1-1.1c0.2,0,0.5,0.1,0.7,0.2c0.2,0.1,0.3,0.3,0.5,0.5
		l5.6,16.9l5.1-16.6c0.1-0.3,0.2-0.5,0.4-0.7c0.2-0.2,0.5-0.3,0.8-0.3c0.6,0,1,0.3,1.2,1l5.2,16.3l5.5-16.5c0.2-0.5,0.6-0.7,1.1-0.7
		C201.4,51.4,201.7,51.5,201.9,51.7z"/>
	<path d="M221.2,52.6c1.7,1,3,2.3,4,4c1,1.7,1.4,3.6,1.4,5.7v9.6c0,0.3-0.1,0.6-0.3,0.9c-0.2,0.2-0.5,0.3-0.9,0.3
		c-0.3,0-0.6-0.1-0.9-0.3c-0.2-0.2-0.3-0.5-0.3-0.9v-3.1c-0.9,1.4-2.1,2.5-3.6,3.3c-1.5,0.8-3.2,1.2-5.1,1.2c-2.1,0-4-0.5-5.7-1.4
		c-1.7-1-3-2.3-4-4c-1-1.7-1.4-3.6-1.4-5.6c0-2.1,0.5-4,1.4-5.7c1-1.7,2.3-3,4-4c1.7-1,3.6-1.4,5.7-1.4
		C217.7,51.2,219.5,51.6,221.2,52.6z M220,69.9c1.3-0.8,2.4-1.8,3.1-3.2c0.8-1.3,1.1-2.9,1.1-4.5c0-1.7-0.4-3.2-1.1-4.5
		c-0.8-1.3-1.8-2.4-3.1-3.2c-1.3-0.8-2.8-1.2-4.4-1.2c-1.6,0-3.1,0.4-4.4,1.2c-1.3,0.8-2.4,1.8-3.1,3.2c-0.8,1.3-1.1,2.9-1.1,4.5
		c0,1.7,0.4,3.2,1.1,4.5c0.8,1.3,1.8,2.4,3.1,3.2c1.3,0.8,2.8,1.1,4.4,1.1C217.2,71.1,218.7,70.7,220,69.9z"/>
	<path d="M244.8,52.5c0,0.1,0,0.2,0,0.3c-0.1,0.3-0.2,0.5-0.4,0.6c-0.2,0.1-0.4,0.2-0.7,0.2c-0.2,0-0.5,0-0.9-0.1
		c-0.4-0.1-0.7-0.1-1-0.1c-1.3,0-2.5,0.3-3.5,0.8c-1,0.6-1.8,1.3-2.4,2.3c-0.6,1-0.9,2.1-0.9,3.3v12c0,0.3-0.1,0.6-0.3,0.9
		c-0.2,0.2-0.5,0.3-0.9,0.3c-0.3,0-0.6-0.1-0.9-0.3c-0.2-0.2-0.3-0.5-0.3-0.9V52.6c0-0.4,0.1-0.7,0.3-0.9s0.5-0.3,0.9-0.3
		c0.4,0,0.7,0.1,0.9,0.3c0.2,0.2,0.3,0.5,0.3,0.9V55c0.8-1.2,1.7-2.2,2.9-2.9c1.2-0.7,2.5-1,3.9-1C243.8,51.2,244.8,51.6,244.8,52.5
		z"/>
	<path d="M262.5,52.6c1.5,0.9,2.7,2.2,3.5,3.8c0.8,1.6,1.3,3.4,1.3,5.5c0,0.3-0.1,0.6-0.3,0.8s-0.5,0.3-0.8,0.3h-16.6
		c0.1,1.6,0.5,2.9,1.2,4.2c0.7,1.2,1.7,2.2,3,2.9c1.2,0.7,2.6,1,4.2,1c1,0,2.1-0.2,3.1-0.5c1-0.4,1.9-0.8,2.5-1.4
		c0.3-0.2,0.5-0.3,0.8-0.3c0.3,0,0.5,0.1,0.7,0.2c0.3,0.2,0.4,0.5,0.4,0.8c0,0.3-0.1,0.5-0.4,0.8c-0.8,0.8-1.9,1.4-3.3,1.9
		s-2.7,0.8-3.9,0.8c-2.1,0-3.9-0.5-5.6-1.4c-1.6-0.9-2.9-2.2-3.8-3.9c-0.9-1.7-1.4-3.6-1.4-5.7c0-2.1,0.4-4,1.3-5.7
		c0.9-1.7,2.1-3,3.6-3.9c1.5-0.9,3.3-1.4,5.3-1.4C259.3,51.2,261,51.7,262.5,52.6z M252.1,55.5c-1.4,1.4-2.3,3.2-2.5,5.4H265
		c-0.2-2.2-1-4.1-2.4-5.4c-1.4-1.4-3.2-2.1-5.3-2.1C255.3,53.4,253.5,54.1,252.1,55.5z"/>
</g>
</svg>
