<svg id="Layer_1" data-name="Layer 1" xmlns="http://www.w3.org/2000/svg" viewBox="0 0 264.06 82.188">
  <defs>
    <style>
      .cls-1 {
        fill: #23b0d0;
      }

      .cls-2 {
        fill: #231f20;
      }
    </style>
  </defs>
  <title>DomaSoftware23B0D0</title>
  <rect class="cls-1" width="82.188" height="82.188"/>
  <polygon class="cls-2" points="67.785 45.122 67.785 16.143 14.403 16.143 14.403 45.122 37.015 45.122 37.015 53.118 24.137 53.118 23.804 66.046 58.052 66.046 58.385 53.118 45.173 53.118 45.173 45.122 67.785 45.122"/>
  <g>
    <path class="cls-1" d="M110.055,4.014a14.019,14.019,0,0,1,5.44,5.421,15.753,15.753,0,0,1,1.958,7.887,15.859,15.859,0,0,1-1.958,7.907,13.976,13.976,0,0,1-5.44,5.441,15.861,15.861,0,0,1-7.907,1.957H95.1a1.139,1.139,0,0,1-1.174-1.174V3.231a1.125,1.125,0,0,1,.333-.861,1.181,1.181,0,0,1,.841-.314h7.046A15.861,15.861,0,0,1,110.055,4.014Zm-1.213,24.8a12.113,12.113,0,0,0,4.6-4.717,13.791,13.791,0,0,0,1.663-6.772,13.676,13.676,0,0,0-1.663-6.752,12.161,12.161,0,0,0-4.6-4.7,13.1,13.1,0,0,0-6.694-1.7H96.276V30.513h5.872A13.108,13.108,0,0,0,108.842,28.811Z" transform="translate(-0.761)"/>
    <path class="cls-1" d="M138.667,12.41a10.365,10.365,0,0,1,3.934,3.934,11.082,11.082,0,0,1,1.43,5.6A11,11,0,0,1,142.6,27.5a10.351,10.351,0,0,1-3.934,3.934,11.6,11.6,0,0,1-11.155,0,10.351,10.351,0,0,1-3.934-3.934,11.01,11.01,0,0,1-1.429-5.558,11.091,11.091,0,0,1,1.429-5.6,10.365,10.365,0,0,1,3.934-3.934,11.6,11.6,0,0,1,11.155,0Zm-9.942,1.918a8.433,8.433,0,0,0-3.092,3.151,8.864,8.864,0,0,0-1.135,4.462,8.864,8.864,0,0,0,1.135,4.462,8.288,8.288,0,0,0,3.092,3.132,9.034,9.034,0,0,0,8.768,0,8.138,8.138,0,0,0,3.072-3.132,8.986,8.986,0,0,0,1.116-4.462,8.986,8.986,0,0,0-1.116-4.462,8.279,8.279,0,0,0-3.072-3.151,8.9,8.9,0,0,0-8.768,0Z" transform="translate(-0.761)"/>
    <path class="cls-1" d="M176.674,12.116a7.852,7.852,0,0,1,2.858,3.269,10.749,10.749,0,0,1,1.018,4.756V31.453a1.184,1.184,0,0,1-.313.841,1.126,1.126,0,0,1-.862.333,1.139,1.139,0,0,1-1.175-1.174V20.141a7.434,7.434,0,0,0-1.6-4.933,5.121,5.121,0,0,0-4.11-1.917,5.771,5.771,0,0,0-4.423,1.8,6.446,6.446,0,0,0-1.6,4.776V31.453a1.184,1.184,0,0,1-.312.841,1.185,1.185,0,0,1-2.037-.841V20.141a7.434,7.434,0,0,0-1.6-4.933,5.122,5.122,0,0,0-4.11-1.917,5.9,5.9,0,0,0-6.146,6.184V31.453a1.176,1.176,0,0,1-.313.841,1.125,1.125,0,0,1-.861.333,1.139,1.139,0,0,1-1.174-1.174V12.391a1.126,1.126,0,0,1,.333-.862,1.176,1.176,0,0,1,.841-.313,1.083,1.083,0,0,1,1.174,1.175v1.526a7.59,7.59,0,0,1,2.7-2.192,7.744,7.744,0,0,1,3.444-.783,7.58,7.58,0,0,1,4.071,1.115,8.017,8.017,0,0,1,2.856,3.073,7.849,7.849,0,0,1,2.936-3.073,8.133,8.133,0,0,1,4.228-1.115A7.623,7.623,0,0,1,176.674,12.116Z" transform="translate(-0.761)"/>
    <path class="cls-1" d="M202.547,12.41a10.365,10.365,0,0,1,3.934,3.934,11.091,11.091,0,0,1,1.429,5.6v9.512a1.176,1.176,0,0,1-.313.841,1.185,1.185,0,0,1-2.036-.841V28.4a9.1,9.1,0,0,1-3.542,3.269,10.554,10.554,0,0,1-5.03,1.194,11.089,11.089,0,0,1-5.6-1.429,10.354,10.354,0,0,1-3.935-3.934,11.03,11.03,0,0,1-1.428-5.558,11.111,11.111,0,0,1,1.428-5.6,10.368,10.368,0,0,1,3.935-3.934,11.6,11.6,0,0,1,11.155,0Zm-1.174,17.125a8.155,8.155,0,0,0,3.073-3.132,8.985,8.985,0,0,0,1.115-4.462,8.985,8.985,0,0,0-1.115-4.462,8.3,8.3,0,0,0-3.073-3.151,8.6,8.6,0,0,0-11.86,3.151,8.864,8.864,0,0,0-1.136,4.462,8.864,8.864,0,0,0,1.136,4.462,8.281,8.281,0,0,0,3.092,3.132,9.034,9.034,0,0,0,8.768,0Z" transform="translate(-0.761)"/>
    <path d="M107.98,43.482A9.39,9.39,0,0,1,111.5,46.77a1.252,1.252,0,0,1,.156.627.973.973,0,0,1-.175.567,1.272,1.272,0,0,1-.49.412,1.094,1.094,0,0,1-.469.077,1.246,1.246,0,0,1-1.1-.586,7.584,7.584,0,0,0-6.693-3.406,7.863,7.863,0,0,0-5.068,1.468,4.961,4.961,0,0,0-1.821,4.09,4.591,4.591,0,0,0,1.8,3.68,11.788,11.788,0,0,0,5.558,2.114q4.932.822,7.2,3.033a7.752,7.752,0,0,1,2.271,5.812,8.99,8.99,0,0,1-1.194,4.7,7.816,7.816,0,0,1-3.367,3.053,11.358,11.358,0,0,1-5.029,1.056,12.887,12.887,0,0,1-6.381-1.507,9.672,9.672,0,0,1-4.031-4.128,1.054,1.054,0,0,1,.215-1.254,1.233,1.233,0,0,1,.88-.312,1.182,1.182,0,0,1,1.136.743,7.214,7.214,0,0,0,3.151,3.033,10.865,10.865,0,0,0,5.03,1.077,7.814,7.814,0,0,0,5.3-1.683,5.984,5.984,0,0,0,1.938-4.776,5.722,5.722,0,0,0-1.9-4.4,10.187,10.187,0,0,0-5.617-2.25,12.775,12.775,0,0,1-6.831-2.838A6.94,6.94,0,0,1,93.5,49.785a7.085,7.085,0,0,1,1.156-4.012,7.563,7.563,0,0,1,3.248-2.7,11.5,11.5,0,0,1,4.834-.958A10.359,10.359,0,0,1,107.98,43.482Z" transform="translate(-0.761)"/>
    <path d="M134.088,52.857a10.361,10.361,0,0,1,3.934,3.935,11.606,11.606,0,0,1,0,11.155,10.349,10.349,0,0,1-3.934,3.933,11.6,11.6,0,0,1-11.155,0A10.335,10.335,0,0,1,119,67.947a11.6,11.6,0,0,1,0-11.155,10.347,10.347,0,0,1,3.934-3.935,11.606,11.606,0,0,1,11.155,0Zm-9.942,1.919a8.415,8.415,0,0,0-3.092,3.15,9.34,9.34,0,0,0,0,8.925,8.285,8.285,0,0,0,3.092,3.131,9.034,9.034,0,0,0,8.768,0,8.152,8.152,0,0,0,3.073-3.131,9.488,9.488,0,0,0,0-8.925,8.279,8.279,0,0,0-3.073-3.15,8.891,8.891,0,0,0-8.768,0Z" transform="translate(-0.761)"/>
    <path d="M150.762,46.516a8.954,8.954,0,0,0-1.292,5.109v.822h5.167a1.057,1.057,0,1,1,0,2.114H149.47V71.9a1.14,1.14,0,0,1-.332.843,1.2,1.2,0,0,1-.881.332,1.136,1.136,0,0,1-1.174-1.175V54.561H144.03a1.057,1.057,0,1,1,0-2.114h3.053v-.822a10.412,10.412,0,0,1,1.957-6.655,7.041,7.041,0,0,1,5.871-2.466,1.232,1.232,0,0,1,.842.293,1.042,1.042,0,0,1,0,1.527,1.228,1.228,0,0,1-.842.294A4.659,4.659,0,0,0,150.762,46.516Z" transform="translate(-0.761)"/>
    <path d="M170.157,71.019a1.194,1.194,0,0,1,.332.88,1.144,1.144,0,0,1-.332.843,1.2,1.2,0,0,1-.881.332h-.9a7.491,7.491,0,0,1-3.835-.978,6.91,6.91,0,0,1-2.623-2.681,7.852,7.852,0,0,1-.939-3.856v-11h-3.053a1.058,1.058,0,1,1,0-2.114h3.053V46.066a1.191,1.191,0,0,1,.332-.881,1.139,1.139,0,0,1,.842-.332,1.142,1.142,0,0,1,1.213,1.213v6.381h5.167a1.057,1.057,0,1,1,0,2.114h-5.167v11a5.041,5.041,0,0,0,1.41,3.7,4.885,4.885,0,0,0,3.64,1.428h.861A1.191,1.191,0,0,1,170.157,71.019Z" transform="translate(-0.761)"/>
    <path d="M200.12,51.977a1.148,1.148,0,0,1,.274.783,1.7,1.7,0,0,1-.117.586l-6.3,18.984a1.026,1.026,0,0,1-.412.548,1.271,1.271,0,0,1-.724.2,1.3,1.3,0,0,1-.7-.2.833.833,0,0,1-.391-.548L186.42,55.774,181.253,72.33a1.064,1.064,0,0,1-1.095.744,1.2,1.2,0,0,1-.686-.2,1.024,1.024,0,0,1-.411-.548L172.72,53.346a4.859,4.859,0,0,1-.079-.625q0-1.057.979-1.058a1.223,1.223,0,0,1,.646.177,1.134,1.134,0,0,1,.451.528l5.518,16.675,5.089-16.44a1.294,1.294,0,0,1,.431-.685,1.138,1.138,0,0,1,.743-.255,1.184,1.184,0,0,1,1.175.94L192.8,68.729l5.441-16.361a1.109,1.109,0,0,1,1.095-.705A.988.988,0,0,1,200.12,51.977Z" transform="translate(-0.761)"/>
    <path d="M219.261,52.857a10.358,10.358,0,0,1,3.933,3.935,11.086,11.086,0,0,1,1.43,5.6V71.9a1.18,1.18,0,0,1-.314.843,1.185,1.185,0,0,1-2.036-.843V68.847a9.093,9.093,0,0,1-3.542,3.268,10.564,10.564,0,0,1-5.029,1.194,11.09,11.09,0,0,1-5.6-1.429,10.349,10.349,0,0,1-3.934-3.933,11.6,11.6,0,0,1,0-11.155,10.361,10.361,0,0,1,3.934-3.935,11.608,11.608,0,0,1,11.156,0Zm-1.175,17.125a8.152,8.152,0,0,0,3.073-3.131,9.488,9.488,0,0,0,0-8.925,8.279,8.279,0,0,0-3.073-3.15,8.6,8.6,0,0,0-11.86,3.15,9.34,9.34,0,0,0,0,8.925,8.293,8.293,0,0,0,3.092,3.131,9.034,9.034,0,0,0,8.768,0Z" transform="translate(-0.761)"/>
    <path d="M242.55,52.721a1.018,1.018,0,0,1-.04.313,1.04,1.04,0,0,1-.372.607,1.184,1.184,0,0,1-.685.175,7.028,7.028,0,0,1-.92-.077,7.1,7.1,0,0,0-.958-.079,7.23,7.23,0,0,0-3.484.822,6.064,6.064,0,0,0-2.388,2.27A6.239,6.239,0,0,0,232.842,60V71.9a1.183,1.183,0,0,1-.313.843,1.129,1.129,0,0,1-.862.332,1.136,1.136,0,0,1-1.173-1.175V52.838a1.125,1.125,0,0,1,.332-.861,1.178,1.178,0,0,1,.841-.314,1.084,1.084,0,0,1,1.175,1.175v2.427a8.326,8.326,0,0,1,2.9-2.818,7.533,7.533,0,0,1,3.837-1.018Q242.548,51.429,242.55,52.721Z" transform="translate(-0.761)"/>
    <path d="M260.065,52.819a9.3,9.3,0,0,1,3.5,3.737A11.554,11.554,0,0,1,264.821,62a1.044,1.044,0,0,1-.313.8,1.148,1.148,0,0,1-.822.293h-16.4a8.743,8.743,0,0,0,1.213,4.13,7.771,7.771,0,0,0,2.935,2.839,8.355,8.355,0,0,0,4.111,1.017,9.467,9.467,0,0,0,3.073-.528,6.572,6.572,0,0,0,2.447-1.39,1.288,1.288,0,0,1,.821-.313,1.029,1.029,0,0,1,.783,1.8,9.892,9.892,0,0,1-3.269,1.879,11.128,11.128,0,0,1-3.855.744,10.788,10.788,0,0,1-5.5-1.39,9.886,9.886,0,0,1-3.778-3.874,11.439,11.439,0,0,1-1.37-5.618,12.221,12.221,0,0,1,1.273-5.655,9.477,9.477,0,0,1,3.561-3.876,9.883,9.883,0,0,1,5.225-1.389A9.732,9.732,0,0,1,260.065,52.819ZM249.81,55.7a8.607,8.607,0,0,0-2.486,5.362h15.227A8.169,8.169,0,0,0,260.2,55.7a7.185,7.185,0,0,0-5.246-2.036A7.1,7.1,0,0,0,249.81,55.7Z" transform="translate(-0.761)"/>
  </g>
</svg>
