<svg id="Layer_1" data-name="Layer 1" xmlns="http://www.w3.org/2000/svg" viewBox="0 0 265.105 82.514">
  <defs>
    <style>
      .cls-1 {
        fill: #1b9e97;
      }

      .cls-2 {
        fill: #231f20;
      }
    </style>
  </defs>
  <title>DomaSoftware157878</title>
  <rect class="cls-1" width="82.514" height="82.514"/>
  <polygon class="cls-2" points="68.053 45.3 68.053 16.207 14.46 16.207 14.46 45.3 37.162 45.3 37.162 53.328 24.232 53.328 23.898 66.307 58.282 66.307 58.616 53.328 45.352 53.328 45.352 45.3 68.053 45.3"/>
  <g>
    <path class="cls-1" d="M110.194,4.029a14.09,14.09,0,0,1,5.462,5.443,15.819,15.819,0,0,1,1.965,7.919,15.92,15.92,0,0,1-1.965,7.938,14.038,14.038,0,0,1-5.462,5.462,15.913,15.913,0,0,1-7.938,1.965H95.182A1.141,1.141,0,0,1,94,31.577V3.244a1.133,1.133,0,0,1,.333-.865,1.186,1.186,0,0,1,.845-.314h7.074A15.933,15.933,0,0,1,110.194,4.029Zm-1.218,24.9a12.16,12.16,0,0,0,4.617-4.736,13.833,13.833,0,0,0,1.67-6.8,13.725,13.725,0,0,0-1.67-6.779A12.2,12.2,0,0,0,108.976,5.9a13.154,13.154,0,0,0-6.72-1.709H96.361V30.634h5.895A13.154,13.154,0,0,0,108.976,28.925Z" transform="translate(-0.468)"/>
    <path class="cls-1" d="M138.92,12.459a10.408,10.408,0,0,1,3.949,3.949,11.138,11.138,0,0,1,1.436,5.62,11.056,11.056,0,0,1-1.436,5.58,10.394,10.394,0,0,1-3.949,3.949,11.644,11.644,0,0,1-11.2,0,10.387,10.387,0,0,1-3.949-3.949,11.055,11.055,0,0,1-1.435-5.58,11.138,11.138,0,0,1,1.435-5.62,10.4,10.4,0,0,1,3.949-3.949,11.651,11.651,0,0,1,11.2,0Zm-9.982,1.926a8.452,8.452,0,0,0-3.1,3.163,8.9,8.9,0,0,0-1.14,4.48,8.9,8.9,0,0,0,1.14,4.48,8.306,8.306,0,0,0,3.1,3.143,9.067,9.067,0,0,0,8.8,0,8.156,8.156,0,0,0,3.084-3.143,9.023,9.023,0,0,0,1.121-4.48,9.021,9.021,0,0,0-1.121-4.48,8.3,8.3,0,0,0-3.084-3.163,8.931,8.931,0,0,0-8.8,0Z" transform="translate(-0.468)"/>
    <path class="cls-1" d="M177.077,12.164a7.881,7.881,0,0,1,2.869,3.282,10.785,10.785,0,0,1,1.022,4.774V31.577a1.189,1.189,0,0,1-.314.845,1.13,1.13,0,0,1-.865.334,1.142,1.142,0,0,1-1.18-1.179V20.22A7.46,7.46,0,0,0,177,15.269a5.144,5.144,0,0,0-4.127-1.926,5.793,5.793,0,0,0-4.44,1.808,6.472,6.472,0,0,0-1.612,4.794V31.577a1.188,1.188,0,0,1-.313.845,1.133,1.133,0,0,1-.865.334,1.141,1.141,0,0,1-1.179-1.179V20.22a7.46,7.46,0,0,0-1.611-4.951,5.144,5.144,0,0,0-4.127-1.926,5.924,5.924,0,0,0-6.169,6.209V31.577a1.181,1.181,0,0,1-.315.845,1.13,1.13,0,0,1-.865.334,1.142,1.142,0,0,1-1.178-1.179V12.44a1.128,1.128,0,0,1,.334-.865,1.182,1.182,0,0,1,.844-.315,1.09,1.09,0,0,1,1.18,1.18v1.532a7.631,7.631,0,0,1,2.712-2.2,7.772,7.772,0,0,1,3.457-.786,7.605,7.605,0,0,1,4.087,1.12,8.044,8.044,0,0,1,2.868,3.085,7.87,7.87,0,0,1,2.948-3.085,8.161,8.161,0,0,1,4.244-1.12A7.656,7.656,0,0,1,177.077,12.164Z" transform="translate(-0.468)"/>
    <path class="cls-1" d="M203.053,12.459A10.406,10.406,0,0,1,207,16.408a11.138,11.138,0,0,1,1.436,5.62v9.549a1.181,1.181,0,0,1-.315.845,1.19,1.19,0,0,1-2.044-.845V28.512a9.128,9.128,0,0,1-3.556,3.281,10.6,10.6,0,0,1-5.049,1.2,11.132,11.132,0,0,1-5.62-1.435,10.4,10.4,0,0,1-3.95-3.949,11.065,11.065,0,0,1-1.434-5.58,11.147,11.147,0,0,1,1.434-5.62,10.411,10.411,0,0,1,3.95-3.949,11.651,11.651,0,0,1,11.2,0Zm-1.18,17.192a8.175,8.175,0,0,0,3.086-3.143,9.022,9.022,0,0,0,1.119-4.48,9.019,9.019,0,0,0-1.119-4.48,8.318,8.318,0,0,0-3.086-3.163,8.632,8.632,0,0,0-11.907,3.163,8.9,8.9,0,0,0-1.14,4.48,8.9,8.9,0,0,0,1.14,4.48,8.315,8.315,0,0,0,3.1,3.143,9.065,9.065,0,0,0,8.8,0Z" transform="translate(-0.468)"/>
    <path d="M108.111,43.654a9.433,9.433,0,0,1,3.537,3.3,1.251,1.251,0,0,1,.157.63.982.982,0,0,1-.176.569,1.273,1.273,0,0,1-.492.413,1.086,1.086,0,0,1-.471.078,1.251,1.251,0,0,1-1.1-.588,7.617,7.617,0,0,0-6.719-3.42,7.9,7.9,0,0,0-5.089,1.473,4.981,4.981,0,0,0-1.828,4.107,4.611,4.611,0,0,0,1.808,3.7,11.839,11.839,0,0,0,5.58,2.122q4.951.825,7.231,3.044a7.785,7.785,0,0,1,2.279,5.836,9.03,9.03,0,0,1-1.2,4.717,7.847,7.847,0,0,1-3.38,3.065,11.418,11.418,0,0,1-5.05,1.06,12.931,12.931,0,0,1-6.405-1.513A9.712,9.712,0,0,1,92.746,68.1a1.06,1.06,0,0,1,.216-1.259,1.242,1.242,0,0,1,.884-.313,1.186,1.186,0,0,1,1.14.746,7.257,7.257,0,0,0,3.164,3.046A10.916,10.916,0,0,0,103.2,71.4a7.844,7.844,0,0,0,5.325-1.689,6.009,6.009,0,0,0,1.945-4.8,5.747,5.747,0,0,0-1.905-4.421,10.228,10.228,0,0,0-5.64-2.259,12.815,12.815,0,0,1-6.857-2.849,6.966,6.966,0,0,1-2.5-5.4,7.12,7.12,0,0,1,1.16-4.028,7.588,7.588,0,0,1,3.261-2.712,11.544,11.544,0,0,1,4.854-.963A10.4,10.4,0,0,1,108.111,43.654Z" transform="translate(-0.468)"/>
    <path d="M134.322,53.066a10.406,10.406,0,0,1,3.95,3.95,11.651,11.651,0,0,1,0,11.2,10.4,10.4,0,0,1-3.95,3.949,11.649,11.649,0,0,1-11.2,0,10.4,10.4,0,0,1-3.95-3.949,11.651,11.651,0,0,1,0-11.2,10.406,10.406,0,0,1,3.95-3.95,11.649,11.649,0,0,1,11.2,0Zm-9.981,1.927a8.45,8.45,0,0,0-3.1,3.162,9.375,9.375,0,0,0,0,8.961,8.32,8.32,0,0,0,3.1,3.143,9.074,9.074,0,0,0,8.8,0,8.177,8.177,0,0,0,3.084-3.143,9.522,9.522,0,0,0,0-8.961,8.3,8.3,0,0,0-3.084-3.162,8.924,8.924,0,0,0-8.8,0Z" transform="translate(-0.468)"/>
    <path d="M151.063,46.7a8.983,8.983,0,0,0-1.3,5.129v.825h5.187a1.061,1.061,0,1,1,0,2.122h-5.187V72.184a1.146,1.146,0,0,1-.334.845,1.2,1.2,0,0,1-.884.334,1.142,1.142,0,0,1-1.18-1.179V54.776H144.3a1.061,1.061,0,1,1,0-2.122h3.065v-.825a10.454,10.454,0,0,1,1.965-6.681,7.071,7.071,0,0,1,5.9-2.476,1.234,1.234,0,0,1,.846.3,1.048,1.048,0,0,1,0,1.532,1.234,1.234,0,0,1-.846.295A4.677,4.677,0,0,0,151.063,46.7Z" transform="translate(-0.468)"/>
    <path d="M170.534,71.3a1.2,1.2,0,0,1,.334.884,1.146,1.146,0,0,1-.334.845,1.2,1.2,0,0,1-.884.334h-.905a7.516,7.516,0,0,1-3.85-.982,6.932,6.932,0,0,1-2.634-2.692,7.884,7.884,0,0,1-.943-3.87V54.776h-3.065a1.061,1.061,0,1,1,0-2.122h3.065V46.248a1.2,1.2,0,0,1,.334-.884,1.145,1.145,0,0,1,.846-.334,1.148,1.148,0,0,1,1.218,1.218v6.406H168.9a1.061,1.061,0,1,1,0,2.122h-5.187V65.819a5.067,5.067,0,0,0,1.414,3.713,4.906,4.906,0,0,0,3.655,1.434h.865A1.2,1.2,0,0,1,170.534,71.3Z" transform="translate(-0.468)"/>
    <path d="M200.616,52.182a1.155,1.155,0,0,1,.275.787,1.685,1.685,0,0,1-.118.588l-6.327,19.059a1.024,1.024,0,0,1-.413.55,1.273,1.273,0,0,1-.727.2,1.3,1.3,0,0,1-.707-.2.837.837,0,0,1-.393-.55l-5.344-16.622-5.188,16.622a1.069,1.069,0,0,1-1.1.747,1.205,1.205,0,0,1-.688-.2,1.024,1.024,0,0,1-.413-.55l-6.366-19.059a4.884,4.884,0,0,1-.079-.628q0-1.061.983-1.062a1.224,1.224,0,0,1,.648.178,1.142,1.142,0,0,1,.453.53l5.54,16.741,5.109-16.5a1.3,1.3,0,0,1,.433-.689,1.145,1.145,0,0,1,.746-.256,1.188,1.188,0,0,1,1.179.945L193.267,69l5.462-16.426a1.115,1.115,0,0,1,1.1-.708A.993.993,0,0,1,200.616,52.182Z" transform="translate(-0.468)"/>
    <path d="M219.832,53.066a10.4,10.4,0,0,1,3.949,3.95,11.131,11.131,0,0,1,1.435,5.619v9.549a1.181,1.181,0,0,1-.315.845,1.126,1.126,0,0,1-.864.334,1.144,1.144,0,0,1-1.18-1.179V69.119A9.121,9.121,0,0,1,219.3,72.4a10.6,10.6,0,0,1-5.049,1.2,11.132,11.132,0,0,1-5.62-1.434,10.4,10.4,0,0,1-3.95-3.949,11.651,11.651,0,0,1,0-11.2,10.406,10.406,0,0,1,3.95-3.95,11.651,11.651,0,0,1,11.2,0Zm-1.179,17.193a8.193,8.193,0,0,0,3.085-3.143,9.53,9.53,0,0,0,0-8.961,8.32,8.32,0,0,0-3.085-3.162,8.632,8.632,0,0,0-11.907,3.162,9.375,9.375,0,0,0,0,8.961,8.32,8.32,0,0,0,3.1,3.143,9.074,9.074,0,0,0,8.8,0Z" transform="translate(-0.468)"/>
    <path d="M243.213,52.929a1.063,1.063,0,0,1-.039.315,1.049,1.049,0,0,1-.374.609,1.187,1.187,0,0,1-.688.176,6.962,6.962,0,0,1-.924-.078,7.327,7.327,0,0,0-4.459.746,6.078,6.078,0,0,0-2.4,2.28,6.255,6.255,0,0,0-.865,3.262V72.184a1.181,1.181,0,0,1-.315.845,1.126,1.126,0,0,1-.864.334,1.142,1.142,0,0,1-1.179-1.179V53.047a1.134,1.134,0,0,1,.334-.865,1.183,1.183,0,0,1,.845-.315,1.089,1.089,0,0,1,1.179,1.18v2.437a8.361,8.361,0,0,1,2.908-2.83,7.555,7.555,0,0,1,3.851-1.022Q243.213,51.632,243.213,52.929Z" transform="translate(-0.468)"/>
    <path d="M260.8,53.028a9.34,9.34,0,0,1,3.518,3.752,11.589,11.589,0,0,1,1.258,5.462,1.051,1.051,0,0,1-.315.806,1.156,1.156,0,0,1-.825.294H247.967a8.773,8.773,0,0,0,1.218,4.146,7.8,7.8,0,0,0,2.947,2.85,8.384,8.384,0,0,0,4.127,1.021,9.514,9.514,0,0,0,3.085-.53,6.582,6.582,0,0,0,2.456-1.395,1.3,1.3,0,0,1,.825-.315,1.033,1.033,0,0,1,.786,1.807,9.921,9.921,0,0,1-3.281,1.887,11.182,11.182,0,0,1-3.871.747,10.838,10.838,0,0,1-5.521-1.395,9.931,9.931,0,0,1-3.793-3.89,11.491,11.491,0,0,1-1.375-5.64,12.279,12.279,0,0,1,1.278-5.678,9.51,9.51,0,0,1,3.575-3.891,9.919,9.919,0,0,1,5.246-1.394A9.759,9.759,0,0,1,260.8,53.028Zm-10.3,2.888a8.641,8.641,0,0,0-2.5,5.383h15.286a8.2,8.2,0,0,0-2.357-5.383,7.217,7.217,0,0,0-5.267-2.044A7.13,7.13,0,0,0,250.5,55.916Z" transform="translate(-0.468)"/>
  </g>
</svg>
