<?xml version="1.0" encoding="utf-8"?>
<!-- Generator: Adobe Illustrator 23.0.1, SVG Export Plug-In . SVG Version: 6.00 Build 0)  -->
<svg version="1.1" id="Layer_1" xmlns="http://www.w3.org/2000/svg" xmlns:xlink="http://www.w3.org/1999/xlink" x="0px" y="0px"
	 viewBox="0 0 281.76 124.05" style="enable-background:new 0 0 281.76 124.05;" xml:space="preserve">
<style type="text/css">
	.st0{fill:#167978;}
	.st1{fill:#168D88;}
	.st2{fill:#15726E;}
	.st3{fill:#FFFFFF;}
</style>
<title>newLogoSmallGray</title>
<g>
	<path class="st0" d="M135.369,50.172c1.872,1.052,3.328,2.508,4.37,4.37c1.041,1.861,1.562,3.981,1.562,6.358
		c0,2.377-0.521,4.501-1.562,6.374c-1.042,1.873-2.498,3.334-4.37,4.386c-1.872,1.051-3.997,1.577-6.374,1.577h-5.68
		c-0.358,0-0.652-0.116-0.883-0.347c-0.232-0.231-0.347-0.526-0.347-0.884V49.825c0-0.357,0.115-0.652,0.347-0.884
		c0.231-0.231,0.525-0.347,0.883-0.347h5.68C131.372,48.594,133.497,49.12,135.369,50.172z M134.107,69.719
		c1.493-0.872,2.661-2.076,3.503-3.612c0.84-1.536,1.262-3.271,1.262-5.206s-0.422-3.67-1.262-5.206
		c-0.841-1.535-2.009-2.734-3.503-3.597c-1.494-0.862-3.197-1.294-5.111-1.294h-4.449v20.225h4.449
		C130.91,71.028,132.613,70.592,134.107,69.719z"/>
	<path class="st0" d="M158.402,56.956c1.326,0.757,2.371,1.809,3.139,3.155s1.152,2.85,1.152,4.511c0,1.663-0.378,3.161-1.135,4.496
		c-0.757,1.337-1.804,2.382-3.139,3.139c-1.337,0.757-2.835,1.137-4.496,1.137c-1.663,0-3.161-0.379-4.496-1.137
		c-1.336-0.757-2.382-1.803-3.139-3.139c-0.757-1.336-1.137-2.834-1.137-4.496c0-1.661,0.379-3.165,1.137-4.511
		s1.804-2.398,3.139-3.155c1.336-0.757,2.834-1.136,4.496-1.136C155.583,55.82,157.077,56.199,158.402,56.956z M150.656,58.881
		c-0.978,0.568-1.746,1.352-2.303,2.351c-0.558,1-0.837,2.13-0.837,3.391c0,1.242,0.279,2.362,0.837,3.361
		c0.557,0.999,1.325,1.782,2.303,2.35c0.979,0.569,2.067,0.852,3.266,0.852c1.219,0,2.313-0.283,3.282-0.852
		c0.967-0.568,1.724-1.351,2.272-2.35c0.546-0.999,0.82-2.119,0.82-3.361c0-1.262-0.274-2.392-0.82-3.391
		c-0.548-0.998-1.305-1.782-2.272-2.351c-0.968-0.568-2.062-0.852-3.282-0.852C152.722,58.028,151.634,58.313,150.656,58.881z"/>
	<path class="st0" d="M188.897,56.672c0.956,0.589,1.704,1.425,2.24,2.508c0.537,1.084,0.805,2.341,0.805,3.77v9.087
		c0,0.358-0.11,0.647-0.331,0.868c-0.222,0.222-0.511,0.332-0.868,0.332c-0.358,0-0.653-0.11-0.884-0.332
		c-0.231-0.22-0.347-0.51-0.347-0.868v-9.087c0-1.493-0.384-2.677-1.152-3.549s-1.772-1.31-3.013-1.31
		c-1.325,0-2.399,0.441-3.219,1.325c-0.82,0.884-1.219,2.041-1.199,3.471v0.063v9.087c0,0.358-0.11,0.647-0.331,0.868
		c-0.22,0.222-0.511,0.332-0.868,0.332c-0.358,0-0.653-0.11-0.884-0.332c-0.231-0.22-0.347-0.51-0.347-0.868v-9.087
		c0-1.493-0.384-2.677-1.151-3.549c-0.768-0.873-1.773-1.31-3.014-1.31c-1.305,0-2.377,0.431-3.219,1.294
		c-0.841,0.863-1.262,1.967-1.262,3.313v9.339c0,0.358-0.11,0.647-0.331,0.868c-0.22,0.222-0.511,0.332-0.868,0.332
		c-0.358,0-0.653-0.11-0.884-0.332c-0.231-0.22-0.347-0.51-0.347-0.868v-14.83c0-0.357,0.116-0.652,0.347-0.884
		c0.231-0.231,0.526-0.347,0.884-0.347c0.357,0,0.647,0.116,0.868,0.347c0.22,0.232,0.331,0.526,0.331,0.884v0.694
		c0.589-0.673,1.288-1.193,2.099-1.561c0.809-0.368,1.688-0.552,2.635-0.552c1.157,0,2.198,0.263,3.124,0.789
		c0.926,0.526,1.662,1.262,2.209,2.208c0.609-0.946,1.403-1.682,2.382-2.208c0.978-0.526,2.076-0.789,3.297-0.789
		C186.841,55.789,187.94,56.083,188.897,56.672z"/>
	<path class="st0" d="M209.628,56.972c1.336,0.768,2.387,1.825,3.155,3.171c0.768,1.346,1.152,2.84,1.152,4.48v7.415
		c0,0.337-0.116,0.621-0.347,0.852c-0.232,0.231-0.526,0.347-0.884,0.347c-0.358,0-0.652-0.11-0.883-0.332
		c-0.232-0.22-0.347-0.51-0.347-0.868v-1.893c-0.736,1.01-1.672,1.804-2.808,2.382c-1.137,0.578-2.388,0.868-3.756,0.868
		c-1.599,0-3.045-0.384-4.339-1.152c-1.293-0.768-2.313-1.819-3.06-3.155c-0.747-1.336-1.12-2.824-1.12-4.466
		c0-1.64,0.383-3.133,1.152-4.48c0.767-1.346,1.819-2.403,3.155-3.171c1.336-0.768,2.824-1.152,4.464-1.152
		C206.803,55.82,208.291,56.204,209.628,56.972z M208.413,70.334c0.967-0.568,1.729-1.351,2.287-2.35
		c0.557-0.999,0.836-2.119,0.836-3.361c0-1.24-0.279-2.36-0.836-3.36c-0.558-0.998-1.32-1.787-2.287-2.366
		c-0.968-0.578-2.051-0.868-3.251-0.868c-1.198,0-2.287,0.29-3.265,0.868c-0.979,0.579-1.747,1.368-2.304,2.366
		c-0.557,1-0.836,2.12-0.836,3.36c0,1.242,0.279,2.362,0.836,3.361c0.557,0.999,1.325,1.782,2.304,2.35
		c0.978,0.569,2.067,0.852,3.265,0.852C206.361,71.186,207.445,70.903,208.413,70.334z"/>
	<path d="M134.044,87.247c1.262,0.736,2.251,1.692,2.966,2.87c0.147,0.232,0.22,0.485,0.22,0.757c0,0.401-0.189,0.716-0.568,0.947
		c-0.168,0.084-0.358,0.126-0.568,0.126c-0.232,0-0.447-0.057-0.647-0.173c-0.2-0.115-0.363-0.279-0.489-0.489
		c-1.178-1.85-2.956-2.786-5.332-2.808c-1.704,0-3.051,0.358-4.039,1.073c-0.989,0.716-1.483,1.735-1.483,3.061
		c0,2.46,1.987,3.954,5.964,4.48c2.608,0.378,4.554,1.178,5.837,2.398c1.282,1.221,1.925,2.83,1.925,4.828
		c0,1.472-0.358,2.745-1.073,3.817c-0.715,1.074-1.694,1.889-2.934,2.446c-1.241,0.557-2.63,0.836-4.165,0.836
		c-1.999,0-3.77-0.425-5.316-1.278c-1.546-0.852-2.656-2.004-3.329-3.455c-0.084-0.147-0.126-0.316-0.126-0.505
		c0-0.295,0.111-0.542,0.331-0.742c0.221-0.199,0.521-0.3,0.9-0.3c0.252,0,0.489,0.069,0.71,0.205
		c0.221,0.137,0.383,0.332,0.489,0.584c0.484,0.946,1.288,1.709,2.414,2.287c1.125,0.578,2.434,0.868,3.928,0.868
		c1.725,0,3.113-0.415,4.165-1.247c1.052-0.831,1.577-1.992,1.577-3.487c0-1.325-0.489-2.439-1.467-3.344
		c-0.978-0.904-2.445-1.483-4.402-1.735c-2.44-0.294-4.359-1.057-5.758-2.287c-1.4-1.231-2.098-2.74-2.098-4.528
		c0-1.261,0.341-2.37,1.025-3.328c0.683-0.958,1.63-1.694,2.84-2.209s2.582-0.773,4.118-0.773
		C131.32,86.142,132.782,86.51,134.044,87.247z"/>
	<path d="M154.994,94.818c1.325,0.757,2.371,1.81,3.139,3.155c0.768,1.347,1.152,2.851,1.152,4.513s-0.379,3.161-1.137,4.496
		c-0.757,1.336-1.804,2.382-3.139,3.139c-1.336,0.757-2.835,1.135-4.496,1.135c-1.662,0-3.161-0.378-4.496-1.135
		c-1.336-0.757-2.382-1.804-3.139-3.139s-1.135-2.835-1.135-4.496s0.378-3.165,1.135-4.513c0.757-1.345,1.804-2.398,3.139-3.155
		c1.336-0.757,2.835-1.135,4.496-1.135C152.175,93.683,153.669,94.061,154.994,94.818z M147.248,96.743
		c-0.979,0.568-1.747,1.352-2.304,2.351c-0.557,0.999-0.836,2.13-0.836,3.392c0,1.241,0.279,2.361,0.836,3.36
		c0.557,0.999,1.325,1.782,2.304,2.351c0.978,0.568,2.067,0.851,3.265,0.851c1.219,0,2.315-0.283,3.282-0.851
		c0.967-0.569,1.724-1.352,2.272-2.351c0.546-0.999,0.82-2.119,0.82-3.36c0-1.262-0.274-2.393-0.82-3.392
		c-0.548-0.999-1.305-1.784-2.272-2.351c-0.967-0.568-2.062-0.852-3.282-0.852C149.315,95.891,148.226,96.175,147.248,96.743z"/>
	<path d="M168.482,90.054c-0.705,0.926-1.057,2.157-1.057,3.692v0.725h3.786c0.337,0,0.604,0.101,0.805,0.3
		c0.2,0.2,0.3,0.457,0.3,0.773c0,0.295-0.1,0.543-0.3,0.742c-0.2,0.2-0.468,0.3-0.805,0.3h-3.786v13.284
		c0,0.378-0.11,0.678-0.331,0.898c-0.222,0.222-0.532,0.332-0.932,0.332c-0.337,0-0.615-0.11-0.836-0.332
		c-0.222-0.22-0.332-0.52-0.332-0.898V96.585h-2.019c-0.337,0-0.604-0.1-0.805-0.3c-0.199-0.199-0.3-0.447-0.3-0.742
		c0-0.315,0.101-0.572,0.3-0.773c0.2-0.199,0.468-0.3,0.805-0.3h2.019v-0.598c0-2.251,0.578-4.05,1.736-5.396
		c1.157-1.346,2.786-2.019,4.89-2.019c0.358,0,0.652,0.105,0.884,0.315c0.231,0.211,0.347,0.474,0.347,0.789
		s-0.116,0.578-0.347,0.788c-0.232,0.211-0.526,0.316-0.884,0.316C170.234,88.666,169.187,89.129,168.482,90.054z"/>
	<path d="M183.991,109.018c0.21,0.231,0.315,0.526,0.315,0.883c0,0.337-0.126,0.621-0.378,0.852
		c-0.252,0.232-0.568,0.347-0.947,0.347h-0.662c-1.115,0-2.114-0.268-2.997-0.805c-0.884-0.537-1.573-1.262-2.067-2.177
		s-0.742-1.951-0.742-3.107v-8.425h-2.05c-0.338,0-0.606-0.1-0.805-0.3c-0.2-0.199-0.3-0.447-0.3-0.742c0-0.315,0.1-0.572,0.3-0.773
		c0.199-0.199,0.467-0.3,0.805-0.3h2.05v-4.89c0-0.358,0.11-0.652,0.332-0.884c0.22-0.231,0.51-0.347,0.868-0.347
		c0.357,0,0.652,0.116,0.883,0.347c0.231,0.232,0.347,0.526,0.347,0.884v4.89h3.566c0.335,0,0.604,0.101,0.805,0.3
		c0.199,0.2,0.3,0.457,0.3,0.773c0,0.295-0.101,0.543-0.3,0.742c-0.2,0.2-0.469,0.3-0.805,0.3h-3.566v8.425
		c0,1.073,0.315,1.951,0.947,2.635c0.63,0.684,1.44,1.025,2.43,1.025h0.852C183.507,108.67,183.78,108.786,183.991,109.018z"/>
	<path d="M207.939,94.125c0.19,0.188,0.284,0.441,0.284,0.757c0,0.251-0.043,0.473-0.127,0.661l-4.922,14.767
		c-0.084,0.232-0.226,0.422-0.425,0.569c-0.2,0.147-0.437,0.22-0.71,0.22c-0.274,0-0.521-0.073-0.742-0.22
		c-0.22-0.147-0.363-0.337-0.425-0.569l-3.786-12.558l-3.786,12.558c-0.084,0.252-0.232,0.448-0.442,0.584
		c-0.211,0.137-0.442,0.205-0.694,0.205c-0.274,0-0.51-0.073-0.71-0.22s-0.352-0.337-0.457-0.569l-4.922-14.767
		c-0.063-0.251-0.095-0.473-0.095-0.661c0-0.694,0.337-1.042,1.01-1.042c0.589,0,0.988,0.305,1.199,0.915l4.039,12.305l3.723-12.273
		c0.084-0.295,0.226-0.526,0.427-0.694c0.199-0.168,0.457-0.252,0.773-0.252s0.572,0.084,0.773,0.252s0.341,0.399,0.427,0.694
		l3.628,12.21l4.008-12.242c0.21-0.61,0.598-0.915,1.167-0.915C207.486,93.841,207.75,93.936,207.939,94.125z"/>
	<path d="M223.29,94.835c1.336,0.767,2.387,1.824,3.155,3.17c0.768,1.346,1.152,2.84,1.152,4.481v7.414
		c0,0.337-0.116,0.621-0.346,0.852c-0.232,0.232-0.526,0.347-0.884,0.347c-0.358,0-0.652-0.11-0.884-0.332
		c-0.231-0.22-0.346-0.51-0.346-0.868v-1.893c-0.737,1.01-1.672,1.804-2.809,2.382c-1.135,0.578-2.388,0.868-3.755,0.868
		c-1.599,0-3.045-0.384-4.339-1.152c-1.294-0.767-2.315-1.819-3.061-3.155s-1.12-2.824-1.12-4.464c0-1.641,0.384-3.135,1.152-4.481
		c0.768-1.346,1.819-2.403,3.155-3.17c1.336-0.768,2.824-1.152,4.466-1.152C220.466,93.683,221.954,94.067,223.29,94.835z
		 M222.075,108.197c0.967-0.569,1.73-1.352,2.287-2.351c0.557-0.999,0.837-2.119,0.837-3.36s-0.28-2.362-0.837-3.361
		c-0.557-0.999-1.32-1.787-2.287-2.367c-0.968-0.578-2.051-0.868-3.25-0.868c-1.199,0-2.287,0.289-3.266,0.868
		c-0.978,0.58-1.746,1.368-2.303,2.367c-0.558,0.999-0.837,2.12-0.837,3.361s0.279,2.361,0.837,3.36
		c0.557,0.999,1.325,1.782,2.303,2.351c0.979,0.568,2.067,0.851,3.266,0.851C220.024,109.048,221.107,108.765,222.075,108.197z"/>
	<path d="M242.222,93.998c0.516,0.232,0.773,0.557,0.773,0.978c0,0.127-0.011,0.222-0.032,0.284c-0.084,0.295-0.216,0.494-0.393,0.6
		c-0.179,0.105-0.427,0.158-0.742,0.158c-0.19,0-0.516-0.021-0.978-0.064c-0.169-0.02-0.422-0.031-0.757-0.031
		c-1.579,0-2.867,0.421-3.866,1.262c-0.999,0.841-1.498,1.935-1.498,3.282v9.434c0,0.379-0.105,0.674-0.316,0.884
		c-0.21,0.21-0.505,0.315-0.883,0.315c-0.379,0-0.673-0.105-0.884-0.315c-0.21-0.21-0.315-0.505-0.315-0.884V95.039
		c0-0.378,0.105-0.672,0.315-0.883c0.211-0.21,0.505-0.315,0.884-0.315c0.378,0,0.673,0.105,0.883,0.315
		c0.211,0.211,0.316,0.505,0.316,0.883v1.389c0.609-0.884,1.388-1.567,2.335-2.05c0.946-0.485,1.966-0.726,3.06-0.726
		C241.007,93.651,241.707,93.767,242.222,93.998z"/>
	<path d="M257.004,94.771c1.199,0.725,2.13,1.73,2.793,3.014c0.663,1.283,0.993,2.745,0.993,4.385c0,0.338-0.105,0.606-0.315,0.805
		c-0.211,0.2-0.485,0.3-0.82,0.3h-12.747c0.167,1.726,0.84,3.124,2.019,4.197c1.177,1.073,2.65,1.609,4.417,1.609
		c0.757,0,1.519-0.132,2.287-0.395c0.768-0.262,1.383-0.594,1.846-0.993c0.273-0.211,0.557-0.316,0.852-0.316
		c0.231,0,0.462,0.085,0.693,0.252c0.274,0.252,0.41,0.537,0.41,0.852c0,0.274-0.115,0.516-0.347,0.726
		c-0.693,0.589-1.577,1.077-2.65,1.467c-1.073,0.389-2.104,0.583-3.092,0.583c-1.683,0-3.187-0.373-4.512-1.12
		c-1.326-0.747-2.362-1.787-3.109-3.124c-0.747-1.336-1.12-2.844-1.12-4.527c0-1.704,0.352-3.224,1.057-4.56
		c0.704-1.334,1.683-2.376,2.934-3.124c1.251-0.745,2.676-1.119,4.276-1.119C254.428,93.683,255.806,94.046,257.004,94.771z
		 M248.896,97.343c-1.052,0.988-1.694,2.293-1.925,3.912h11.548c-0.168-1.619-0.757-2.924-1.767-3.912
		c-1.01-0.988-2.303-1.483-3.88-1.483C251.272,95.86,249.947,96.354,248.896,97.343z"/>
</g>
<path class="st1" d="M91.562,122.055H25.573c-4.7,0-8.511-3.81-8.511-8.511V47.555c0-4.7,3.81-8.511,8.511-8.511h65.989
	c4.7,0,8.511,3.81,8.511,8.511v65.989C100.073,118.245,96.263,122.055,91.562,122.055z"/>
<path class="st2" d="M56.531,3.929L11.002,44.368c-2.109,1.873-0.784,5.36,2.037,5.36h91.057c2.821,0,4.146-3.487,2.037-5.36
	L60.604,3.929C59.443,2.897,57.693,2.897,56.531,3.929z"/>
<circle class="st2" cx="58.821" cy="81.294" r="25.994"/>
<g>
	<path class="st3" d="M52.604,87.693l-14.557-6.393v-1.485l14.557-7.256v2.257l-11.846,5.62l11.846,4.969V87.693z"/>
	<path class="st3" d="M65.283,69.212l-8.256,22.147h-2.515l8.256-22.147H65.283z"/>
	<path class="st3" d="M67.177,85.406l11.861-4.938l-11.861-5.65V72.56l14.557,7.256v1.485l-14.557,6.393V85.406z"/>
</g>
</svg>
