<?xml version="1.0" encoding="utf-8"?>
<!-- Generator: Adobe Illustrator 23.0.1, SVG Export Plug-In . SVG Version: 6.00 Build 0)  -->
<svg version="1.1" id="Layer_1" xmlns="http://www.w3.org/2000/svg" xmlns:xlink="http://www.w3.org/1999/xlink" x="0px" y="0px"
	 viewBox="0 0 268.3 83.5" style="enable-background:new 0 0 268.3 83.5;" xml:space="preserve">
<style type="text/css">
	.st0{fill:#1F9E97;}
</style>
<title>DomaSoftware</title>
<rect x="0.2" y="-0.9" class="st0" width="83.1" height="83.1"/>
<polygon points="68.8,44.8 68.8,15.5 14.8,15.5 14.8,44.8 37.7,44.8 37.7,52.9 24.6,52.9 24.3,66 58.9,66 59.3,52.9 45.9,52.9 
	45.9,44.8 "/>
<g>
	<path class="st0" d="M110.8,3.2c2.3,1.3,4.2,3.1,5.5,5.5c1.3,2.3,2,5,2,8s-0.7,5.6-2,8c-1.3,2.3-3.2,4.2-5.5,5.5s-5,2-8,2h-7.1
		c-0.3,0-0.6-0.1-0.9-0.3c-0.2-0.2-0.3-0.5-0.3-0.9V2.4c0-0.4,0.1-0.7,0.3-0.9c0.2-0.2,0.5-0.3,0.9-0.3h7.1
		C105.8,1.2,108.4,1.9,110.8,3.2z M109.5,28.3c2-1.1,3.5-2.7,4.7-4.8c1.1-2,1.7-4.3,1.7-6.8s-0.6-4.8-1.7-6.8s-2.7-3.6-4.7-4.8
		c-2-1.1-4.2-1.7-6.8-1.7h-5.9V30h5.9C105.3,30,107.6,29.4,109.5,28.3z"/>
	<path class="st0" d="M139.7,11.7c1.7,1,3,2.3,4,4s1.4,3.6,1.4,5.7s-0.5,3.9-1.4,5.6c-1,1.7-2.3,3-4,4s-3.6,1.4-5.6,1.4
		c-2.1,0-4-0.5-5.7-1.4c-1.7-1-3-2.3-4-4s-1.4-3.6-1.4-5.6c0-2.1,0.5-4,1.4-5.7c1-1.7,2.3-3,4-4s3.6-1.4,5.7-1.4
		C136.1,10.3,138,10.7,139.7,11.7z M129.7,13.6c-1.3,0.8-2.4,1.8-3.1,3.2c-0.8,1.3-1.1,2.9-1.1,4.5c0,1.7,0.4,3.2,1.1,4.5
		c0.8,1.3,1.8,2.4,3.1,3.2c1.3,0.8,2.8,1.1,4.4,1.1c1.6,0,3.1-0.4,4.4-1.1c1.3-0.8,2.4-1.8,3.1-3.2c0.8-1.3,1.1-2.9,1.1-4.5
		c0-1.7-0.4-3.2-1.1-4.5c-0.8-1.3-1.8-2.4-3.1-3.2s-2.8-1.2-4.4-1.2C132.5,12.5,131,12.9,129.7,13.6z"/>
	<path class="st0" d="M178.2,11.4c1.2,0.8,2.2,1.9,2.9,3.3s1,3,1,4.8V31c0,0.3-0.1,0.6-0.3,0.9c-0.2,0.2-0.5,0.3-0.9,0.3
		c-0.3,0-0.6-0.1-0.9-0.3c-0.2-0.2-0.3-0.5-0.3-0.9V19.5c0-2-0.5-3.7-1.6-5s-2.5-1.9-4.2-1.9c-1.8,0-3.3,0.6-4.5,1.8
		c-1.1,1.2-1.7,2.8-1.6,4.8v0.3V31c0,0.3-0.1,0.6-0.3,0.9c-0.2,0.2-0.5,0.3-0.9,0.3c-0.3,0-0.6-0.1-0.9-0.3
		c-0.2-0.2-0.3-0.5-0.3-0.9V19.5c0-2-0.5-3.7-1.6-5s-2.5-1.9-4.2-1.9c-1.8,0-3.3,0.6-4.5,1.7c-1.2,1.2-1.7,2.7-1.7,4.5V31
		c0,0.3-0.1,0.6-0.3,0.9c-0.2,0.2-0.5,0.3-0.9,0.3c-0.3,0-0.6-0.1-0.9-0.3c-0.2-0.2-0.3-0.5-0.3-0.9V11.7c0-0.4,0.1-0.7,0.3-0.9
		s0.5-0.3,0.9-0.3s0.7,0.1,0.9,0.3s0.3,0.5,0.3,0.9v1.5c0.7-1,1.6-1.7,2.7-2.2c1.1-0.5,2.2-0.8,3.5-0.8c1.5,0,2.9,0.4,4.1,1.1
		c1.2,0.8,2.2,1.8,2.9,3.1c0.7-1.3,1.7-2.4,3-3.1c1.3-0.8,2.7-1.1,4.3-1.1S176.9,10.6,178.2,11.4z"/>
	<path class="st0" d="M204.3,11.7c1.7,1,3,2.3,4,4s1.4,3.6,1.4,5.7V31c0,0.3-0.1,0.6-0.3,0.9c-0.2,0.2-0.5,0.3-0.9,0.3
		c-0.3,0-0.6-0.1-0.9-0.3c-0.2-0.2-0.3-0.5-0.3-0.9v-3.1c-0.9,1.4-2.1,2.5-3.6,3.3s-3.2,1.2-5.1,1.2c-2.1,0-4-0.5-5.7-1.4
		c-1.7-1-3-2.3-4-4s-1.4-3.6-1.4-5.6c0-2.1,0.5-4,1.4-5.7c1-1.7,2.3-3,4-4s3.6-1.4,5.7-1.4C200.8,10.3,202.6,10.7,204.3,11.7z
		 M203.1,29c1.3-0.8,2.4-1.8,3.1-3.2c0.8-1.3,1.1-2.9,1.1-4.5c0-1.7-0.4-3.2-1.1-4.5s-1.8-2.4-3.1-3.2s-2.8-1.2-4.4-1.2
		c-1.6,0-3.1,0.4-4.4,1.2c-1.3,0.8-2.4,1.8-3.1,3.2s-1.1,2.9-1.1,4.5c0,1.7,0.4,3.2,1.1,4.5c0.8,1.3,1.8,2.4,3.1,3.2
		c1.3,0.8,2.8,1.1,4.4,1.1C200.3,30.2,201.8,29.8,203.1,29z"/>
</g>
<g>
	<path d="M129.6,67.5c-1.8,1.6-4.1,3.1-7.1,4.6c-3,1.5-6.3,2.2-9.8,2.2c-3.8,0-6.9-0.7-9.3-2.2c-2.4-1.4-3.6-3.6-3.6-6.4
		c0-1.9,0.5-4.1,1.5-6.6c1-2.4,2.2-4.5,3.5-6.3c1.4-1.8,3-3.3,4.8-4.5c1.8-1.2,3.7-1.8,5.5-1.8c1.8,0,3.2,0.4,4.2,1.3
		c1,0.9,1.5,1.9,1.5,3.2c0,0.5-0.1,1-0.4,1.4c-0.3,0.5-0.6,0.9-0.9,1.2c-0.3,0.3-0.6,0.5-0.8,0.5c-0.3,0-0.5-0.1-0.5-0.4
		c0-0.1,0.1-0.3,0.2-0.6c0.1-0.3,0.2-0.5,0.2-0.7c0-0.7-0.1-1.4-0.4-2c-0.2-0.5-0.6-1-1.3-1.3c-0.6-0.3-1.3-0.5-2.1-0.5
		c-3,0-5.9,1.9-8.5,5.8c-1.1,1.6-1.9,3.3-2.6,5.3c-0.7,2-1.1,3.9-1.1,5.7c0,1.3,0.4,2.4,1.2,3.4c0.8,1,1.9,1.9,3.3,2.5
		c1.4,0.6,3.1,0.9,5.1,0.9c3.1,0,5.8-0.5,8.3-1.5c2.5-1,5-2.2,7.4-3.8c0.1-0.1,0.4-0.4,0.9-0.9c0.5-0.6,0.9-0.9,1.1-0.9
		c0.3,0,0.4,0,0.5,0.1c0.1,0.1,0.1,0.2,0.1,0.5C130.7,66.3,130.3,66.8,129.6,67.5z"/>
	<path d="M177.8,72c-0.5,0.2-1,0.4-1.6,0.4c-0.5,0-0.9,0-1.2-0.1s-0.5-0.2-0.6-0.4c-0.4-0.4-0.8-1.7-1.3-3.7c-0.5-2.1-1-4.5-1.4-7.1
		c-1-8.2-1.8-12.4-2.3-12.6c-0.5,0.7-1.2,1.9-2.1,3.8c-1,1.9-2.1,4.3-3.3,7.3c-1.4,3.2-2.4,5.4-3.1,6.7c-0.7,1.2-1.3,2-1.9,2.2
		c-0.3,0.2-0.7,0.4-1.2,0.6c-0.5,0.2-0.9,0.3-1.2,0.3c-0.4,0-0.7,0-0.8-0.1s-0.3-0.3-0.4-0.7c-0.2-0.4-0.6-1.7-1.2-3.9
		s-1.1-4.2-1.4-5.9l-0.4-1.8c-0.7-3.6-1.2-5.7-1.4-6.1c-0.8,0.5-1.6,1.5-2.3,3.2c-0.7,1.6-1.5,4-2.5,7c-0.9,2.3-2,6.1-3.2,11.3
		c0,0.3-0.4,0.6-0.9,0.8c-0.6,0.3-1.1,0.4-1.6,0.4c-0.7,0-1.1-0.4-1.1-1.3c0-0.9-0.3-2.7-0.9-5.6c-0.5-2.9-1-5.4-1.4-7.6
		c-0.6-3.1-1.4-6-2.4-8.7c-0.3-0.8-0.4-1.3-0.4-1.4c0-0.4,0.3-0.8,0.9-1c0.6-0.3,1.3-0.4,2-0.4c0.3,0,0.7,0.9,1.1,2.6
		s0.8,3.9,1.2,6.6l0.2,1.4c0.2,0.9,0.4,1.9,0.6,2.9c0.8,4.3,1.2,7,1.3,8.1c0.8-3.2,1.8-6.5,2.8-9.8l0.6-1.8c0.9-3,1.9-5.2,3-6.7
		c1.1-1.5,2.5-2.3,4.2-2.3c0.5,0,1.2,0.9,1.8,2.8c0.7,1.9,1.2,4.1,1.6,6.6c0.3,1.8,0.7,3.5,1.1,5.3s0.9,2.9,1.3,3.6
		c0.3-0.5,0.8-1.5,1.5-3.2c0.8-1.6,1.5-3.2,2.2-4.6c2.1-4.7,4.2-8.9,6.6-12.6c0.4-0.6,0.8-1,1.2-1.3c0.4-0.3,1.1-0.4,2.1-0.4
		c0.5,0,1.1,1.6,1.8,4.8c0.6,3.2,1.2,6.9,1.6,11.1c1.1,5.9,2.2,9.2,3.1,9.7c0.6,0.4,0.9,0.8,0.9,1.2C178.6,71.5,178.3,71.7,177.8,72
		z"/>
	<path d="M210.3,70.3c-1.4,1.4-3.4,2.5-5.9,3.3c-2.5,0.9-5.4,1.3-8.7,1.3c-2.7,0-4.9-0.1-6.5-0.4c-1.6-0.3-2.4-0.7-2.4-1.2
		c0-0.3,0.3-0.7,0.9-1.4c0.6-0.7,1.1-1,1.4-1c0.5,0,0.8,0.1,0.8,0.2c0,0.1-0.1,0.2-0.2,0.3c-0.1,0.1-0.2,0.2-0.2,0.3
		c0,0.1,0.3,0.2,0.8,0.4s1.3,0.3,2.4,0.5c1.1,0.1,2.4,0.2,4,0.2c2.5,0,4.7-0.3,6.5-1s3.3-1.5,4.3-2.4c1-1,1.5-1.9,1.5-2.9
		c0-1.2-0.9-2.2-2.6-3.1c-1.7-0.9-4.5-1.7-8.4-2.5c-3.7-0.8-6.6-1.5-8.7-2c-2-0.5-3.7-1.2-4.9-2c-1.3-0.8-1.9-1.8-1.9-2.9
		c0-1.5,1.3-3.1,3.9-4.6c2.6-1.5,5.8-2.7,9.6-3.7c3.8-0.9,7.4-1.4,10.6-1.4c1.7,0,2.6,0.2,2.7,0.7s0.2,1,0.2,1.5
		c0,0.4-0.2,0.6-0.7,0.6c-0.2,0-0.5,0-0.7-0.1c-0.3-0.1-0.5-0.2-0.7-0.2c-0.3-0.1-0.5-0.1-0.9-0.2c-0.3-0.1-0.8-0.1-1.4-0.1
		c-2.2,0-4.8,0.4-7.9,1.1c-3.1,0.8-5.7,1.7-8,2.8c-2.2,1.1-3.4,2.2-3.4,3.2c0,0.8,0.5,1.6,1.5,2.2s2.4,1.1,4.1,1.6
		c1.7,0.4,4.2,1,7.3,1.6c4.6,0.9,8,1.9,10.2,3s3.3,2.5,3.3,4.1C212.5,67.6,211.8,69,210.3,70.3z"/>
</g>
</svg>
