<svg id="Layer_1" data-name="Layer 1" xmlns="http://www.w3.org/2000/svg" viewBox="0 0 268.29 83.505">
  <defs>
    <style>
      .cls-1 {
        fill: #bbbdbf;
      }

      .cls-2 {
        fill: #020202;
      }

      .cls-3 {
        fill: #808184;
      }
    </style>
  </defs>
  <title>DomaSoftware</title>
  <rect class="cls-1" width="83.505" height="83.505"/>
  <polygon class="cls-2" points="68.871 45.845 68.871 16.401 14.634 16.401 14.634 45.845 37.608 45.845 37.608 53.968 24.523 53.968 24.185 67.104 58.982 67.104 59.32 53.968 45.897 53.968 45.897 45.845 68.871 45.845"/>
  <g>
    <path class="cls-3" d="M120.882,24.617a14.242,14.242,0,0,1,5.528,5.508,16.005,16.005,0,0,1,1.989,8.014,16.109,16.109,0,0,1-1.989,8.033,14.2,14.2,0,0,1-5.528,5.528,16.111,16.111,0,0,1-8.033,1.988h-7.158A1.155,1.155,0,0,1,104.5,52.5V23.822a1.14,1.14,0,0,1,.338-.875,1.2,1.2,0,0,1,.855-.319h7.158A16.122,16.122,0,0,1,120.882,24.617ZM119.65,49.811a12.31,12.31,0,0,0,4.673-4.792,14.007,14.007,0,0,0,1.69-6.88,13.889,13.889,0,0,0-1.69-6.86,12.355,12.355,0,0,0-4.673-4.773,13.306,13.306,0,0,0-6.8-1.73h-5.965V51.541h5.965A13.306,13.306,0,0,0,119.65,49.811Z" transform="translate(-9.838 -20.539)"/>
    <path class="cls-3" d="M149.953,33.147a10.548,10.548,0,0,1,4,4,11.785,11.785,0,0,1,0,11.334,10.52,10.52,0,0,1-4,4,11.785,11.785,0,0,1-11.334,0,10.51,10.51,0,0,1-4-4,11.792,11.792,0,0,1,0-11.334,10.538,10.538,0,0,1,4-4,11.792,11.792,0,0,1,11.334,0Zm-10.1,1.949a8.559,8.559,0,0,0-3.141,3.2,9.482,9.482,0,0,0,0,9.067,8.4,8.4,0,0,0,3.141,3.181,9.174,9.174,0,0,0,8.909,0,8.267,8.267,0,0,0,3.121-3.181,9.629,9.629,0,0,0,0-9.067,8.419,8.419,0,0,0-3.121-3.2,9.045,9.045,0,0,0-8.909,0Z" transform="translate(-9.838 -20.539)"/>
    <path class="cls-3" d="M188.569,32.849a7.982,7.982,0,0,1,2.9,3.321A10.935,10.935,0,0,1,192.507,41V52.5a1.206,1.206,0,0,1-.319.856,1.143,1.143,0,0,1-.875.337A1.155,1.155,0,0,1,190.12,52.5V41a7.552,7.552,0,0,0-1.63-5.011,5.2,5.2,0,0,0-4.176-1.948,5.86,5.86,0,0,0-4.494,1.829,6.551,6.551,0,0,0-1.631,4.852V52.5a1.2,1.2,0,0,1-.317.856,1.28,1.28,0,0,1-1.731,0,1.163,1.163,0,0,1-.338-.856V41a7.552,7.552,0,0,0-1.63-5.011A5.2,5.2,0,0,0,170,34.043a5.995,5.995,0,0,0-6.244,6.283V52.5a1.2,1.2,0,0,1-.318.856,1.278,1.278,0,0,1-1.73,0,1.163,1.163,0,0,1-.338-.856V33.128a1.143,1.143,0,0,1,.338-.875,1.332,1.332,0,0,1,1.73,0,1.181,1.181,0,0,1,.318.875v1.551a7.7,7.7,0,0,1,2.745-2.227,7.858,7.858,0,0,1,3.5-.8,7.7,7.7,0,0,1,4.136,1.133,8.138,8.138,0,0,1,2.9,3.122,7.966,7.966,0,0,1,2.983-3.122,8.261,8.261,0,0,1,4.3-1.133A7.742,7.742,0,0,1,188.569,32.849Z" transform="translate(-9.838 -20.539)"/>
    <path class="cls-3" d="M214.856,33.147a10.538,10.538,0,0,1,4,4,11.276,11.276,0,0,1,1.452,5.687V52.5a1.2,1.2,0,0,1-.318.856,1.144,1.144,0,0,1-.875.337,1.156,1.156,0,0,1-1.194-1.193v-3.1a9.238,9.238,0,0,1-3.6,3.321,10.727,10.727,0,0,1-5.109,1.213,11.262,11.262,0,0,1-5.688-1.452,10.51,10.51,0,0,1-4-4,11.792,11.792,0,0,1,0-11.334,10.538,10.538,0,0,1,4-4,11.792,11.792,0,0,1,11.334,0Zm-1.193,17.4a8.269,8.269,0,0,0,3.122-3.181,9.637,9.637,0,0,0,0-9.067,8.422,8.422,0,0,0-3.122-3.2,8.734,8.734,0,0,0-12.05,3.2,9.489,9.489,0,0,0,0,9.067,8.412,8.412,0,0,0,3.142,3.181,9.172,9.172,0,0,0,8.908,0Z" transform="translate(-9.838 -20.539)"/>
    <path d="M118.775,64.718a9.539,9.539,0,0,1,3.579,3.34,1.268,1.268,0,0,1,.159.637.99.99,0,0,1-.179.576,1.276,1.276,0,0,1-.5.418,1.108,1.108,0,0,1-.477.079,1.265,1.265,0,0,1-1.114-.595,7.706,7.706,0,0,0-6.8-3.461A7.994,7.994,0,0,0,108.3,67.2a5.042,5.042,0,0,0-1.849,4.156,4.666,4.666,0,0,0,1.829,3.739,11.983,11.983,0,0,0,5.647,2.148q5.01.836,7.317,3.081a7.875,7.875,0,0,1,2.307,5.906,9.125,9.125,0,0,1-1.213,4.773,7.936,7.936,0,0,1-3.42,3.1,11.547,11.547,0,0,1-5.11,1.073,13.081,13.081,0,0,1-6.483-1.532,9.831,9.831,0,0,1-4.1-4.194,1.074,1.074,0,0,1,.219-1.274,1.253,1.253,0,0,1,.894-.317,1.2,1.2,0,0,1,1.154.755,7.343,7.343,0,0,0,3.2,3.082A11.051,11.051,0,0,0,113.8,92.8a7.94,7.94,0,0,0,5.388-1.71,6.079,6.079,0,0,0,1.969-4.852,5.814,5.814,0,0,0-1.928-4.474,10.342,10.342,0,0,0-5.708-2.286,12.981,12.981,0,0,1-6.939-2.883,7.052,7.052,0,0,1-2.526-5.469,7.2,7.2,0,0,1,1.174-4.076,7.679,7.679,0,0,1,3.3-2.745,11.689,11.689,0,0,1,4.912-.974A10.522,10.522,0,0,1,118.775,64.718Z" transform="translate(-9.838 -20.539)"/>
    <path d="M145.3,74.242a10.548,10.548,0,0,1,4,4,11.792,11.792,0,0,1,0,11.334,10.528,10.528,0,0,1-4,4,11.785,11.785,0,0,1-11.334,0,10.508,10.508,0,0,1-4-4,11.785,11.785,0,0,1,0-11.334,10.527,10.527,0,0,1,4-4,11.792,11.792,0,0,1,11.334,0Zm-10.1,1.95a8.568,8.568,0,0,0-3.141,3.2,9.486,9.486,0,0,0,0,9.069,8.423,8.423,0,0,0,3.141,3.181,9.181,9.181,0,0,0,8.909,0,8.29,8.29,0,0,0,3.122-3.181,9.641,9.641,0,0,0,0-9.069,8.431,8.431,0,0,0-3.122-3.2,9.038,9.038,0,0,0-8.909,0Z" transform="translate(-9.838 -20.539)"/>
    <path d="M162.242,67.8a9.1,9.1,0,0,0-1.312,5.191v.835h5.249a1.074,1.074,0,1,1,0,2.147H160.93V93.59a1.161,1.161,0,0,1-.338.856,1.214,1.214,0,0,1-.9.338A1.155,1.155,0,0,1,158.5,93.59V75.973h-3.1a1.074,1.074,0,1,1,0-2.147h3.1v-.835a10.58,10.58,0,0,1,1.988-6.762,7.155,7.155,0,0,1,5.965-2.506,1.248,1.248,0,0,1,.856.3,1.059,1.059,0,0,1,0,1.551,1.247,1.247,0,0,1-.856.3A4.731,4.731,0,0,0,162.242,67.8Z" transform="translate(-9.838 -20.539)"/>
    <path d="M181.947,92.7a1.214,1.214,0,0,1,.338.9,1.161,1.161,0,0,1-.338.856,1.211,1.211,0,0,1-.9.338h-.915a7.6,7.6,0,0,1-3.9-1,7.014,7.014,0,0,1-2.666-2.724,7.974,7.974,0,0,1-.954-3.917V75.973h-3.1a1.074,1.074,0,1,1,0-2.147h3.1V67.342a1.209,1.209,0,0,1,.338-.894,1.16,1.16,0,0,1,.856-.338,1.162,1.162,0,0,1,1.232,1.232v6.484H180.3a1.074,1.074,0,1,1,0,2.147h-5.249V87.148a5.125,5.125,0,0,0,1.432,3.758,4.96,4.96,0,0,0,3.7,1.451h.875A1.211,1.211,0,0,1,181.947,92.7Z" transform="translate(-9.838 -20.539)"/>
    <path d="M212.39,73.348a1.169,1.169,0,0,1,.279.8,1.71,1.71,0,0,1-.119.6l-6.4,19.287a1.042,1.042,0,0,1-.419.557,1.291,1.291,0,0,1-.735.2,1.323,1.323,0,0,1-.716-.2.848.848,0,0,1-.4-.557l-5.409-16.821-5.249,16.821a1.084,1.084,0,0,1-1.114.757,1.223,1.223,0,0,1-.7-.2,1.035,1.035,0,0,1-.418-.557L184.552,74.74a4.976,4.976,0,0,1-.081-.636q0-1.074,1-1.075a1.242,1.242,0,0,1,.656.18,1.152,1.152,0,0,1,.458.536l5.607,16.942,5.171-16.7a1.316,1.316,0,0,1,.437-.7,1.161,1.161,0,0,1,.755-.259,1.2,1.2,0,0,1,1.194.956l5.209,16.384,5.528-16.624a1.128,1.128,0,0,1,1.113-.716A1,1,0,0,1,212.39,73.348Z" transform="translate(-9.838 -20.539)"/>
    <path d="M231.837,74.242a10.534,10.534,0,0,1,4,4,11.27,11.27,0,0,1,1.452,5.686V93.59a1.2,1.2,0,0,1-.318.856,1.145,1.145,0,0,1-.875.338A1.158,1.158,0,0,1,234.9,93.59v-3.1a9.238,9.238,0,0,1-3.6,3.321,10.727,10.727,0,0,1-5.109,1.213A11.262,11.262,0,0,1,220.5,93.57a10.515,10.515,0,0,1-4-4,11.792,11.792,0,0,1,0-11.334,10.534,10.534,0,0,1,4-4,11.792,11.792,0,0,1,11.334,0Zm-1.193,17.4a8.283,8.283,0,0,0,3.122-3.181,9.641,9.641,0,0,0,0-9.069,8.424,8.424,0,0,0-3.122-3.2,8.736,8.736,0,0,0-12.05,3.2,9.486,9.486,0,0,0,0,9.069,8.426,8.426,0,0,0,3.142,3.181,9.179,9.179,0,0,0,8.908,0Z" transform="translate(-9.838 -20.539)"/>
    <path d="M255.5,74.1a1.049,1.049,0,0,1-.04.318,1.06,1.06,0,0,1-.378.617,1.208,1.208,0,0,1-.7.178,7.16,7.16,0,0,1-.935-.079,7.412,7.412,0,0,0-4.512.755,6.154,6.154,0,0,0-2.426,2.307,6.331,6.331,0,0,0-.876,3.3V93.59a1.2,1.2,0,0,1-.318.856,1.145,1.145,0,0,1-.875.338,1.156,1.156,0,0,1-1.193-1.194V74.223a1.143,1.143,0,0,1,.338-.875,1.2,1.2,0,0,1,.855-.319,1.1,1.1,0,0,1,1.193,1.194v2.466a8.461,8.461,0,0,1,2.943-2.863,7.652,7.652,0,0,1,3.9-1.035Q255.5,72.791,255.5,74.1Z" transform="translate(-9.838 -20.539)"/>
    <path d="M273.3,74.2a9.454,9.454,0,0,1,3.56,3.8,11.727,11.727,0,0,1,1.273,5.527,1.061,1.061,0,0,1-.319.816,1.17,1.17,0,0,1-.835.3H260.31a8.892,8.892,0,0,0,1.233,4.2,7.893,7.893,0,0,0,2.983,2.884,8.483,8.483,0,0,0,4.176,1.033,9.633,9.633,0,0,0,3.122-.536,6.7,6.7,0,0,0,2.486-1.412,1.31,1.31,0,0,1,.835-.319,1.046,1.046,0,0,1,.8,1.829,10.055,10.055,0,0,1-3.321,1.91,11.334,11.334,0,0,1-3.917.756,10.964,10.964,0,0,1-5.588-1.413,10.048,10.048,0,0,1-3.838-3.936,11.629,11.629,0,0,1-1.392-5.708,12.408,12.408,0,0,1,1.294-5.745,9.628,9.628,0,0,1,3.618-3.939,10.049,10.049,0,0,1,5.309-1.411A9.881,9.881,0,0,1,273.3,74.2Zm-10.419,2.923a8.737,8.737,0,0,0-2.525,5.447h15.47a8.3,8.3,0,0,0-2.386-5.447,7.3,7.3,0,0,0-5.33-2.069A7.214,7.214,0,0,0,262.876,77.127Z" transform="translate(-9.838 -20.539)"/>
  </g>
</svg>
